<svg width="116" height="117" viewBox="0 0 116 117" fill="none" xmlns="http://www.w3.org/2000/svg">
<path fill-rule="evenodd" clip-rule="evenodd" d="M115.873 57.0529C115.881 56.6615 115.884 56.2692 115.884 55.8759C115.889 50.1523 115.102 44.4571 113.548 38.9609C107.587 55.4835 95.6444 68.9984 80.2172 76.6814C64.79 84.3643 47.0714 85.6208 30.7642 80.1884C40.2762 85.6542 50.9971 88.5093 61.8942 88.4787C85.1854 88.4787 105.45 75.7766 115.873 57.0529Z" fill="url(#paint0_linear_2787_18807)"/>
<path fill-rule="evenodd" clip-rule="evenodd" d="M115.961 71.0464C114.207 77.8053 111.323 84.199 107.437 89.9415C98.1252 95.668 87.4531 98.6334 76.6027 98.5096C57.9234 98.5096 41.6882 90.3086 33.4395 78.2504C44.5271 85.1581 57.2743 88.7371 70.2381 88.5825C88.8509 88.5825 105.406 81.712 115.961 71.0464Z" fill="url(#paint1_linear_2787_18807)"/>
<path fill-rule="evenodd" clip-rule="evenodd" d="M100.972 100.311C95.3843 102.071 89.5724 102.963 83.7284 102.958C50.6987 102.958 23.9224 74.875 23.9224 40.2336C23.8845 25.5684 28.8062 11.3457 37.8448 0C26.7451 4.37852 17.1919 12.1038 10.4383 22.1626C3.68471 32.2213 0.0461824 44.1437 0 56.3659C0 89.8236 26.7761 116.947 59.8058 116.947C75.0864 116.985 89.8072 111.037 100.972 100.311Z" fill="url(#paint2_linear_2787_18807)"/>
<path d="M111.26 58.6852C109.006 59.7672 106.976 61.2848 105.28 63.1554C101.745 66.7891 99.4332 70.0025 90.7324 71.1222C86.0211 71.673 81.2636 70.6299 77.1808 68.1513C74.9352 66.7696 72.5143 65.7144 69.987 65.0158C63.7101 63.1683 56.9841 63.8515 51.1803 66.9262C45.6915 69.7873 39.5287 70.9976 33.4005 70.4182C29.1431 70.0923 25.0042 68.8248 21.2673 66.7022C16.9279 64.2844 9.24964 61.2403 3.08301 65.3905C3.08301 65.3905 9.22744 57.3688 21.9521 63.0137C33.9164 68.3249 47.8771 59.2749 50.9981 57.1402C51.6328 56.7026 52.3004 56.3173 52.9944 55.9884C54.1898 55.4401 55.427 54.9938 56.6934 54.6539C58.2703 54.0468 59.9174 53.6533 61.593 53.4837C62.8517 53.3542 64.1161 53.2932 65.3811 53.301C68.0154 53.2889 70.6065 53.9886 72.8949 55.3303C73.0327 55.4034 73.1662 55.4765 73.2951 55.5589C74.0464 55.993 74.7533 56.5141 75.5181 56.9301C77.7247 58.0957 79.8168 59.478 81.7647 61.0573C81.7647 61.0573 90.599 67.6255 102.83 61.3408C102.83 61.3408 108.405 57.4237 111.26 58.6852Z" fill="url(#paint3_linear_2787_18807)"/>
<path d="M19.6445 57.5637C19.6445 57.5637 30.7908 57.7034 39.4903 46.2446C48.1898 34.7856 57.174 31.2922 57.174 31.2922C57.174 31.2922 77.4149 22.7678 90.0564 35.9036C90.0564 35.9036 85.6184 33.5627 75.2399 33.1088C71.276 32.9776 67.3321 33.7407 63.686 35.3446C63.686 35.3446 59.4721 37.7202 54.8504 44.8471C50.2288 51.9739 41.1214 57.5637 41.1214 57.5637C41.1214 57.5637 29.2956 63.0136 19.6445 57.5637Z" fill="url(#paint4_linear_2787_18807)"/>
<path d="M82.5801 53.7789C82.5801 53.7789 89.3766 55.7472 93.5904 52.6729C97.8043 49.5985 103.785 45.9653 109.766 52.6729C109.766 52.6729 103.649 50.996 100.251 56.5856C100.251 56.5856 94.5419 62.8502 82.5801 53.7789Z" fill="url(#paint5_linear_2787_18807)"/>
<path d="M41.2573 73.0996C41.2573 73.0996 48.0538 75.068 52.2677 71.9936C56.4815 68.9194 62.4624 65.2861 68.4433 71.9936C68.4433 71.9936 62.3265 70.3167 58.9283 75.9065C58.9283 75.9065 53.2191 82.1709 41.2573 73.0996Z" fill="url(#paint6_linear_2787_18807)"/>
<path d="M6.1875 52.3936C6.1875 52.3936 13.3918 43.1706 22.2273 46.1052C24.2223 46.7491 26.3448 46.8559 28.3915 46.4155C30.4382 45.975 32.3409 45.0023 33.9173 43.5898C31.6628 47.6282 27.9511 50.5905 23.5865 51.8346C23.5865 51.8346 23.7224 52.5333 16.6541 51.6949C9.58576 50.8564 6.1875 52.3936 6.1875 52.3936Z" fill="url(#paint7_linear_2787_18807)"/>
<path d="M76.2872 52.5653C75.5292 53.7882 74.5047 54.8133 73.295 55.5591C73.1661 55.4768 73.0326 55.4036 72.8947 55.3306C70.6064 53.989 68.0153 53.2891 65.381 53.3012C64.1161 53.2934 62.8516 53.3544 61.5929 53.4839C60.5278 52.1529 59.8413 50.545 59.6094 48.838C59.3774 47.1309 59.6091 45.3911 60.2787 43.811C60.9483 42.2309 62.0298 40.8717 63.4036 39.8838C64.7776 38.8959 66.3903 38.3176 68.0638 38.2131C69.7373 38.1084 71.4064 38.4815 72.8866 39.2909C74.3667 40.1004 75.6005 41.3147 76.4514 42.7998C77.3024 44.2849 77.7373 45.983 77.7084 47.7064C77.6793 49.4296 77.1875 51.1113 76.2871 52.5653H76.2872Z" fill="#EF4423"/>
<defs>
<linearGradient id="paint0_linear_2787_18807" x1="12.1793" y1="114.817" x2="149.441" y2="24.6921" gradientUnits="userSpaceOnUse">
<stop offset="0.29212" stop-color="#1988A1"/>
<stop offset="0.77263" stop-color="#0B5C9A"/>
</linearGradient>
<linearGradient id="paint1_linear_2787_18807" x1="128.367" y1="37.8363" x2="30.1392" y2="112.056" gradientUnits="userSpaceOnUse">
<stop stop-color="#166E9D"/>
<stop offset="0.85787" stop-color="#26A8A0"/>
</linearGradient>
<linearGradient id="paint2_linear_2787_18807" x1="76.5034" y1="-2.29275" x2="33.1907" y2="116.586" gradientUnits="userSpaceOnUse">
<stop stop-color="#17668F"/>
<stop offset="0.17513" stop-color="#186990"/>
<stop offset="0.63127" stop-color="#2FBBA4"/>
</linearGradient>
<linearGradient id="paint3_linear_2787_18807" x1="12.1191" y1="82.1929" x2="109.883" y2="44.6335" gradientUnits="userSpaceOnUse">
<stop stop-color="#F7D317"/>
<stop offset="0.31726" stop-color="#F6CE19"/>
<stop offset="1" stop-color="#ED8422"/>
</linearGradient>
<linearGradient id="paint4_linear_2787_18807" x1="16.6295" y1="60.979" x2="131.101" y2="8.90955" gradientUnits="userSpaceOnUse">
<stop stop-color="#ED8422"/>
<stop offset="0.40609" stop-color="#EF4423"/>
</linearGradient>
<linearGradient id="paint5_linear_2787_18807" x1="74.676" y1="69.0891" x2="142.385" y2="21.814" gradientUnits="userSpaceOnUse">
<stop stop-color="#F7D317"/>
<stop offset="0.67005" stop-color="#ED8422"/>
</linearGradient>
<linearGradient id="paint6_linear_2787_18807" x1="33.3532" y1="88.4098" x2="101.062" y2="41.1347" gradientUnits="userSpaceOnUse">
<stop stop-color="#F7D317"/>
<stop offset="0.67005" stop-color="#ED8422"/>
</linearGradient>
<linearGradient id="paint7_linear_2787_18807" x1="2.71658" y1="57.4448" x2="33.6265" y2="42.6119" gradientUnits="userSpaceOnUse">
<stop stop-color="#F7D317"/>
<stop offset="0.67005" stop-color="#ED8422"/>
</linearGradient>
</defs>
</svg>
