<svg width="115" height="117" viewBox="0 0 115 117" fill="none" xmlns="http://www.w3.org/2000/svg">
<path fill-rule="evenodd" clip-rule="evenodd" d="M114.874 57.0529C114.882 56.6613 114.885 56.269 114.885 55.8757C114.89 50.1521 114.11 44.4569 112.569 38.9607C106.659 55.4834 94.82 68.9983 79.5257 76.6813C64.2316 84.3642 46.6657 85.6207 30.499 80.1883C39.929 85.654 50.5576 88.5092 61.3607 88.4786C84.4511 88.4786 104.541 75.7765 114.874 57.0529Z" fill="url(#paint0_linear_2787_18804)"/>
<path fill-rule="evenodd" clip-rule="evenodd" d="M114.961 71.0459C113.222 77.8048 110.363 84.1985 106.511 89.941C97.279 95.6675 86.699 98.633 75.942 98.5093C57.4237 98.5093 41.3285 90.3082 33.1509 78.2501C44.1429 85.1577 56.7802 88.7366 69.6323 88.582C88.0847 88.582 104.497 81.7116 114.961 71.0459Z" fill="url(#paint1_linear_2787_18804)"/>
<path fill-rule="evenodd" clip-rule="evenodd" d="M100.102 100.311C94.562 102.071 88.8002 102.963 83.0066 102.958C50.2617 102.958 23.7161 74.8749 23.7161 40.2336C23.6786 25.5684 28.5579 11.3457 37.5186 0C26.5145 4.37852 17.0437 12.1038 10.3483 22.1626C3.65295 32.2213 0.0457876 44.1437 0 56.3659C0 89.8236 26.5453 116.947 59.2903 116.947C74.4391 116.985 89.033 111.037 100.102 100.311Z" fill="url(#paint2_linear_2787_18804)"/>
<path d="M31.7242 88.4016V90.0001H10.4009V88.4016H16.1986L20.9176 79.9326L25.6292 88.4016H31.7242Z" fill="#F7D317"/>
<path d="M79.7913 36.78C79.227 38.1168 78.5487 39.3986 77.7647 40.6104C77.7647 40.6104 76.1105 42.5587 73.3341 45.2918L73.3305 45.2926C70.2537 45.6167 67.7881 46.1385 67.7881 46.1385C66.5544 46.4365 65.2712 46.4368 64.0374 46.1394C70.5792 40.2805 77.3335 31.9417 71.0507 26.3378C60.699 17.1013 46.0572 34.0099 45.3867 34.7945C45.9405 33.9537 57.14 17.4085 71.6988 20.4562C74.6844 21.4121 77.3242 23.2762 79.2758 25.8066C79.2758 25.8066 79.329 25.89 79.426 26.0308C81.0573 28.5418 81.7628 32.0425 79.7913 36.78Z" fill="url(#paint3_linear_2787_18804)"/>
<path d="M58.0867 46.4062C57.5778 47.4158 57.1604 48.4722 56.84 49.5617C56.8156 49.6436 56.7914 49.7254 56.7717 49.8102C56.7102 50.037 56.6569 50.2659 56.6074 50.4938C56.5945 50.557 56.5852 50.6191 56.5722 50.6823C56.5429 50.8453 56.5143 51.0122 56.4933 51.1774C56.4817 51.2641 56.4738 51.3501 56.4614 51.4331C56.4554 51.5106 56.4503 51.5918 56.4445 51.6692C56.4354 51.7675 56.4337 51.8639 56.4275 51.9575C56.4263 52.0217 56.4298 52.0889 56.4286 52.1532C55.6299 52.7084 55.1583 53.0174 55.1583 53.0174C43.5708 61.8387 33.414 72.5197 25.0703 84.6581C25.0703 84.6581 33.5177 66.9143 58.0867 46.4062Z" fill="url(#paint4_linear_2787_18804)"/>
<path d="M61.8004 54.8938C60.2474 55.9616 58.6242 56.9742 56.9489 57.8912C44.7243 64.5459 33.8901 73.6428 25.0703 84.658C33.414 72.5196 43.5708 61.8386 55.1583 53.0173C55.1583 53.0173 55.6299 52.7084 56.4286 52.1531C56.4272 52.2339 56.4297 52.3149 56.4363 52.3955L56.4541 52.6312C56.4893 53.0853 56.6228 53.5252 56.8446 53.9184C56.89 54.0027 56.9426 54.0826 57.0018 54.157L57.0063 54.1599C57.1573 54.3588 57.3388 54.5302 57.5438 54.6676C58.3605 55.2165 59.7012 55.38 61.8004 54.8938Z" fill="url(#paint5_linear_2787_18804)"/>
<path d="M107.358 23.1421C107.344 23.1815 107.265 23.3844 107.113 23.7248L107.111 23.7295C95.29 39.599 84.8469 36.1788 80.7208 33.8165C81.0434 32.4971 81.0947 31.1221 80.8715 29.7808C80.6482 28.4395 80.1554 27.1619 79.4248 26.0311C80.6146 27.7193 88.5772 38.1156 99.5692 30.1956C99.5692 30.1956 102.277 28.7316 107.358 23.1421Z" fill="url(#paint6_linear_2787_18804)"/>
<path d="M107.11 23.7295C104.177 29.7379 99.3048 34.4892 93.3415 37.1559C91.2258 38.249 88.8835 38.7866 86.5206 38.7211C84.1576 38.6555 81.8464 37.9892 79.79 36.7803C80.1946 35.8269 80.5063 34.8341 80.7206 33.8165C84.8465 36.1788 95.2896 39.5991 107.11 23.7295Z" fill="url(#paint7_linear_2787_18804)"/>
<path d="M78.9356 55.0365C78.9356 55.0365 78.8616 57.2191 59.5129 77.0986C65.0896 70.162 69.593 65.5311 69.593 65.5311C80.2554 54.7768 74.1004 53.7882 74.1004 53.7882C74.1004 53.7882 71.098 52.7298 61.8044 54.893L61.8008 54.8939C59.7016 55.3801 58.3608 55.2167 57.5441 54.6677C57.4406 54.5954 57.3418 54.5162 57.2483 54.4304C57.1605 54.3475 57.0797 54.2571 57.0068 54.16L57.0021 54.1572C56.9461 54.0786 56.8937 53.999 56.845 53.9186C56.625 53.5247 56.4916 53.0851 56.4544 52.6315L56.4366 52.3956C56.4301 52.315 56.4275 52.2342 56.4291 52.1533C56.4302 52.0891 56.4268 52.0218 56.428 51.9575C56.4342 51.864 56.4359 51.7676 56.4448 51.6694C56.4508 51.5919 56.4558 51.5107 56.4618 51.4331C56.4741 51.3502 56.4821 51.2643 56.4936 51.1774C56.5148 51.0123 56.5432 50.8455 56.5725 50.6824C56.5855 50.6193 56.5948 50.557 56.6078 50.4939C56.6574 50.2659 56.7107 50.037 56.7722 49.8103C56.7919 49.7255 56.8161 49.6436 56.8403 49.5619C57.1609 48.4722 57.5782 47.4158 58.0871 46.4063L58.0936 46.4009L58.1196 46.3785C58.1288 46.3684 58.1417 46.3573 58.1576 46.3415C58.3957 46.1285 59.1858 45.3952 60.2372 44.3274C59.7396 45.3347 58.7652 47.8409 60.7298 48.9355L60.7335 48.9346C61.5467 49.3241 62.4394 49.502 63.3339 49.4529C67.0549 49.4554 70.7681 49.1056 74.4276 48.4076C74.4276 48.4076 86.0582 46.9138 78.9356 55.0365Z" fill="url(#paint8_linear_2787_18804)"/>
<path d="M90.8628 19.649C91.0941 20.681 91.0806 21.7557 90.8234 22.7812C90.5663 23.8066 90.0733 24.752 89.3865 25.5365C78.9283 28.9349 80.3143 16.362 80.3143 16.362C81.1329 15.5477 82.1497 14.9794 83.2557 14.718C84.895 14.3261 86.6173 14.6254 88.0438 15.5501C89.4704 16.4748 90.4844 17.9492 90.8628 19.649Z" fill="url(#paint9_linear_2787_18804)"/>
<path d="M89.3868 25.5365C88.8148 26.1927 88.1212 26.7225 87.3473 27.0941C86.5733 27.4658 85.735 27.6716 84.8825 27.6995C84.0301 27.7274 83.181 27.5766 82.3861 27.2562C81.5911 26.9359 80.8666 26.4524 80.256 25.8349C79.6454 25.2174 79.1612 24.4786 78.8324 23.6625C78.5037 22.8465 78.337 21.97 78.3424 21.0856C78.3479 20.2012 78.5253 19.327 78.8642 18.5154C79.2031 17.7038 79.6964 16.9714 80.3145 16.3621C80.3145 16.3621 78.9285 28.9349 89.3868 25.5365Z" fill="url(#paint10_linear_2787_18804)"/>
<path d="M64.0372 46.1395C62.5493 45.6271 61.6803 44.1142 63.9991 40.1579L64.0048 40.1487C68.607 34.5216 72.7696 26.919 63.1962 25.4997C63.1962 25.4997 57.0161 24.381 45.3687 34.8189C45.3749 34.8111 45.3809 34.8029 45.3864 34.7945C46.057 34.0099 60.6988 17.1013 71.0505 26.3378C77.3332 31.9418 70.579 40.2806 64.0372 46.1395Z" fill="url(#paint11_linear_2787_18804)"/>
<path d="M45.3698 34.8188L45.3623 34.8252" stroke="#231F20" stroke-miterlimit="10"/>
<path d="M82.8638 53.4686C75.8288 62.1029 68.0096 70.0158 59.5142 77.0983C78.8629 57.219 78.9368 55.0363 78.9368 55.0363C86.0594 46.9136 74.4289 48.4075 74.4289 48.4075C70.7694 49.1053 67.0561 49.4552 63.3353 49.4528C62.4407 49.5019 61.5481 49.3239 60.7347 48.9345L60.7311 48.9353C58.7665 47.8407 59.7409 45.3346 60.2384 44.3272C61.3177 43.2286 62.6768 41.7749 63.9996 40.158C61.6806 44.1141 62.5498 45.627 64.0375 46.1394C65.2714 46.4368 66.5546 46.4365 67.7884 46.1385C67.7884 46.1385 70.254 45.6167 73.3307 45.2927L73.3344 45.2918C80.0346 44.5853 89.6133 44.8308 82.8638 53.4686Z" fill="url(#paint12_linear_2787_18804)"/>
<defs>
<linearGradient id="paint0_linear_2787_18804" x1="12.0744" y1="114.817" x2="148.862" y2="25.7787" gradientUnits="userSpaceOnUse">
<stop offset="0.29212" stop-color="#1988A1"/>
<stop offset="0.77263" stop-color="#0B5C9A"/>
</linearGradient>
<linearGradient id="paint1_linear_2787_18804" x1="127.26" y1="37.836" x2="29.2677" y2="111.24" gradientUnits="userSpaceOnUse">
<stop stop-color="#166E9D"/>
<stop offset="0.85787" stop-color="#26A8A0"/>
</linearGradient>
<linearGradient id="paint2_linear_2787_18804" x1="75.8439" y1="-2.29275" x2="32.2438" y2="116.343" gradientUnits="userSpaceOnUse">
<stop stop-color="#17668F"/>
<stop offset="0.17513" stop-color="#186990"/>
<stop offset="0.63127" stop-color="#2FBBA4"/>
</linearGradient>
<linearGradient id="paint3_linear_2787_18804" x1="46.1682" y1="38.3079" x2="81.0594" y2="30.5456" gradientUnits="userSpaceOnUse">
<stop stop-color="#F7D317"/>
<stop offset="0.47087" stop-color="#ED8422"/>
<stop offset="0.85838" stop-color="#EF4423"/>
</linearGradient>
<linearGradient id="paint4_linear_2787_18804" x1="34.4831" y1="76.6526" x2="60.6376" y2="42.3462" gradientUnits="userSpaceOnUse">
<stop offset="0.68203" stop-color="#F7D317"/>
<stop offset="1" stop-color="#ED8422"/>
</linearGradient>
<linearGradient id="paint5_linear_2787_18804" x1="22.4299" y1="72.7908" x2="63.7376" y2="63.6008" gradientUnits="userSpaceOnUse">
<stop stop-color="#F7D317"/>
<stop offset="0.47087" stop-color="#ED8422"/>
<stop offset="0.85838" stop-color="#EF4423"/>
</linearGradient>
<linearGradient id="paint6_linear_2787_18804" x1="79.8449" y1="35.5902" x2="121.702" y2="8.3642" gradientUnits="userSpaceOnUse">
<stop stop-color="#ED8422"/>
<stop offset="0.42332" stop-color="#EF4423"/>
</linearGradient>
<linearGradient id="paint7_linear_2787_18804" x1="81.5158" y1="38.7371" x2="106.182" y2="25.4982" gradientUnits="userSpaceOnUse">
<stop offset="0.28265" stop-color="#EF4423"/>
<stop offset="0.56463" stop-color="#B73426"/>
</linearGradient>
<linearGradient id="paint8_linear_2787_18804" x1="56.0705" y1="61.6256" x2="82.4087" y2="55.766" gradientUnits="userSpaceOnUse">
<stop offset="0.02841" stop-color="#F7D317"/>
<stop offset="0.20547" stop-color="#EE6A24"/>
<stop offset="0.47572" stop-color="#EF4423"/>
</linearGradient>
<linearGradient id="paint9_linear_2787_18804" x1="80.6938" y1="21.4994" x2="90.7758" y2="19.2563" gradientUnits="userSpaceOnUse">
<stop stop-color="#ED8422"/>
<stop offset="1" stop-color="#F7D317"/>
</linearGradient>
<linearGradient id="paint10_linear_2787_18804" x1="78.6045" y1="23.0542" x2="88.3523" y2="20.8856" gradientUnits="userSpaceOnUse">
<stop stop-color="#EF4423"/>
<stop offset="0.45178" stop-color="#ED8422"/>
</linearGradient>
<linearGradient id="paint11_linear_2787_18804" x1="36.2063" y1="67.7219" x2="69.4956" y2="23.9584" gradientUnits="userSpaceOnUse">
<stop offset="0.56433" stop-color="#F7D317"/>
<stop offset="1" stop-color="#ED8422"/>
</linearGradient>
<linearGradient id="paint12_linear_2787_18804" x1="59.8316" y1="74.1622" x2="90.5301" y2="13.7927" gradientUnits="userSpaceOnUse">
<stop stop-color="#F7D317"/>
<stop offset="0.35865" stop-color="#ED8422"/>
<stop offset="0.56463" stop-color="#EF4423"/>
</linearGradient>
</defs>
</svg>
