<svg width="116" height="117" viewBox="0 0 116 117" fill="none" xmlns="http://www.w3.org/2000/svg">
<path fill-rule="evenodd" clip-rule="evenodd" d="M115.873 58.5215C115.881 58.1399 115.884 57.7575 115.884 57.3741C115.889 51.7942 115.102 46.2419 113.548 40.8838C107.587 56.9916 95.6444 70.1672 80.2172 77.6573C64.79 85.1474 47.0714 86.3723 30.7642 81.0762C40.2762 86.4047 50.9971 89.1883 61.8942 89.1584C85.1854 89.1584 105.45 76.7751 115.873 58.5215Z" fill="url(#paint0_linear_2787_18810)"/>
<path fill-rule="evenodd" clip-rule="evenodd" d="M115.961 72.1636C114.207 78.7527 111.323 84.9858 107.438 90.5842C98.1253 96.1671 87.4532 99.058 76.6028 98.9374C57.9235 98.9374 41.6882 90.9422 33.4395 79.1868C44.5271 85.921 57.2743 89.4102 70.2381 89.2593C88.8509 89.2593 105.406 82.5614 115.961 72.1636Z" fill="url(#paint1_linear_2787_18810)"/>
<path fill-rule="evenodd" clip-rule="evenodd" d="M100.972 100.694C95.3842 102.409 89.5724 103.279 83.7284 103.274C50.6987 103.274 23.9224 75.8961 23.9224 42.1244C23.8845 27.8274 28.8062 13.9617 37.8448 2.90088C26.7451 7.16948 17.1919 14.7008 10.4383 24.507C3.68471 34.3132 0.046198 45.9364 0 57.8516C0 90.4694 26.7761 116.912 59.8058 116.912C75.0864 116.949 89.8072 111.15 100.972 100.694Z" fill="url(#paint2_linear_2787_18810)"/>
<path d="M70.8811 1.0957C70.8503 1.16166 70.8153 1.2232 70.7802 1.29357C70.7495 1.35072 70.7144 1.42104 70.6749 1.50019L70.6222 1.6057C68.5234 5.9943 67.8587 10.9344 68.7228 15.7234C70.3065 25.317 67.4637 32.4484 62.6119 39.0698C61.2721 37.8976 59.7561 36.945 58.1196 36.2472C59.4076 35.8326 60.5471 35.0508 61.3988 33.9975C62.2503 32.9441 62.7771 31.6648 62.9146 30.316C64.3341 28.8258 65.4242 27.0525 66.1135 25.1115C66.8029 23.1706 67.0762 21.1057 66.9154 19.0517C66.8189 18.1591 66.7487 17.2667 66.7399 16.3698C66.6873 12.5666 67.0558 4.40201 70.8811 1.0957Z" fill="url(#paint3_linear_2787_18810)"/>
<path d="M72.1664 22.415C72.2615 28.9473 69.9748 35.2899 65.7351 40.2523C65.428 40.6172 65.1079 40.9909 64.7701 41.3778C64.1284 40.539 63.4054 39.7657 62.6118 39.0696C67.4637 32.4482 70.3063 25.3168 68.7227 15.7232C67.8587 10.9342 68.5233 5.99406 70.6222 1.60547C69.8851 3.13554 68.2708 7.75203 70.938 15.3582C71.7141 17.6314 72.1287 20.0127 72.1664 22.415Z" fill="url(#paint4_linear_2787_18810)"/>
<path d="M68.6854 57.5356C68.3232 59.5702 67.6763 61.5432 66.7638 63.3965C65.7656 65.4716 64.4645 67.386 62.9035 69.0769C61.0372 71.4576 58.7701 73.4932 56.2047 75.0916C46.0402 80.926 44.8646 80.183 37.8939 80.948C33.1629 81.3711 28.3955 80.8174 23.8866 79.3211C22.652 78.9119 21.4508 78.4077 20.2937 77.8131C14.8145 74.9684 10.8576 69.0769 10.647 68.7559L10.6558 68.7603C10.6634 68.7689 10.6722 68.7763 10.682 68.7823C12.1376 70.1435 13.7065 71.3776 15.3717 72.4711C18.691 74.683 22.4516 76.1429 26.3914 76.7491C32.6515 77.7164 42.7151 78.3143 48.5935 73.6583C57.5777 66.5444 59.0518 59.0085 59.0518 59.0085C59.0518 59.0085 62.6753 36.2908 45.1059 39.3026C28.0585 42.2265 30.6731 59.4175 30.8399 60.4243C30.6599 59.7647 28.5893 51.8024 31.9629 44.948C33.5546 41.9331 35.9454 39.4169 38.8722 37.6759C42.0474 35.6955 45.7225 34.6687 49.4621 34.717C50.0894 34.7258 50.7518 34.7521 51.4406 34.8092C52.7433 36.1055 54.5049 36.8326 56.3407 36.8318C56.5337 36.8318 56.7223 36.823 56.9109 36.8053C57.4419 36.7662 57.9664 36.6629 58.4726 36.4977C60.1091 37.1955 61.6252 38.1481 62.9649 39.3202C63.7586 40.0165 64.4814 40.7896 65.1232 41.6285C65.2679 41.822 65.4127 42.0242 65.5576 42.2265C67.0933 44.4294 68.1629 46.9241 68.7009 49.557C69.2388 52.1897 69.2335 54.905 68.6854 57.5356Z" fill="url(#paint5_linear_2787_18810)"/>
<path d="M94.2568 94.3005C103.017 54.5062 66.7642 63.3963 66.7642 63.3963C67.6767 61.543 68.3236 59.57 68.6857 57.5354C72.3015 56.5521 76.1096 56.5218 79.7407 57.4476C88.4924 59.4657 92.116 65.1109 92.116 65.1109C92.116 65.1109 97.3451 69.7494 97.446 81.9458C97.5174 86.3287 96.4047 90.6492 94.226 94.45C94.2392 94.4017 94.248 94.3488 94.2568 94.3005Z" fill="url(#paint6_linear_2787_18810)"/>
<path d="M94.2563 94.3009C95.0922 89.3242 94.7022 84.2182 93.1201 79.4269C90.5406 71.9701 88.9965 69.5476 80.4464 67.0283C74.2521 65.1993 66.6322 67.6087 62.9033 69.0772C64.4644 67.3862 65.7655 65.4717 66.7638 63.3967C66.7638 63.3967 103.017 54.5065 94.2563 94.3009Z" fill="url(#paint7_linear_2787_18810)"/>
<path d="M63.303 29.8541C63.303 30.0959 63.2898 30.3333 63.2679 30.5664C63.0936 32.2637 62.3057 33.8386 61.0525 34.9938C49.6379 35.8467 51.9586 24.4417 51.9586 24.4417C52.9793 23.6107 54.214 23.0866 55.5197 22.9301C56.8253 22.7737 58.1486 22.9913 59.3359 23.5579C60.5233 24.1243 61.5261 25.0164 62.2282 26.1308C62.9304 27.2452 63.303 28.5361 63.303 29.8541Z" fill="url(#paint8_linear_2787_18810)"/>
<path d="M61.0523 34.9939C60.3119 35.6771 59.4316 36.1902 58.4728 36.4977C57.9666 36.6629 57.4423 36.7662 56.9112 36.8053C56.7226 36.823 56.5339 36.8318 56.3409 36.8318C54.9031 36.8317 53.5006 36.3852 52.3263 35.5536C51.152 34.7221 50.2636 33.5465 49.7832 32.1882C49.3027 30.83 49.254 29.356 49.6435 27.9689C50.0329 26.5818 50.8416 25.3496 51.9584 24.4419C51.9584 24.4419 49.6377 35.8469 61.0523 34.9939Z" fill="url(#paint9_linear_2787_18810)"/>
<path d="M88.2343 9.72618C88.891 5.67067 86.143 1.84953 82.0965 1.19142C78.05 0.533303 74.2374 3.28742 73.5809 7.34291C72.9242 11.3984 75.6722 15.2196 79.7186 15.8776C83.765 16.5358 87.5777 13.7817 88.2343 9.72618Z" fill="#F7D317"/>
<path d="M59.0518 59.0087C59.0518 59.0087 57.5778 66.5446 48.5936 73.6584C42.7152 78.3145 32.6516 77.7166 26.3915 76.7493C22.4517 76.1432 18.6911 74.6832 15.3717 72.4714C13.7066 71.3779 12.1376 70.1437 10.6821 68.7826C11.3577 69.297 18.8768 74.9159 27.032 75.3952C30.4968 75.5664 33.97 75.3704 37.3938 74.8104C41.5294 74.1788 45.4003 72.3806 48.5541 69.6261C51.708 66.8715 54.0147 63.2744 55.2046 59.2549C55.2703 59.0263 55.3361 58.7977 55.3975 58.5603C58.3149 47.2652 50.8703 43.1323 50.8703 43.1323C48.6187 42.0761 46.1104 41.6951 43.6477 42.0353C41.185 42.3755 38.8729 43.4221 36.9903 45.0493C30.252 50.7386 30.853 60.4728 30.853 60.4728L30.8486 60.4553C30.8472 60.4446 30.8442 60.4342 30.8398 60.4244C30.6732 59.4176 28.0585 42.2266 45.106 39.3029C62.6754 36.2911 59.0518 59.0087 59.0518 59.0087Z" fill="url(#paint10_linear_2787_18810)"/>
<path d="M103.667 16.9457C103.667 16.9457 103.596 17.0522 103.463 17.2653C102.551 17.9839 98.6028 18.5252 93.8661 18.5252C89.1473 18.5252 85.2075 17.9839 84.2779 17.2741C84.1539 17.0611 84.0742 16.9457 84.0742 16.9457C84.0742 16.0674 88.4567 15.3574 93.8661 15.3574C99.2756 15.3574 103.667 16.0674 103.667 16.9457Z" stroke="url(#paint11_linear_2787_18810)" stroke-width="2" stroke-miterlimit="10"/>
<path d="M103.177 18.091C100.799 22.4558 99.5798 27.3599 99.6372 32.3329L96.5207 29.2005L93.9355 32.5458L91.3592 29.2005L88.2427 32.3329C88.3098 27.2578 87.0361 22.2553 84.5509 17.8331C84.5391 17.8142 84.534 17.7922 84.5361 17.7701C84.5382 17.7481 84.5475 17.7273 84.5625 17.7112C84.5775 17.6949 84.5974 17.684 84.6192 17.6802C84.641 17.6764 84.6633 17.6799 84.683 17.6901C86.0164 18.3026 89.6556 18.7479 93.9355 18.7479C96.9614 18.8583 99.9878 18.5385 102.924 17.7984C102.964 17.7825 103.007 17.7793 103.048 17.7894C103.09 17.7994 103.127 17.822 103.155 17.8542C103.183 17.8865 103.2 17.9267 103.204 17.969C103.208 18.0115 103.199 18.0542 103.177 18.091Z" stroke="url(#paint12_linear_2787_18810)" stroke-width="2" stroke-miterlimit="10"/>
<defs>
<linearGradient id="paint0_linear_2787_18810" x1="12.1792" y1="114.836" x2="147.319" y2="23.82" gradientUnits="userSpaceOnUse">
<stop offset="0.29212" stop-color="#1988A1"/>
<stop offset="0.77263" stop-color="#0B5C9A"/>
</linearGradient>
<linearGradient id="paint1_linear_2787_18810" x1="128.367" y1="39.7872" x2="31.9669" y2="114.502" gradientUnits="userSpaceOnUse">
<stop stop-color="#166E9D"/>
<stop offset="0.85787" stop-color="#26A8A0"/>
</linearGradient>
<linearGradient id="paint2_linear_2787_18810" x1="76.5033" y1="0.665715" x2="35.0974" y2="117.237" gradientUnits="userSpaceOnUse">
<stop stop-color="#17668F"/>
<stop offset="0.17513" stop-color="#186990"/>
<stop offset="0.63127" stop-color="#2FBBA4"/>
</linearGradient>
<linearGradient id="paint3_linear_2787_18810" x1="56.9009" y1="37.5083" x2="78.7023" y2="-1.16327" gradientUnits="userSpaceOnUse">
<stop offset="0.27743" stop-color="#ED8422"/>
<stop offset="0.56463" stop-color="#EF4423"/>
</linearGradient>
<linearGradient id="paint4_linear_2787_18810" x1="58.5729" y1="43.2807" x2="87.8522" y2="-20.7886" gradientUnits="userSpaceOnUse">
<stop offset="0.03378" stop-color="#EF4423"/>
<stop offset="0.56463" stop-color="#B73426"/>
</linearGradient>
<linearGradient id="paint5_linear_2787_18810" x1="10.647" y1="57.9103" x2="69.0774" y2="57.9103" gradientUnits="userSpaceOnUse">
<stop stop-color="#F7D317"/>
<stop offset="0.47087" stop-color="#ED8422"/>
<stop offset="0.85838" stop-color="#EF4423"/>
</linearGradient>
<linearGradient id="paint6_linear_2787_18810" x1="71.3973" y1="85.63" x2="135.51" y2="24.477" gradientUnits="userSpaceOnUse">
<stop stop-color="#F7D317"/>
<stop offset="0.35865" stop-color="#ED8422"/>
<stop offset="0.56463" stop-color="#EF4423"/>
</linearGradient>
<linearGradient id="paint7_linear_2787_18810" x1="71.4785" y1="98.8022" x2="125.399" y2="-30.5596" gradientUnits="userSpaceOnUse">
<stop offset="0.02841" stop-color="#F7D317"/>
<stop offset="0.18182" stop-color="#EF7924"/>
<stop offset="0.20547" stop-color="#EE6A24"/>
<stop offset="0.47572" stop-color="#EF4423"/>
</linearGradient>
<linearGradient id="paint8_linear_2787_18810" x1="51.7647" y1="28.9602" x2="63.303" y2="28.9602" gradientUnits="userSpaceOnUse">
<stop stop-color="#ED8422"/>
<stop offset="1" stop-color="#F7D317"/>
</linearGradient>
<linearGradient id="paint9_linear_2787_18810" x1="49.3833" y1="30.6368" x2="61.0523" y2="30.6368" gradientUnits="userSpaceOnUse">
<stop stop-color="#EF4423"/>
<stop offset="0.45178" stop-color="#ED8422"/>
</linearGradient>
<linearGradient id="paint10_linear_2787_18810" x1="10.6821" y1="58.2259" x2="59.3608" y2="58.2259" gradientUnits="userSpaceOnUse">
<stop offset="0.68203" stop-color="#F7D317"/>
<stop offset="1" stop-color="#ED8422"/>
</linearGradient>
<linearGradient id="paint11_linear_2787_18810" x1="83.4649" y1="16.9413" x2="104.276" y2="16.9413" gradientUnits="userSpaceOnUse">
<stop offset="0.03378" stop-color="#EF4423"/>
<stop offset="0.56463" stop-color="#B73426"/>
</linearGradient>
<linearGradient id="paint12_linear_2787_18810" x1="83.9259" y1="25.4471" x2="103.815" y2="25.4471" gradientUnits="userSpaceOnUse">
<stop offset="0.03378" stop-color="#EF4423"/>
<stop offset="0.56463" stop-color="#B73426"/>
</linearGradient>
</defs>
</svg>
