<svg width="253" height="39" viewBox="0 0 253 39" fill="none" xmlns="http://www.w3.org/2000/svg">
<g clip-path="url(#clip0_7971_9099)">
<path d="M30.76 16V-0.200001H34.48C35.2133 -0.200001 35.8467 -0.120001 36.38 0.0399992C36.9267 0.2 37.38 0.446666 37.74 0.779999C38.1 1.11333 38.3667 1.54 38.54 2.06C38.7133 2.56667 38.8 3.16667 38.8 3.86C38.8 4.52667 38.7133 5.10667 38.54 5.6C38.38 6.08 38.1267 6.46 37.78 6.74C37.4467 7.02 37.0133 7.2 36.48 7.28C37.1333 7.42667 37.66 7.68 38.06 8.04C38.46 8.38667 38.7533 8.84 38.94 9.4C39.14 9.94667 39.24 10.6067 39.24 11.38C39.24 12.0733 39.16 12.7067 39 13.28C38.84 13.8533 38.5867 14.34 38.24 14.74C37.9067 15.14 37.4733 15.4533 36.94 15.68C36.42 15.8933 35.8 16 35.08 16H30.76ZM33.02 14.38H34.54C35.5533 14.38 36.2267 14.1467 36.56 13.68C36.9067 13.2 37.08 12.4333 37.08 11.38C37.08 10.7 36.9867 10.1333 36.8 9.68C36.6267 9.21333 36.34 8.86667 35.94 8.64C35.5533 8.4 35.0267 8.28 34.36 8.28H33.02V14.38ZM33.02 6.56H34.36C35 6.56 35.5 6.47333 35.86 6.3C36.22 6.11333 36.4733 5.82 36.62 5.42C36.7667 5.02 36.84 4.5 36.84 3.86C36.84 3.11333 36.7267 2.57333 36.5 2.24C36.2733 1.90667 35.92 1.7 35.44 1.62C34.96 1.52667 34.3333 1.48 33.56 1.48H33.02V6.56ZM44.2483 16.16C43.3949 16.16 42.7216 15.9867 42.2283 15.64C41.7349 15.2933 41.3816 14.8 41.1683 14.16C40.9683 13.52 40.8683 12.7667 40.8683 11.9V8.54C40.8683 7.67333 40.9683 6.92 41.1683 6.28C41.3816 5.64 41.7349 5.14667 42.2283 4.8C42.7216 4.45333 43.3949 4.28 44.2483 4.28C45.1016 4.28 45.7683 4.45333 46.2483 4.8C46.7416 5.14667 47.0883 5.64 47.2883 6.28C47.5016 6.92 47.6083 7.67333 47.6083 8.54V11.9C47.6083 12.7667 47.5016 13.52 47.2883 14.16C47.0883 14.8 46.7416 15.2933 46.2483 15.64C45.7683 15.9867 45.1016 16.16 44.2483 16.16ZM44.2483 14.58C44.6616 14.58 44.9483 14.46 45.1083 14.22C45.2816 13.98 45.3816 13.6667 45.4083 13.28C45.4483 12.88 45.4683 12.4667 45.4683 12.04V8.42C45.4683 7.98 45.4483 7.56667 45.4083 7.18C45.3816 6.79333 45.2816 6.48 45.1083 6.24C44.9483 5.98667 44.6616 5.86 44.2483 5.86C43.8349 5.86 43.5416 5.98667 43.3683 6.24C43.1949 6.48 43.0883 6.79333 43.0483 7.18C43.0216 7.56667 43.0083 7.98 43.0083 8.42V12.04C43.0083 12.4667 43.0216 12.88 43.0483 13.28C43.0883 13.6667 43.1949 13.98 43.3683 14.22C43.5416 14.46 43.8349 14.58 44.2483 14.58ZM51.3044 16.16C50.851 16.16 50.451 16.0333 50.1044 15.78C49.7577 15.5133 49.4844 15.18 49.2844 14.78C49.0844 14.3667 48.9844 13.9333 48.9844 13.48C48.9844 12.76 49.1044 12.1533 49.3444 11.66C49.5844 11.1667 49.911 10.7533 50.3244 10.42C50.751 10.0733 51.2377 9.77333 51.7844 9.52C52.3444 9.26667 52.931 9.02 53.5444 8.78V7.96C53.5444 7.49333 53.5177 7.10667 53.4644 6.8C53.411 6.49333 53.2977 6.26667 53.1244 6.12C52.9644 5.96 52.7177 5.88 52.3844 5.88C52.091 5.88 51.851 5.94667 51.6644 6.08C51.491 6.21333 51.3644 6.40667 51.2844 6.66C51.2044 6.9 51.1644 7.18667 51.1644 7.52V8.1L49.0444 8.02C49.071 6.74 49.3644 5.8 49.9244 5.2C50.4844 4.58667 51.351 4.28 52.5244 4.28C53.671 4.28 54.4844 4.59333 54.9644 5.22C55.4444 5.84667 55.6844 6.75333 55.6844 7.94V13.22C55.6844 13.58 55.691 13.9267 55.7044 14.26C55.731 14.5933 55.7577 14.9067 55.7844 15.2C55.8244 15.48 55.8577 15.7467 55.8844 16H53.9244C53.8844 15.7867 53.831 15.52 53.7644 15.2C53.711 14.8667 53.671 14.5667 53.6444 14.3C53.511 14.7533 53.251 15.18 52.8644 15.58C52.491 15.9667 51.971 16.16 51.3044 16.16ZM52.1444 14.32C52.3577 14.32 52.5577 14.26 52.7444 14.14C52.931 14.02 53.0977 13.8867 53.2444 13.74C53.391 13.58 53.491 13.4533 53.5444 13.36V10.08C53.211 10.2667 52.8977 10.4533 52.6044 10.64C52.311 10.8267 52.051 11.0267 51.8244 11.24C51.611 11.44 51.4377 11.6733 51.3044 11.94C51.1844 12.1933 51.1244 12.4867 51.1244 12.82C51.1244 13.2867 51.211 13.6533 51.3844 13.92C51.5577 14.1867 51.811 14.32 52.1444 14.32ZM57.808 16V4.44H59.948V6.08C60.3746 5.37333 60.8013 4.9 61.228 4.66C61.6546 4.42 62.0813 4.3 62.508 4.3C62.5613 4.3 62.608 4.3 62.648 4.3C62.7013 4.3 62.768 4.30667 62.848 4.32V6.68C62.688 6.61333 62.5013 6.56 62.288 6.52C62.088 6.46667 61.8813 6.44 61.668 6.44C61.3346 6.44 61.028 6.52 60.748 6.68C60.4813 6.82667 60.2146 7.12 59.948 7.56V16H57.808ZM66.7952 16.16C65.8218 16.16 65.0952 15.8067 64.6152 15.1C64.1352 14.38 63.8952 13.1667 63.8952 11.46V9.22C63.8952 8.34 63.9685 7.52667 64.1152 6.78C64.2618 6.02 64.5352 5.41333 64.9352 4.96C65.3485 4.50667 65.9485 4.28 66.7352 4.28C67.1218 4.28 67.4752 4.36667 67.7952 4.54C68.1152 4.71333 68.4018 4.92667 68.6552 5.18V-0.200001H70.7952V16H68.6552V15.26C68.4018 15.5267 68.1218 15.7467 67.8152 15.92C67.5218 16.08 67.1818 16.16 66.7952 16.16ZM67.3352 14.48C67.5352 14.48 67.7485 14.4467 67.9752 14.38C68.2018 14.3 68.4285 14.1867 68.6552 14.04V6.46C68.4685 6.32667 68.2618 6.21333 68.0352 6.12C67.8085 6.01333 67.5618 5.96 67.2952 5.96C66.8018 5.96 66.4685 6.2 66.2952 6.68C66.1218 7.14667 66.0352 7.71333 66.0352 8.38V11.64C66.0352 12.1733 66.0618 12.66 66.1152 13.1C66.1818 13.5267 66.3085 13.8667 66.4952 14.12C66.6818 14.36 66.9618 14.48 67.3352 14.48ZM77.7131 16V-0.200001H83.9731V1.42H79.9731V6.82H83.0731V8.42H79.9731V16H77.7131ZM88.2522 16.16C87.3989 16.16 86.7255 15.9867 86.2322 15.64C85.7389 15.2933 85.3855 14.8 85.1722 14.16C84.9722 13.52 84.8722 12.7667 84.8722 11.9V8.54C84.8722 7.67333 84.9722 6.92 85.1722 6.28C85.3855 5.64 85.7389 5.14667 86.2322 4.8C86.7255 4.45333 87.3989 4.28 88.2522 4.28C89.1055 4.28 89.7722 4.45333 90.2522 4.8C90.7455 5.14667 91.0922 5.64 91.2922 6.28C91.5055 6.92 91.6122 7.67333 91.6122 8.54V11.9C91.6122 12.7667 91.5055 13.52 91.2922 14.16C91.0922 14.8 90.7455 15.2933 90.2522 15.64C89.7722 15.9867 89.1055 16.16 88.2522 16.16ZM88.2522 14.58C88.6655 14.58 88.9522 14.46 89.1122 14.22C89.2855 13.98 89.3855 13.6667 89.4122 13.28C89.4522 12.88 89.4722 12.4667 89.4722 12.04V8.42C89.4722 7.98 89.4522 7.56667 89.4122 7.18C89.3855 6.79333 89.2855 6.48 89.1122 6.24C88.9522 5.98667 88.6655 5.86 88.2522 5.86C87.8389 5.86 87.5455 5.98667 87.3722 6.24C87.1989 6.48 87.0922 6.79333 87.0522 7.18C87.0255 7.56667 87.0122 7.98 87.0122 8.42V12.04C87.0122 12.4667 87.0255 12.88 87.0522 13.28C87.0922 13.6667 87.1989 13.98 87.3722 14.22C87.5455 14.46 87.8389 14.58 88.2522 14.58ZM93.6283 16V4.44H95.7683V6.08C96.1949 5.37333 96.6216 4.9 97.0483 4.66C97.4749 4.42 97.9016 4.3 98.3283 4.3C98.3816 4.3 98.4283 4.3 98.4683 4.3C98.5216 4.3 98.5883 4.30667 98.6683 4.32V6.68C98.5083 6.61333 98.3216 6.56 98.1083 6.52C97.9083 6.46667 97.7016 6.44 97.4883 6.44C97.1549 6.44 96.8483 6.52 96.5683 6.68C96.3016 6.82667 96.0349 7.12 95.7683 7.56V16H93.6283ZM108.564 16.18C107.631 16.18 106.851 15.98 106.224 15.58C105.611 15.18 105.144 14.6267 104.824 13.92C104.504 13.2133 104.318 12.3933 104.264 11.46L106.264 10.92C106.304 11.4933 106.391 12.0467 106.524 12.58C106.671 13.1133 106.904 13.5533 107.224 13.9C107.544 14.2333 107.991 14.4 108.564 14.4C109.151 14.4 109.591 14.24 109.884 13.92C110.191 13.5867 110.344 13.1133 110.344 12.5C110.344 11.7667 110.178 11.18 109.844 10.74C109.511 10.2867 109.091 9.83333 108.584 9.38L105.864 6.98C105.331 6.51333 104.938 6.00667 104.684 5.46C104.431 4.9 104.304 4.21333 104.304 3.4C104.304 2.21333 104.644 1.29333 105.324 0.64C106.004 -0.0133338 106.931 -0.340001 108.104 -0.340001C108.744 -0.340001 109.304 -0.253334 109.784 -0.0800004C110.278 0.0799991 110.684 0.333332 111.004 0.679999C111.338 1.02667 111.598 1.46667 111.784 2C111.984 2.52 112.118 3.13333 112.184 3.84L110.264 4.36C110.224 3.82667 110.144 3.34 110.024 2.9C109.904 2.44667 109.691 2.08667 109.384 1.82C109.091 1.54 108.664 1.4 108.104 1.4C107.544 1.4 107.104 1.55333 106.784 1.86C106.478 2.15333 106.324 2.59333 106.324 3.18C106.324 3.67333 106.404 4.08 106.564 4.4C106.738 4.72 107.011 5.04667 107.384 5.38L110.124 7.78C110.738 8.31333 111.278 8.95333 111.744 9.7C112.211 10.4333 112.444 11.3067 112.444 12.32C112.444 13.12 112.278 13.8133 111.944 14.4C111.611 14.9733 111.151 15.4133 110.564 15.72C109.991 16.0267 109.324 16.18 108.564 16.18ZM114.018 19.8V4.44H116.158V5.36C116.411 5.06667 116.718 4.81333 117.078 4.6C117.438 4.38667 117.864 4.28 118.358 4.28C118.958 4.28 119.431 4.44 119.778 4.76C120.138 5.06667 120.404 5.46 120.578 5.94C120.751 6.40667 120.864 6.88667 120.918 7.38C120.971 7.86 120.998 8.27333 120.998 8.62V11.42C120.998 12.2333 120.918 13.0067 120.758 13.74C120.598 14.46 120.304 15.0467 119.878 15.5C119.464 15.94 118.878 16.16 118.118 16.16C117.704 16.16 117.338 16.06 117.018 15.86C116.698 15.6467 116.411 15.4067 116.158 15.14V19.8H114.018ZM117.698 14.48C118.071 14.48 118.338 14.3467 118.498 14.08C118.658 13.8 118.758 13.4267 118.798 12.96C118.838 12.4933 118.858 11.98 118.858 11.42V8.62C118.858 8.14 118.831 7.7 118.778 7.3C118.724 6.88667 118.611 6.56 118.438 6.32C118.264 6.08 117.991 5.96 117.618 5.96C117.338 5.96 117.071 6.02 116.818 6.14C116.564 6.26 116.344 6.4 116.158 6.56V13.96C116.358 14.1067 116.584 14.2333 116.838 14.34C117.091 14.4333 117.378 14.48 117.698 14.48ZM126.123 16.16C125.27 16.16 124.597 15.9867 124.103 15.64C123.61 15.2933 123.257 14.8 123.043 14.16C122.843 13.52 122.743 12.7667 122.743 11.9V8.54C122.743 7.67333 122.843 6.92 123.043 6.28C123.257 5.64 123.61 5.14667 124.103 4.8C124.597 4.45333 125.27 4.28 126.123 4.28C126.977 4.28 127.643 4.45333 128.123 4.8C128.617 5.14667 128.963 5.64 129.163 6.28C129.377 6.92 129.483 7.67333 129.483 8.54V11.9C129.483 12.7667 129.377 13.52 129.163 14.16C128.963 14.8 128.617 15.2933 128.123 15.64C127.643 15.9867 126.977 16.16 126.123 16.16ZM126.123 14.58C126.537 14.58 126.823 14.46 126.983 14.22C127.157 13.98 127.257 13.6667 127.283 13.28C127.323 12.88 127.343 12.4667 127.343 12.04V8.42C127.343 7.98 127.323 7.56667 127.283 7.18C127.257 6.79333 127.157 6.48 126.983 6.24C126.823 5.98667 126.537 5.86 126.123 5.86C125.71 5.86 125.417 5.98667 125.243 6.24C125.07 6.48 124.963 6.79333 124.923 7.18C124.897 7.56667 124.883 7.98 124.883 8.42V12.04C124.883 12.4667 124.897 12.88 124.923 13.28C124.963 13.6667 125.07 13.98 125.243 14.22C125.417 14.46 125.71 14.58 126.123 14.58ZM131.499 16V4.44H133.639V6.08C134.066 5.37333 134.493 4.9 134.919 4.66C135.346 4.42 135.773 4.3 136.199 4.3C136.253 4.3 136.299 4.3 136.339 4.3C136.393 4.3 136.459 4.30667 136.539 4.32V6.68C136.379 6.61333 136.193 6.56 135.979 6.52C135.779 6.46667 135.573 6.44 135.359 6.44C135.026 6.44 134.719 6.52 134.439 6.68C134.173 6.82667 133.906 7.12 133.639 7.56V16H131.499ZM140.945 16.16C140.345 16.16 139.858 16.0467 139.485 15.82C139.125 15.5933 138.858 15.2733 138.685 14.86C138.525 14.4467 138.445 13.96 138.445 13.4V5.86H137.225V4.44H138.445V1.06H140.585V4.44H142.445V5.86H140.585V13.26C140.585 13.7133 140.658 14.04 140.805 14.24C140.952 14.4267 141.232 14.52 141.645 14.52C141.752 14.52 141.872 14.5133 142.005 14.5C142.152 14.4867 142.292 14.4733 142.425 14.46V16.04C142.158 16.08 141.912 16.1067 141.685 16.12C141.458 16.1467 141.212 16.16 140.945 16.16ZM146.698 16.16C145.751 16.16 144.991 15.8667 144.418 15.28C143.844 14.68 143.518 13.8933 143.438 12.92L145.218 12.38C145.324 13.1133 145.504 13.6667 145.758 14.04C146.011 14.4 146.384 14.58 146.878 14.58C147.264 14.58 147.558 14.4733 147.758 14.26C147.958 14.0333 148.058 13.7333 148.058 13.36C148.058 13.0267 147.984 12.7267 147.838 12.46C147.691 12.1933 147.451 11.92 147.118 11.64L145.138 9.94C144.738 9.59333 144.398 9.20667 144.118 8.78C143.851 8.35333 143.718 7.8 143.718 7.12C143.718 6.50667 143.838 5.99333 144.078 5.58C144.331 5.15333 144.678 4.83333 145.118 4.62C145.571 4.39333 146.098 4.28 146.698 4.28C147.658 4.28 148.391 4.58 148.898 5.18C149.404 5.76667 149.698 6.48 149.778 7.32L148.258 7.86C148.204 7.46 148.124 7.11333 148.018 6.82C147.911 6.51333 147.758 6.28 147.558 6.12C147.358 5.94667 147.098 5.86 146.778 5.86C146.431 5.86 146.151 5.98 145.938 6.22C145.738 6.44667 145.638 6.72 145.638 7.04C145.638 7.24 145.678 7.44 145.758 7.64C145.851 7.82667 146.004 8.01333 146.218 8.2L148.258 10.08C148.538 10.3333 148.798 10.6067 149.038 10.9C149.291 11.1933 149.498 11.5267 149.658 11.9C149.818 12.2733 149.898 12.7067 149.898 13.2C149.898 13.8533 149.764 14.4 149.498 14.84C149.231 15.28 148.858 15.6133 148.378 15.84C147.898 16.0533 147.338 16.16 146.698 16.16ZM155.368 16L158.808 -0.200001H160.988L164.448 16H162.308L161.568 11.92H158.268L157.488 16H155.368ZM158.568 10.3H161.268L159.908 3L158.568 10.3ZM169.072 16.16C168.125 16.16 167.405 15.9733 166.912 15.6C166.432 15.2133 166.105 14.6733 165.932 13.98C165.772 13.2867 165.692 12.48 165.692 11.56V8.9C165.692 7.92667 165.779 7.1 165.952 6.42C166.125 5.72667 166.452 5.2 166.932 4.84C167.425 4.46667 168.139 4.28 169.072 4.28C169.912 4.28 170.559 4.42 171.012 4.7C171.479 4.96667 171.799 5.37333 171.972 5.92C172.145 6.45333 172.232 7.12 172.232 7.92V8.6H170.292V7.9C170.292 7.39333 170.259 6.99333 170.192 6.7C170.125 6.40667 170.005 6.19333 169.832 6.06C169.659 5.92667 169.412 5.86 169.092 5.86C168.745 5.86 168.479 5.94 168.292 6.1C168.105 6.26 167.979 6.53333 167.912 6.92C167.859 7.29333 167.832 7.80667 167.832 8.46V12.1C167.832 13.0867 167.925 13.7467 168.112 14.08C168.299 14.4133 168.632 14.58 169.112 14.58C169.472 14.58 169.732 14.5 169.892 14.34C170.065 14.1667 170.172 13.9267 170.212 13.62C170.265 13.3133 170.292 12.9667 170.292 12.58V11.64H172.232V12.44C172.232 13.2133 172.139 13.88 171.952 14.44C171.779 15 171.459 15.4267 170.992 15.72C170.539 16.0133 169.899 16.16 169.072 16.16ZM177.215 16.16C176.615 16.16 176.128 16.0467 175.755 15.82C175.395 15.5933 175.128 15.2733 174.955 14.86C174.795 14.4467 174.715 13.96 174.715 13.4V5.86H173.495V4.44H174.715V1.06H176.855V4.44H178.715V5.86H176.855V13.26C176.855 13.7133 176.928 14.04 177.075 14.24C177.221 14.4267 177.501 14.52 177.915 14.52C178.021 14.52 178.141 14.5133 178.275 14.5C178.421 14.4867 178.561 14.4733 178.695 14.46V16.04C178.428 16.08 178.181 16.1067 177.955 16.12C177.728 16.1467 177.481 16.16 177.215 16.16ZM180.427 16V4.44H182.567V16H180.427ZM180.427 2.72V0.48H182.567V2.72H180.427ZM186.357 16L184.077 4.44H186.237L187.657 13.74L189.097 4.44H191.177L188.977 16H186.357ZM192.693 16V4.44H194.833V16H192.693ZM192.693 2.72V0.48H194.833V2.72H192.693ZM200.203 16.16C199.603 16.16 199.116 16.0467 198.743 15.82C198.383 15.5933 198.116 15.2733 197.943 14.86C197.783 14.4467 197.703 13.96 197.703 13.4V5.86H196.483V4.44H197.703V1.06H199.843V4.44H201.703V5.86H199.843V13.26C199.843 13.7133 199.916 14.04 200.063 14.24C200.21 14.4267 200.49 14.52 200.903 14.52C201.01 14.52 201.13 14.5133 201.263 14.5C201.41 14.4867 201.55 14.4733 201.683 14.46V16.04C201.416 16.08 201.17 16.1067 200.943 16.12C200.716 16.1467 200.47 16.16 200.203 16.16ZM203.415 16V4.44H205.555V16H203.415ZM203.415 2.72V0.48H205.555V2.72H203.415ZM211.046 16.16C210.139 16.16 209.439 15.9867 208.946 15.64C208.452 15.28 208.106 14.76 207.906 14.08C207.719 13.3867 207.626 12.54 207.626 11.54V8.9C207.626 7.87333 207.726 7.02 207.926 6.34C208.126 5.66 208.472 5.14667 208.966 4.8C209.472 4.45333 210.166 4.28 211.046 4.28C212.019 4.28 212.732 4.48 213.186 4.88C213.652 5.28 213.959 5.86 214.106 6.62C214.252 7.36667 214.326 8.26667 214.326 9.32V10.26H209.766V12.58C209.766 13.0467 209.806 13.4267 209.886 13.72C209.979 14.0133 210.119 14.2333 210.306 14.38C210.506 14.5133 210.759 14.58 211.066 14.58C211.386 14.58 211.626 14.5067 211.786 14.36C211.959 14.2 212.072 13.98 212.126 13.7C212.192 13.4067 212.226 13.0667 212.226 12.68V11.98H214.306V12.42C214.306 13.58 214.059 14.4933 213.566 15.16C213.072 15.8267 212.232 16.16 211.046 16.16ZM209.766 9.1H212.226V8.06C212.226 7.58 212.199 7.18 212.146 6.86C212.092 6.52667 211.979 6.28 211.806 6.12C211.646 5.94667 211.386 5.86 211.026 5.86C210.679 5.86 210.412 5.94 210.226 6.1C210.052 6.26 209.932 6.53333 209.866 6.92C209.799 7.29333 209.766 7.81333 209.766 8.48V9.1ZM218.944 16.16C217.997 16.16 217.237 15.8667 216.664 15.28C216.09 14.68 215.764 13.8933 215.684 12.92L217.464 12.38C217.57 13.1133 217.75 13.6667 218.004 14.04C218.257 14.4 218.63 14.58 219.124 14.58C219.51 14.58 219.804 14.4733 220.004 14.26C220.204 14.0333 220.304 13.7333 220.304 13.36C220.304 13.0267 220.23 12.7267 220.084 12.46C219.937 12.1933 219.697 11.92 219.364 11.64L217.384 9.94C216.984 9.59333 216.644 9.20667 216.364 8.78C216.097 8.35333 215.964 7.8 215.964 7.12C215.964 6.50667 216.084 5.99333 216.324 5.58C216.577 5.15333 216.924 4.83333 217.364 4.62C217.817 4.39333 218.344 4.28 218.944 4.28C219.904 4.28 220.637 4.58 221.144 5.18C221.65 5.76667 221.944 6.48 222.024 7.32L220.504 7.86C220.45 7.46 220.37 7.11333 220.264 6.82C220.157 6.51333 220.004 6.28 219.804 6.12C219.604 5.94667 219.344 5.86 219.024 5.86C218.677 5.86 218.397 5.98 218.184 6.22C217.984 6.44667 217.884 6.72 217.884 7.04C217.884 7.24 217.924 7.44 218.004 7.64C218.097 7.82667 218.25 8.01333 218.464 8.2L220.504 10.08C220.784 10.3333 221.044 10.6067 221.284 10.9C221.537 11.1933 221.744 11.5267 221.904 11.9C222.064 12.2733 222.144 12.7067 222.144 13.2C222.144 13.8533 222.01 14.4 221.744 14.84C221.477 15.28 221.104 15.6133 220.624 15.84C220.144 16.0533 219.584 16.16 218.944 16.16Z" fill="#1D3557"/>
<line x1="2.00024" y1="18.3242" x2="250.994" y2="16.5001" stroke="#1D3557"/>
<path d="M5.53163 35.8242H3.97963V24.3602H5.53163V35.8242ZM9.347 28.8962C9.523 28.6989 9.70967 28.5202 9.907 28.3602C10.1043 28.2002 10.3123 28.0642 10.531 27.9522C10.755 27.8349 10.9897 27.7469 11.235 27.6882C11.4857 27.6242 11.755 27.5922 12.043 27.5922C12.4857 27.5922 12.875 27.6669 13.211 27.8162C13.5523 27.9602 13.835 28.1682 14.059 28.4402C14.2883 28.7069 14.4617 29.0296 14.579 29.4082C14.6963 29.7869 14.755 30.2056 14.755 30.6642V35.8242H13.323V30.6642C13.323 30.0509 13.1817 29.5762 12.899 29.2402C12.6217 28.8989 12.1977 28.7282 11.627 28.7282C11.2057 28.7282 10.811 28.8296 10.443 29.0322C10.0803 29.2349 9.74433 29.5096 9.435 29.8562V35.8242H8.003V27.7202H8.859C9.06167 27.7202 9.187 27.8189 9.235 28.0162L9.347 28.8962ZM22.2049 29.6482C21.9382 29.2909 21.6502 29.0429 21.3409 28.9042C21.0315 28.7602 20.6849 28.6882 20.3009 28.6882C19.5489 28.6882 18.9702 28.9576 18.5649 29.4962C18.1595 30.0349 17.9569 30.8029 17.9569 31.8002C17.9569 32.3282 18.0022 32.7816 18.0929 33.1602C18.1835 33.5336 18.3169 33.8429 18.4929 34.0882C18.6689 34.3282 18.8849 34.5042 19.1409 34.6162C19.3969 34.7282 19.6875 34.7842 20.0129 34.7842C20.4822 34.7842 20.8902 34.6776 21.2369 34.4642C21.5889 34.2509 21.9115 33.9496 22.2049 33.5602V29.6482ZM23.6289 24.0402V35.8242H22.7809C22.5782 35.8242 22.4502 35.7256 22.3969 35.5282L22.2689 34.5442C21.9222 34.9602 21.5275 35.2962 21.0849 35.5522C20.6422 35.8082 20.1302 35.9362 19.5489 35.9362C19.0849 35.9362 18.6635 35.8482 18.2849 35.6722C17.9062 35.4909 17.5835 35.2269 17.3169 34.8802C17.0502 34.5336 16.8449 34.1016 16.7009 33.5842C16.5569 33.0669 16.4849 32.4722 16.4849 31.8002C16.4849 31.2029 16.5649 30.6482 16.7249 30.1362C16.8849 29.6189 17.1142 29.1709 17.4129 28.7922C17.7115 28.4136 18.0769 28.1176 18.5089 27.9042C18.9462 27.6856 19.4369 27.5762 19.9809 27.5762C20.4769 27.5762 20.9009 27.6616 21.2529 27.8322C21.6102 27.9976 21.9275 28.2296 22.2049 28.5282V24.0402H23.6289ZM27.382 27.7202V35.8242H25.958V27.7202H27.382ZM27.686 25.1762C27.686 25.3149 27.6567 25.4456 27.598 25.5682C27.5447 25.6856 27.47 25.7922 27.374 25.8882C27.2833 25.9789 27.174 26.0509 27.046 26.1042C26.9233 26.1576 26.7927 26.1842 26.654 26.1842C26.5153 26.1842 26.3847 26.1576 26.262 26.1042C26.1447 26.0509 26.0407 25.9789 25.95 25.8882C25.8593 25.7922 25.7873 25.6856 25.734 25.5682C25.6807 25.4456 25.654 25.3149 25.654 25.1762C25.654 25.0376 25.6807 24.9069 25.734 24.7842C25.7873 24.6562 25.8593 24.5469 25.95 24.4562C26.0407 24.3602 26.1447 24.2856 26.262 24.2322C26.3847 24.1789 26.5153 24.1522 26.654 24.1522C26.7927 24.1522 26.9233 24.1789 27.046 24.2322C27.174 24.2856 27.2833 24.3602 27.374 24.4562C27.47 24.5469 27.5447 24.6562 27.598 24.7842C27.6567 24.9069 27.686 25.0376 27.686 25.1762ZM34.1138 32.1762C33.4578 32.1976 32.8978 32.2509 32.4338 32.3362C31.9751 32.4162 31.5991 32.5229 31.3058 32.6562C31.0178 32.7896 30.8071 32.9469 30.6738 33.1282C30.5458 33.3096 30.4818 33.5122 30.4818 33.7362C30.4818 33.9496 30.5164 34.1336 30.5858 34.2882C30.6551 34.4429 30.7484 34.5709 30.8658 34.6722C30.9884 34.7682 31.1298 34.8402 31.2898 34.8882C31.4551 34.9309 31.6311 34.9522 31.8178 34.9522C32.0684 34.9522 32.2978 34.9282 32.5058 34.8802C32.7138 34.8269 32.9084 34.7522 33.0898 34.6562C33.2764 34.5602 33.4524 34.4456 33.6178 34.3122C33.7884 34.1789 33.9538 34.0269 34.1138 33.8562V32.1762ZM29.5138 28.8642C29.9618 28.4322 30.4444 28.1096 30.9618 27.8962C31.4791 27.6829 32.0524 27.5762 32.6818 27.5762C33.1351 27.5762 33.5378 27.6509 33.8898 27.8002C34.2418 27.9496 34.5378 28.1576 34.7778 28.4242C35.0178 28.6909 35.1991 29.0136 35.3218 29.3922C35.4444 29.7709 35.5058 30.1869 35.5058 30.6402V35.8242H34.8738C34.7351 35.8242 34.6284 35.8029 34.5538 35.7602C34.4791 35.7122 34.4204 35.6216 34.3778 35.4882L34.2178 34.7202C34.0044 34.9176 33.7964 35.0936 33.5938 35.2482C33.3911 35.3976 33.1778 35.5256 32.9538 35.6322C32.7298 35.7336 32.4898 35.8109 32.2338 35.8642C31.9831 35.9229 31.7031 35.9522 31.3938 35.9522C31.0791 35.9522 30.7831 35.9096 30.5058 35.8242C30.2284 35.7336 29.9858 35.6002 29.7778 35.4242C29.5751 35.2482 29.4124 35.0269 29.2898 34.7602C29.1724 34.4882 29.1138 34.1682 29.1138 33.8002C29.1138 33.4802 29.2018 33.1736 29.3778 32.8802C29.5538 32.5816 29.8391 32.3176 30.2338 32.0882C30.6284 31.8589 31.1431 31.6722 31.7778 31.5282C32.4124 31.3789 33.1911 31.2936 34.1138 31.2722V30.6402C34.1138 30.0109 33.9778 29.5362 33.7058 29.2162C33.4338 28.8909 33.0364 28.7282 32.5138 28.7282C32.1618 28.7282 31.8658 28.7736 31.6258 28.8642C31.3911 28.9496 31.1858 29.0482 31.0098 29.1602C30.8391 29.2669 30.6898 29.3656 30.5618 29.4562C30.4391 29.5416 30.3164 29.5842 30.1938 29.5842C30.0978 29.5842 30.0151 29.5602 29.9458 29.5122C29.8764 29.4589 29.8178 29.3949 29.7697 29.3202L29.5138 28.8642ZM39.0189 28.8962C39.1949 28.6989 39.3815 28.5202 39.5789 28.3602C39.7762 28.2002 39.9842 28.0642 40.2029 27.9522C40.4269 27.8349 40.6615 27.7469 40.9069 27.6882C41.1575 27.6242 41.4269 27.5922 41.7149 27.5922C42.1575 27.5922 42.5469 27.6669 42.8829 27.8162C43.2242 27.9602 43.5069 28.1682 43.7309 28.4402C43.9602 28.7069 44.1335 29.0296 44.2509 29.4082C44.3682 29.7869 44.4269 30.2056 44.4269 30.6642V35.8242H42.9949V30.6642C42.9949 30.0509 42.8535 29.5762 42.5709 29.2402C42.2935 28.8989 41.8695 28.7282 41.2989 28.7282C40.8775 28.7282 40.4829 28.8296 40.1149 29.0322C39.7522 29.2349 39.4162 29.5096 39.1069 29.8562V35.8242H37.6749V27.7202H38.5309C38.7335 27.7202 38.8589 27.8189 38.9069 28.0162L39.0189 28.8962ZM52.5785 35.8242H51.0265V24.3602H52.5785V35.8242ZM56.3939 28.8962C56.5699 28.6989 56.7565 28.5202 56.9539 28.3602C57.1512 28.2002 57.3592 28.0642 57.5779 27.9522C57.8019 27.8349 58.0365 27.7469 58.2819 27.6882C58.5325 27.6242 58.8019 27.5922 59.0899 27.5922C59.5325 27.5922 59.9219 27.6669 60.2579 27.8162C60.5992 27.9602 60.8819 28.1682 61.1059 28.4402C61.3352 28.7069 61.5085 29.0296 61.6259 29.4082C61.7432 29.7869 61.8019 30.2056 61.8019 30.6642V35.8242H60.3699V30.6642C60.3699 30.0509 60.2285 29.5762 59.9459 29.2402C59.6685 28.8989 59.2445 28.7282 58.6739 28.7282C58.2525 28.7282 57.8579 28.8296 57.4899 29.0322C57.1272 29.2349 56.7912 29.5096 56.4819 29.8562V35.8242H55.0499V27.7202H55.9059C56.1085 27.7202 56.2339 27.8189 56.2819 28.0162L56.3939 28.8962ZM68.6918 29.0562C68.6278 29.1736 68.5291 29.2322 68.3958 29.2322C68.3158 29.2322 68.2251 29.2029 68.1238 29.1442C68.0224 29.0856 67.8971 29.0216 67.7478 28.9522C67.6038 28.8776 67.4304 28.8109 67.2278 28.7522C67.0251 28.6882 66.7851 28.6562 66.5078 28.6562C66.2678 28.6562 66.0518 28.6882 65.8598 28.7522C65.6678 28.8109 65.5024 28.8936 65.3638 29.0002C65.2304 29.1069 65.1264 29.2322 65.0518 29.3762C64.9824 29.5149 64.9478 29.6669 64.9478 29.8322C64.9478 30.0402 65.0064 30.2136 65.1238 30.3522C65.2464 30.4909 65.4064 30.6109 65.6038 30.7122C65.8011 30.8136 66.0251 30.9042 66.2758 30.9842C66.5264 31.0589 66.7824 31.1416 67.0438 31.2322C67.3104 31.3176 67.5691 31.4136 67.8198 31.5202C68.0704 31.6269 68.2944 31.7602 68.4918 31.9202C68.6891 32.0802 68.8464 32.2776 68.9638 32.5122C69.0864 32.7416 69.1478 33.0189 69.1478 33.3442C69.1478 33.7176 69.0811 34.0642 68.9478 34.3842C68.8144 34.6989 68.6171 34.9736 68.3558 35.2082C68.0944 35.4376 67.7744 35.6189 67.3958 35.7522C67.0171 35.8856 66.5798 35.9522 66.0838 35.9522C65.5184 35.9522 65.0064 35.8616 64.5478 35.6802C64.0891 35.4936 63.6998 35.2562 63.3798 34.9682L63.7158 34.4242C63.7584 34.3549 63.8091 34.3016 63.8678 34.2642C63.9264 34.2269 64.0011 34.2082 64.0918 34.2082C64.1878 34.2082 64.2891 34.2456 64.3958 34.3202C64.5024 34.3949 64.6304 34.4776 64.7798 34.5682C64.9344 34.6589 65.1211 34.7416 65.3398 34.8162C65.5584 34.8909 65.8304 34.9282 66.1558 34.9282C66.4331 34.9282 66.6758 34.8936 66.8837 34.8242C67.0918 34.7496 67.2651 34.6509 67.4038 34.5282C67.5424 34.4056 67.6438 34.2642 67.7078 34.1042C67.7771 33.9442 67.8118 33.7736 67.8118 33.5922C67.8118 33.3682 67.7504 33.1842 67.6278 33.0402C67.5104 32.8909 67.3531 32.7656 67.1558 32.6642C66.9584 32.5576 66.7318 32.4669 66.4758 32.3922C66.2251 32.3122 65.9664 32.2296 65.6998 32.1442C65.4384 32.0589 65.1798 31.9629 64.9238 31.8562C64.6731 31.7442 64.4491 31.6056 64.2518 31.4402C64.0544 31.2749 63.8944 31.0722 63.7718 30.8322C63.6544 30.5869 63.5958 30.2909 63.5958 29.9442C63.5958 29.6349 63.6598 29.3389 63.7878 29.0562C63.9158 28.7682 64.1024 28.5176 64.3478 28.3042C64.5931 28.0856 64.8944 27.9122 65.2518 27.7842C65.6091 27.6562 66.0171 27.5922 66.4758 27.5922C67.0091 27.5922 67.4864 27.6776 67.9078 27.8482C68.3344 28.0136 68.7024 28.2429 69.0118 28.5362L68.6918 29.0562ZM78.4136 35.8242H76.9896V28.9122H72.8136V33.7762C72.8136 34.1176 72.8963 34.3709 73.0616 34.5362C73.227 34.7016 73.4403 34.7842 73.7016 34.7842C73.851 34.7842 73.979 34.7656 74.0856 34.7282C74.1976 34.6856 74.2936 34.6402 74.3736 34.5922C74.4536 34.5442 74.5203 34.5016 74.5736 34.4642C74.6323 34.4216 74.683 34.4002 74.7256 34.4002C74.8003 34.4002 74.867 34.4456 74.9256 34.5362L75.3416 35.2162C75.0963 35.4456 74.8003 35.6269 74.4536 35.7602C74.107 35.8882 73.7496 35.9522 73.3816 35.9522C72.7416 35.9522 72.2483 35.7736 71.9016 35.4162C71.5603 35.0589 71.3896 34.5442 71.3896 33.8722V28.9122H70.4136C70.3283 28.9122 70.2563 28.8882 70.1976 28.8402C70.139 28.7869 70.1096 28.7069 70.1096 28.6002V28.0322L71.4376 27.8562L71.7656 25.3602C71.7816 25.2802 71.8163 25.2162 71.8696 25.1682C71.9283 25.1149 72.003 25.0882 72.0936 25.0882H72.8136V27.8802H78.4136V35.8242ZM78.7656 25.1202C78.7656 25.2589 78.7363 25.3896 78.6776 25.5122C78.6243 25.6296 78.5496 25.7336 78.4536 25.8242C78.363 25.9149 78.2563 25.9869 78.1336 26.0402C78.011 26.0936 77.8803 26.1202 77.7416 26.1202C77.603 26.1202 77.4723 26.0936 77.3496 26.0402C77.2323 25.9869 77.1283 25.9149 77.0376 25.8242C76.947 25.7336 76.875 25.6296 76.8216 25.5122C76.7683 25.3896 76.7416 25.2589 76.7416 25.1202C76.7416 24.9816 76.7683 24.8509 76.8216 24.7282C76.875 24.6002 76.947 24.4909 77.0376 24.4002C77.1283 24.3042 77.2323 24.2296 77.3496 24.1762C77.4723 24.1229 77.603 24.0962 77.7416 24.0962C77.8803 24.0962 78.011 24.1229 78.1336 24.1762C78.2563 24.2296 78.363 24.3042 78.4536 24.4002C78.5496 24.4909 78.6243 24.6002 78.6776 24.7282C78.7363 24.8509 78.7656 24.9816 78.7656 25.1202ZM83.241 35.9522C82.601 35.9522 82.1077 35.7736 81.761 35.4162C81.4197 35.0589 81.249 34.5442 81.249 33.8722V28.9122H80.273C80.1877 28.9122 80.1157 28.8882 80.057 28.8402C79.9983 28.7869 79.969 28.7069 79.969 28.6002V28.0322L81.297 27.8642L81.625 25.3602C81.641 25.2802 81.6757 25.2162 81.729 25.1682C81.7877 25.1149 81.8623 25.0882 81.953 25.0882H82.673V27.8802H85.017V28.9122H82.673V33.7762C82.673 34.1176 82.7557 34.3709 82.921 34.5362C83.0863 34.7016 83.2997 34.7842 83.561 34.7842C83.7103 34.7842 83.8383 34.7656 83.945 34.7282C84.057 34.6856 84.153 34.6402 84.233 34.5922C84.313 34.5442 84.3797 34.5016 84.433 34.4642C84.4917 34.4216 84.5423 34.4002 84.585 34.4002C84.6597 34.4002 84.7263 34.4456 84.785 34.5362L85.201 35.2162C84.9557 35.4456 84.6597 35.6269 84.313 35.7602C83.9663 35.8882 83.609 35.9522 83.241 35.9522ZM93.1514 27.7202V35.8242H92.3034C92.1007 35.8242 91.9727 35.7256 91.9194 35.5282L91.8074 34.6562C91.4554 35.0456 91.0607 35.3602 90.6234 35.6002C90.186 35.8349 89.6847 35.9522 89.1194 35.9522C88.6767 35.9522 88.2847 35.8802 87.9434 35.7362C87.6074 35.5869 87.3247 35.3789 87.0954 35.1122C86.866 34.8456 86.6927 34.5229 86.5754 34.1442C86.4634 33.7656 86.4074 33.3469 86.4074 32.8882V27.7202H87.8314V32.8882C87.8314 33.5016 87.97 33.9762 88.2474 34.3122C88.53 34.6482 88.9594 34.8162 89.5354 34.8162C89.9567 34.8162 90.3487 34.7176 90.7114 34.5202C91.0794 34.3176 91.418 34.0402 91.7274 33.6882V27.7202H93.1514ZM97.8973 35.9522C97.2573 35.9522 96.7639 35.7736 96.4173 35.4162C96.0759 35.0589 95.9053 34.5442 95.9053 33.8722V28.9122H94.9293C94.8439 28.9122 94.7719 28.8882 94.7133 28.8402C94.6546 28.7869 94.6253 28.7069 94.6253 28.6002V28.0322L95.9533 27.8642L96.2812 25.3602C96.2973 25.2802 96.3319 25.2162 96.3853 25.1682C96.4439 25.1149 96.5186 25.0882 96.6093 25.0882H97.3293V27.8802H99.6733V28.9122H97.3293V33.7762C97.3293 34.1176 97.4119 34.3709 97.5773 34.5362C97.7426 34.7016 97.9559 34.7842 98.2173 34.7842C98.3666 34.7842 98.4946 34.7656 98.6013 34.7282C98.7133 34.6856 98.8093 34.6402 98.8893 34.5922C98.9693 34.5442 99.0359 34.5016 99.0893 34.4642C99.1479 34.4216 99.1986 34.4002 99.2413 34.4002C99.3159 34.4002 99.3826 34.4456 99.4413 34.5362L99.8573 35.2162C99.6119 35.4456 99.3159 35.6269 98.9693 35.7602C98.6226 35.8882 98.2653 35.9522 97.8973 35.9522ZM106.521 30.8882C106.521 30.5576 106.473 30.2562 106.377 29.9842C106.286 29.7069 106.15 29.4696 105.969 29.2722C105.793 29.0696 105.577 28.9149 105.321 28.8082C105.065 28.6962 104.774 28.6402 104.449 28.6402C103.766 28.6402 103.225 28.8402 102.825 29.2402C102.43 29.6349 102.185 30.1842 102.089 30.8882H106.521ZM107.673 34.6882C107.497 34.9016 107.286 35.0882 107.041 35.2482C106.795 35.4029 106.531 35.5309 106.249 35.6322C105.971 35.7336 105.683 35.8082 105.385 35.8562C105.086 35.9096 104.79 35.9362 104.497 35.9362C103.937 35.9362 103.419 35.8429 102.945 35.6562C102.475 35.4642 102.067 35.1869 101.721 34.8242C101.379 34.4562 101.113 34.0029 100.921 33.4642C100.729 32.9256 100.633 32.3069 100.633 31.6082C100.633 31.0429 100.718 30.5149 100.889 30.0242C101.065 29.5336 101.315 29.1096 101.641 28.7522C101.966 28.3896 102.363 28.1069 102.833 27.9042C103.302 27.6962 103.83 27.5922 104.417 27.5922C104.902 27.5922 105.35 27.6749 105.761 27.8402C106.177 28.0002 106.534 28.2349 106.833 28.5442C107.137 28.8482 107.374 29.2269 107.545 29.6802C107.715 30.1282 107.801 30.6402 107.801 31.2162C107.801 31.4402 107.777 31.5896 107.729 31.6642C107.681 31.7389 107.59 31.7762 107.457 31.7762H102.041C102.057 32.2882 102.126 32.7336 102.249 33.1122C102.377 33.4909 102.553 33.8082 102.777 34.0642C103.001 34.3149 103.267 34.5042 103.577 34.6322C103.886 34.7549 104.233 34.8162 104.617 34.8162C104.974 34.8162 105.281 34.7762 105.537 34.6962C105.798 34.6109 106.022 34.5202 106.209 34.4242C106.395 34.3282 106.55 34.2402 106.673 34.1602C106.801 34.0749 106.91 34.0322 107.001 34.0322C107.118 34.0322 107.209 34.0776 107.273 34.1682L107.673 34.6882ZM117.06 27.5922C117.652 27.5922 118.185 27.6909 118.66 27.8882C119.134 28.0856 119.54 28.3656 119.876 28.7282C120.212 29.0909 120.468 29.5309 120.644 30.0482C120.825 30.5602 120.916 31.1336 120.916 31.7682C120.916 32.4082 120.825 32.9842 120.644 33.4962C120.468 34.0082 120.212 34.4456 119.876 34.8082C119.54 35.1709 119.134 35.4509 118.66 35.6482C118.185 35.8402 117.652 35.9362 117.06 35.9362C116.462 35.9362 115.924 35.8402 115.444 35.6482C114.969 35.4509 114.564 35.1709 114.228 34.8082C113.892 34.4456 113.633 34.0082 113.452 33.4962C113.276 32.9842 113.188 32.4082 113.188 31.7682C113.188 31.1336 113.276 30.5602 113.452 30.0482C113.633 29.5309 113.892 29.0909 114.228 28.7282C114.564 28.3656 114.969 28.0856 115.444 27.8882C115.924 27.6909 116.462 27.5922 117.06 27.5922ZM117.06 34.8242C117.86 34.8242 118.457 34.5576 118.852 34.0242C119.246 33.4856 119.444 32.7362 119.444 31.7762C119.444 30.8109 119.246 30.0589 118.852 29.5202C118.457 28.9816 117.86 28.7122 117.06 28.7122C116.654 28.7122 116.3 28.7816 115.996 28.9202C115.697 29.0589 115.446 29.2589 115.244 29.5202C115.046 29.7816 114.897 30.1042 114.796 30.4882C114.7 30.8669 114.652 31.2962 114.652 31.7762C114.652 32.7362 114.849 33.4856 115.244 34.0242C115.644 34.5576 116.249 34.8242 117.06 34.8242ZM123.078 35.8242V28.9362L122.182 28.8322C122.07 28.8056 121.977 28.7656 121.902 28.7122C121.833 28.6536 121.798 28.5709 121.798 28.4642V27.8802H123.078V27.0962C123.078 26.6322 123.142 26.2216 123.27 25.8642C123.403 25.5016 123.59 25.1976 123.83 24.9522C124.075 24.7016 124.369 24.5122 124.71 24.3842C125.051 24.2562 125.435 24.1922 125.862 24.1922C126.225 24.1922 126.558 24.2456 126.862 24.3522L126.83 25.0642C126.819 25.1922 126.747 25.2616 126.614 25.2722C126.486 25.2829 126.313 25.2882 126.094 25.2882C125.849 25.2882 125.625 25.3202 125.422 25.3842C125.225 25.4482 125.054 25.5522 124.91 25.6962C124.766 25.8402 124.654 26.0296 124.574 26.2642C124.499 26.4989 124.462 26.7896 124.462 27.1362V27.8802H126.798V28.9122H124.51V35.8242H123.078ZM139.56 25.6642H135.848V35.8242H134.304V25.6642H130.584V24.3602H139.56V25.6642ZM144.396 30.8882C144.396 30.5576 144.348 30.2562 144.252 29.9842C144.161 29.7069 144.025 29.4696 143.844 29.2722C143.668 29.0696 143.452 28.9149 143.196 28.8082C142.94 28.6962 142.649 28.6402 142.324 28.6402C141.641 28.6402 141.1 28.8402 140.7 29.2402C140.305 29.6349 140.06 30.1842 139.964 30.8882H144.396ZM145.548 34.6882C145.372 34.9016 145.161 35.0882 144.916 35.2482C144.67 35.4029 144.406 35.5309 144.124 35.6322C143.846 35.7336 143.558 35.8082 143.26 35.8562C142.961 35.9096 142.665 35.9362 142.372 35.9362C141.812 35.9362 141.294 35.8429 140.82 35.6562C140.35 35.4642 139.942 35.1869 139.596 34.8242C139.254 34.4562 138.988 34.0029 138.796 33.4642C138.604 32.9256 138.508 32.3069 138.508 31.6082C138.508 31.0429 138.593 30.5149 138.764 30.0242C138.94 29.5336 139.19 29.1096 139.516 28.7522C139.841 28.3896 140.238 28.1069 140.708 27.9042C141.177 27.6962 141.705 27.5922 142.292 27.5922C142.777 27.5922 143.225 27.6749 143.636 27.8402C144.052 28.0002 144.409 28.2349 144.708 28.5442C145.012 28.8482 145.249 29.2269 145.42 29.6802C145.59 30.1282 145.676 30.6402 145.676 31.2162C145.676 31.4402 145.652 31.5896 145.604 31.6642C145.556 31.7389 145.465 31.7762 145.332 31.7762H139.916C139.932 32.2882 140.001 32.7336 140.124 33.1122C140.252 33.4909 140.428 33.8082 140.652 34.0642C140.876 34.3149 141.142 34.5042 141.452 34.6322C141.761 34.7549 142.108 34.8162 142.492 34.8162C142.849 34.8162 143.156 34.7762 143.412 34.6962C143.673 34.6109 143.897 34.5202 144.084 34.4242C144.27 34.3282 144.425 34.2402 144.548 34.1602C144.676 34.0749 144.785 34.0322 144.876 34.0322C144.993 34.0322 145.084 34.0776 145.148 34.1682L145.548 34.6882ZM153.065 29.1602C153.022 29.2189 152.98 29.2642 152.937 29.2962C152.894 29.3282 152.836 29.3442 152.761 29.3442C152.681 29.3442 152.593 29.3122 152.497 29.2482C152.401 29.1789 152.281 29.1042 152.137 29.0242C151.998 28.9442 151.825 28.8722 151.617 28.8082C151.414 28.7389 151.164 28.7042 150.865 28.7042C150.465 28.7042 150.113 28.7762 149.809 28.9202C149.505 29.0589 149.249 29.2616 149.041 29.5282C148.838 29.7949 148.684 30.1176 148.577 30.4962C148.476 30.8749 148.425 31.2989 148.425 31.7682C148.425 32.2589 148.481 32.6962 148.593 33.0802C148.705 33.4589 148.862 33.7789 149.065 34.0402C149.273 34.2962 149.521 34.4936 149.809 34.6322C150.102 34.7656 150.43 34.8322 150.793 34.8322C151.14 34.8322 151.425 34.7922 151.649 34.7122C151.873 34.6269 152.057 34.5336 152.201 34.4322C152.35 34.3309 152.473 34.2402 152.569 34.1602C152.67 34.0749 152.769 34.0322 152.865 34.0322C152.982 34.0322 153.073 34.0776 153.137 34.1682L153.537 34.6882C153.361 34.9069 153.161 35.0936 152.937 35.2482C152.713 35.4029 152.47 35.5336 152.209 35.6402C151.953 35.7416 151.684 35.8162 151.401 35.8642C151.118 35.9122 150.83 35.9362 150.537 35.9362C150.03 35.9362 149.558 35.8429 149.121 35.6562C148.689 35.4696 148.313 35.2002 147.993 34.8482C147.673 34.4909 147.422 34.0536 147.241 33.5362C147.06 33.0189 146.969 32.4296 146.969 31.7682C146.969 31.1656 147.052 30.6082 147.217 30.0962C147.388 29.5842 147.633 29.1442 147.953 28.7762C148.278 28.4029 148.676 28.1122 149.145 27.9042C149.62 27.6962 150.164 27.5922 150.777 27.5922C151.348 27.5922 151.849 27.6856 152.281 27.8722C152.718 28.0536 153.105 28.3122 153.441 28.6482L153.065 29.1602ZM156.498 28.8002C156.844 28.4322 157.228 28.1389 157.65 27.9202C158.071 27.7016 158.556 27.5922 159.106 27.5922C159.548 27.5922 159.938 27.6669 160.274 27.8162C160.615 27.9602 160.898 28.1682 161.122 28.4402C161.351 28.7069 161.524 29.0296 161.642 29.4082C161.759 29.7869 161.818 30.2056 161.818 30.6642V35.8242H160.386V30.6642C160.386 30.0509 160.244 29.5762 159.962 29.2402C159.684 28.8989 159.26 28.7282 158.69 28.7282C158.268 28.7282 157.874 28.8296 157.506 29.0322C157.143 29.2349 156.807 29.5096 156.498 29.8562V35.8242H155.066V24.0402H156.498V28.8002ZM165.331 28.8962C165.507 28.6989 165.694 28.5202 165.891 28.3602C166.089 28.2002 166.297 28.0642 166.515 27.9522C166.739 27.8349 166.974 27.7469 167.219 27.6882C167.47 27.6242 167.739 27.5922 168.027 27.5922C168.47 27.5922 168.859 27.6669 169.195 27.8162C169.537 27.9602 169.819 28.1682 170.043 28.4402C170.273 28.7069 170.446 29.0296 170.563 29.4082C170.681 29.7869 170.739 30.2056 170.739 30.6642V35.8242H169.307V30.6642C169.307 30.0509 169.166 29.5762 168.883 29.2402C168.606 28.8989 168.182 28.7282 167.611 28.7282C167.19 28.7282 166.795 28.8296 166.427 29.0322C166.065 29.2349 165.729 29.5096 165.419 29.8562V35.8242H163.987V27.7202H164.843C165.046 27.7202 165.171 27.8189 165.219 28.0162L165.331 28.8962ZM176.325 27.5922C176.917 27.5922 177.451 27.6909 177.925 27.8882C178.4 28.0856 178.805 28.3656 179.141 28.7282C179.477 29.0909 179.733 29.5309 179.909 30.0482C180.091 30.5602 180.181 31.1336 180.181 31.7682C180.181 32.4082 180.091 32.9842 179.909 33.4962C179.733 34.0082 179.477 34.4456 179.141 34.8082C178.805 35.1709 178.4 35.4509 177.925 35.6482C177.451 35.8402 176.917 35.9362 176.325 35.9362C175.728 35.9362 175.189 35.8402 174.709 35.6482C174.235 35.4509 173.829 35.1709 173.493 34.8082C173.157 34.4456 172.899 34.0082 172.717 33.4962C172.541 32.9842 172.453 32.4082 172.453 31.7682C172.453 31.1336 172.541 30.5602 172.717 30.0482C172.899 29.5309 173.157 29.0909 173.493 28.7282C173.829 28.3656 174.235 28.0856 174.709 27.8882C175.189 27.6909 175.728 27.5922 176.325 27.5922ZM176.325 34.8242C177.125 34.8242 177.723 34.5576 178.117 34.0242C178.512 33.4856 178.709 32.7362 178.709 31.7762C178.709 30.8109 178.512 30.0589 178.117 29.5202C177.723 28.9816 177.125 28.7122 176.325 28.7122C175.92 28.7122 175.565 28.7816 175.261 28.9202C174.963 29.0589 174.712 29.2589 174.509 29.5202C174.312 29.7816 174.163 30.1042 174.061 30.4882C173.965 30.8669 173.917 31.2962 173.917 31.7762C173.917 32.7362 174.115 33.4856 174.509 34.0242C174.909 34.5576 175.515 34.8242 176.325 34.8242ZM183.459 24.0402V35.8242H182.035V24.0402H183.459ZM189.185 27.5922C189.777 27.5922 190.31 27.6909 190.785 27.8882C191.259 28.0856 191.665 28.3656 192.001 28.7282C192.337 29.0909 192.593 29.5309 192.769 30.0482C192.95 30.5602 193.041 31.1336 193.041 31.7682C193.041 32.4082 192.95 32.9842 192.769 33.4962C192.593 34.0082 192.337 34.4456 192.001 34.8082C191.665 35.1709 191.259 35.4509 190.785 35.6482C190.31 35.8402 189.777 35.9362 189.185 35.9362C188.587 35.9362 188.049 35.8402 187.569 35.6482C187.094 35.4509 186.689 35.1709 186.353 34.8082C186.017 34.4456 185.758 34.0082 185.577 33.4962C185.401 32.9842 185.313 32.4082 185.313 31.7682C185.313 31.1336 185.401 30.5602 185.577 30.0482C185.758 29.5309 186.017 29.0909 186.353 28.7282C186.689 28.3656 187.094 28.0856 187.569 27.8882C188.049 27.6909 188.587 27.5922 189.185 27.5922ZM189.185 34.8242C189.985 34.8242 190.582 34.5576 190.977 34.0242C191.371 33.4856 191.569 32.7362 191.569 31.7762C191.569 30.8109 191.371 30.0589 190.977 29.5202C190.582 28.9816 189.985 28.7122 189.185 28.7122C188.779 28.7122 188.425 28.7816 188.121 28.9202C187.822 29.0589 187.571 29.2589 187.369 29.5202C187.171 29.7816 187.022 30.1042 186.921 30.4882C186.825 30.8669 186.777 31.2962 186.777 31.7762C186.777 32.7362 186.974 33.4856 187.369 34.0242C187.769 34.5576 188.374 34.8242 189.185 34.8242ZM197.624 31.8642C197.912 31.8642 198.165 31.8242 198.384 31.7442C198.603 31.6642 198.787 31.5522 198.936 31.4082C199.085 31.2642 199.197 31.0936 199.272 30.8962C199.347 30.6936 199.384 30.4722 199.384 30.2322C199.384 29.7362 199.232 29.3416 198.928 29.0482C198.629 28.7549 198.195 28.6082 197.624 28.6082C197.048 28.6082 196.608 28.7549 196.304 29.0482C196.005 29.3416 195.856 29.7362 195.856 30.2322C195.856 30.4722 195.893 30.6936 195.968 30.8962C196.048 31.0936 196.163 31.2642 196.312 31.4082C196.461 31.5522 196.645 31.6642 196.864 31.7442C197.083 31.8242 197.336 31.8642 197.624 31.8642ZM200.192 36.2642C200.192 36.0669 200.136 35.9069 200.024 35.7842C199.912 35.6616 199.76 35.5656 199.568 35.4962C199.381 35.4269 199.163 35.3789 198.912 35.3522C198.661 35.3202 198.395 35.2962 198.112 35.2802C197.835 35.2642 197.552 35.2482 197.264 35.2322C196.976 35.2162 196.699 35.1896 196.432 35.1522C196.133 35.2909 195.888 35.4669 195.696 35.6802C195.509 35.8882 195.416 36.1336 195.416 36.4162C195.416 36.5976 195.461 36.7656 195.552 36.9202C195.648 37.0802 195.792 37.2162 195.984 37.3282C196.176 37.4456 196.416 37.5362 196.704 37.6002C196.997 37.6696 197.341 37.7042 197.736 37.7042C198.12 37.7042 198.464 37.6696 198.768 37.6002C199.072 37.5309 199.328 37.4322 199.536 37.3042C199.749 37.1762 199.912 37.0242 200.024 36.8482C200.136 36.6722 200.192 36.4776 200.192 36.2642ZM201.64 28.0402V28.5682C201.64 28.7442 201.528 28.8562 201.304 28.9042L200.384 29.0242C200.565 29.3762 200.656 29.7656 200.656 30.1922C200.656 30.5869 200.579 30.9469 200.424 31.2722C200.275 31.5922 200.067 31.8669 199.8 32.0962C199.533 32.3256 199.213 32.5016 198.84 32.6242C198.467 32.7469 198.061 32.8082 197.624 32.8082C197.245 32.8082 196.888 32.7629 196.552 32.6722C196.381 32.7789 196.251 32.8936 196.16 33.0162C196.069 33.1336 196.024 33.2536 196.024 33.3762C196.024 33.5682 196.101 33.7149 196.256 33.8162C196.416 33.9122 196.624 33.9816 196.88 34.0242C197.136 34.0669 197.427 34.0936 197.752 34.1042C198.083 34.1149 198.419 34.1336 198.76 34.1602C199.107 34.1816 199.443 34.2216 199.768 34.2802C200.099 34.3389 200.392 34.4349 200.648 34.5682C200.904 34.7016 201.109 34.8856 201.264 35.1202C201.424 35.3549 201.504 35.6589 201.504 36.0322C201.504 36.3789 201.416 36.7149 201.24 37.0402C201.069 37.3656 200.821 37.6536 200.496 37.9042C200.171 38.1602 199.771 38.3629 199.296 38.5122C198.827 38.6669 198.296 38.7442 197.704 38.7442C197.112 38.7442 196.595 38.6856 196.152 38.5682C195.709 38.4509 195.341 38.2936 195.048 38.0962C194.755 37.8989 194.533 37.6696 194.384 37.4082C194.24 37.1522 194.168 36.8829 194.168 36.6002C194.168 36.2002 194.293 35.8616 194.544 35.5842C194.795 35.3069 195.139 35.0856 195.576 34.9202C195.336 34.8136 195.144 34.6722 195 34.4962C194.861 34.3149 194.792 34.0722 194.792 33.7682C194.792 33.6509 194.813 33.5309 194.856 33.4082C194.899 33.2802 194.963 33.1549 195.048 33.0322C195.139 32.9042 195.248 32.7842 195.376 32.6722C195.504 32.5602 195.653 32.4616 195.824 32.3762C195.424 32.1522 195.112 31.8562 194.888 31.4882C194.664 31.1149 194.552 30.6829 194.552 30.1922C194.552 29.7976 194.627 29.4402 194.776 29.1202C194.931 28.7949 195.144 28.5202 195.416 28.2962C195.688 28.0669 196.011 27.8909 196.384 27.7682C196.763 27.6456 197.176 27.5842 197.624 27.5842C197.976 27.5842 198.304 27.6242 198.608 27.7042C198.912 27.7789 199.189 27.8909 199.44 28.0402H201.64ZM210.104 27.7202L205.584 38.2162C205.536 38.3229 205.475 38.4082 205.4 38.4722C205.331 38.5362 205.222 38.5682 205.072 38.5682H204.016L205.496 35.3522L202.152 27.7202H203.384C203.507 27.7202 203.603 27.7522 203.672 27.8162C203.747 27.8749 203.798 27.9416 203.824 28.0162L205.992 33.1202C206.078 33.3442 206.15 33.5789 206.208 33.8242C206.283 33.5736 206.363 33.3362 206.448 33.1122L208.552 28.0162C208.584 27.9309 208.638 27.8616 208.712 27.8082C208.792 27.7496 208.88 27.7202 208.976 27.7202H210.104ZM225.338 30.0962C225.338 30.9549 225.202 31.7362 224.93 32.4402C224.658 33.1442 224.274 33.7469 223.778 34.2482C223.282 34.7496 222.684 35.1389 221.986 35.4162C221.292 35.6882 220.524 35.8242 219.682 35.8242H215.402V24.3602H219.682C220.524 24.3602 221.292 24.4989 221.986 24.7762C222.684 25.0482 223.282 25.4376 223.778 25.9442C224.274 26.4456 224.658 27.0482 224.93 27.7522C225.202 28.4562 225.338 29.2376 225.338 30.0962ZM223.746 30.0962C223.746 29.3922 223.65 28.7629 223.458 28.2082C223.266 27.6536 222.994 27.1842 222.642 26.8002C222.29 26.4162 221.863 26.1229 221.362 25.9202C220.86 25.7176 220.3 25.6162 219.682 25.6162H216.954V34.5682H219.682C220.3 34.5682 220.86 34.4669 221.362 34.2642C221.863 34.0616 222.29 33.7709 222.642 33.3922C222.994 33.0082 223.266 32.5389 223.458 31.9842C223.65 31.4296 223.746 30.8002 223.746 30.0962ZM232.552 30.8882C232.552 30.5576 232.504 30.2562 232.408 29.9842C232.317 29.7069 232.181 29.4696 232 29.2722C231.824 29.0696 231.608 28.9149 231.352 28.8082C231.096 28.6962 230.805 28.6402 230.48 28.6402C229.797 28.6402 229.256 28.8402 228.856 29.2402C228.461 29.6349 228.216 30.1842 228.12 30.8882H232.552ZM233.704 34.6882C233.528 34.9016 233.317 35.0882 233.072 35.2482C232.827 35.4029 232.563 35.5309 232.28 35.6322C232.003 35.7336 231.715 35.8082 231.416 35.8562C231.117 35.9096 230.821 35.9362 230.528 35.9362C229.968 35.9362 229.451 35.8429 228.976 35.6562C228.507 35.4642 228.099 35.1869 227.752 34.8242C227.411 34.4562 227.144 34.0029 226.952 33.4642C226.76 32.9256 226.664 32.3069 226.664 31.6082C226.664 31.0429 226.749 30.5149 226.92 30.0242C227.096 29.5336 227.347 29.1096 227.672 28.7522C227.997 28.3896 228.395 28.1069 228.864 27.9042C229.333 27.6962 229.861 27.5922 230.448 27.5922C230.933 27.5922 231.381 27.6749 231.792 27.8402C232.208 28.0002 232.565 28.2349 232.864 28.5442C233.168 28.8482 233.405 29.2269 233.576 29.6802C233.747 30.1282 233.832 30.6402 233.832 31.2162C233.832 31.4402 233.808 31.5896 233.76 31.6642C233.712 31.7389 233.621 31.7762 233.488 31.7762H228.072C228.088 32.2882 228.157 32.7336 228.28 33.1122C228.408 33.4909 228.584 33.8082 228.808 34.0642C229.032 34.3149 229.299 34.5042 229.608 34.6322C229.917 34.7549 230.264 34.8162 230.648 34.8162C231.005 34.8162 231.312 34.7762 231.568 34.6962C231.829 34.6109 232.053 34.5202 232.24 34.4242C232.427 34.3282 232.581 34.2402 232.704 34.1602C232.832 34.0749 232.941 34.0322 233.032 34.0322C233.149 34.0322 233.24 34.0776 233.304 34.1682L233.704 34.6882ZM237.053 24.0402V35.8242H235.629V24.0402H237.053ZM240.794 28.8002C241.141 28.4322 241.525 28.1389 241.946 27.9202C242.368 27.7016 242.853 27.5922 243.402 27.5922C243.845 27.5922 244.234 27.6669 244.57 27.8162C244.912 27.9602 245.194 28.1682 245.418 28.4402C245.648 28.7069 245.821 29.0296 245.938 29.4082C246.056 29.7869 246.114 30.2056 246.114 30.6642V35.8242H244.682V30.6642C244.682 30.0509 244.541 29.5762 244.258 29.2402C243.981 28.8989 243.557 28.7282 242.986 28.7282C242.565 28.7282 242.17 28.8296 241.802 29.0322C241.44 29.2349 241.104 29.5096 240.794 29.8562V35.8242H239.362V24.0402H240.794V28.8002ZM249.788 27.7202V35.8242H248.364V27.7202H249.788ZM250.092 25.1762C250.092 25.3149 250.063 25.4456 250.004 25.5682C249.951 25.6856 249.876 25.7922 249.78 25.8882C249.69 25.9789 249.58 26.0509 249.452 26.1042C249.33 26.1576 249.199 26.1842 249.06 26.1842C248.922 26.1842 248.791 26.1576 248.668 26.1042C248.551 26.0509 248.447 25.9789 248.356 25.8882C248.266 25.7922 248.194 25.6856 248.14 25.5682C248.087 25.4456 248.06 25.3149 248.06 25.1762C248.06 25.0376 248.087 24.9069 248.14 24.7842C248.194 24.6562 248.266 24.5469 248.356 24.4562C248.447 24.3602 248.551 24.2856 248.668 24.2322C248.791 24.1789 248.922 24.1522 249.06 24.1522C249.199 24.1522 249.33 24.1789 249.452 24.2322C249.58 24.2856 249.69 24.3602 249.78 24.4562C249.876 24.5469 249.951 24.6562 250.004 24.7842C250.063 24.9069 250.092 25.0376 250.092 25.1762Z" fill="#1D3557"/>
</g>
<defs>
<clipPath id="clip0_7971_9099">
<rect width="253" height="38.8241" fill="white"/>
</clipPath>
</defs>
</svg>
