<svg width="115" height="117" viewBox="0 0 115 117" fill="none" xmlns="http://www.w3.org/2000/svg">
<g clip-path="url(#clip0_2787_18812)">
<path fill-rule="evenodd" clip-rule="evenodd" d="M114.913 57.0788C114.92 56.6872 114.924 56.2946 114.924 55.9012C114.928 50.175 114.149 44.4771 112.607 38.9785C103.153 65.0337 79.0572 83.5531 50.825 83.5531C43.9264 83.5598 37.07 82.4365 30.5093 80.2248C39.9424 85.6931 50.5746 88.5496 61.3812 88.519C84.4795 88.519 104.576 75.811 114.913 57.0788Z" fill="url(#paint0_linear_2787_18812)"/>
<path fill-rule="evenodd" clip-rule="evenodd" d="M115 71.0786C113.261 77.8406 110.401 84.2372 106.547 89.9823C98.2006 95.3426 87.559 98.5544 75.9681 98.5544C57.4436 98.5544 41.3429 90.3496 33.1626 78.286C43.0694 84.7422 55.7868 88.6227 69.6562 88.6227C88.1148 88.6227 104.533 81.7491 115 71.0786Z" fill="url(#paint1_linear_2787_18812)"/>
<path fill-rule="evenodd" clip-rule="evenodd" d="M100.135 100.357C94.5939 102.117 88.8301 103.01 83.0346 103.005C50.2786 103.005 23.7242 74.9091 23.7242 40.2519C23.6866 25.5801 28.5675 11.3509 37.5313 0C15.5507 8.87203 0 30.776 0 56.3915C0 89.8645 26.5542 117 59.3102 117C74.4642 117.039 89.063 111.087 100.135 100.357Z" fill="url(#paint2_linear_2787_18812)"/>
<path d="M85.8147 72.7825H78.4408L77.7065 71.7227H84.9162L85.8147 72.7825Z" fill="white"/>
<path fill-rule="evenodd" clip-rule="evenodd" d="M58.0769 70.0132V70.8014H51.5557L51.6891 70.0132H58.0769Z" fill="white"/>
<path fill-rule="evenodd" clip-rule="evenodd" d="M58.077 70.8013V71.7227H51.3965L51.5557 70.8013H58.077Z" fill="black"/>
<path fill-rule="evenodd" clip-rule="evenodd" d="M58.0771 81.5269V84.5197H55.1655L49.2246 84.5145L49.7331 81.5269H58.0771Z" fill="black"/>
<path fill-rule="evenodd" clip-rule="evenodd" d="M42.1077 78.7254H41.7944L41.8252 78.6509C41.9228 78.6775 42.0152 78.7041 42.1077 78.7254Z" stroke="black" stroke-miterlimit="10"/>
<path fill-rule="evenodd" clip-rule="evenodd" d="M49.7331 81.5269L49.2246 84.5145L39.2114 84.5038L40.5414 81.5269H49.7331Z" fill="white"/>
<path fill-rule="evenodd" clip-rule="evenodd" d="M50.6317 76.2441L50.2106 78.7258H45.0962C44.9884 78.6779 44.8806 78.6299 44.7727 78.5767C44.6649 78.5288 44.5519 78.4755 44.439 78.4222C43.7971 78.1187 43.1039 77.7832 42.3799 77.4211L42.9037 76.2441H50.6317Z" fill="white"/>
<path fill-rule="evenodd" clip-rule="evenodd" d="M50.8917 74.2578L50.5529 76.2443H42.8247L43.7131 74.2578H50.8917Z" fill="black"/>
<path fill-rule="evenodd" clip-rule="evenodd" d="M51.2171 72.7822L50.9706 74.2573H43.792L44.4493 72.7822H51.2171Z" fill="white"/>
<path fill-rule="evenodd" clip-rule="evenodd" d="M51.689 70.0132L51.5556 70.8014H45.332L45.6863 70.0132H51.689Z" fill="black"/>
<path fill-rule="evenodd" clip-rule="evenodd" d="M41.825 78.6511L41.7942 78.7257H33.5938L35.0469 76.6274C35.432 76.7553 35.8171 76.8778 36.1972 76.9949C36.7209 77.16 37.2395 77.3198 37.7479 77.4742C39.2011 77.9162 40.5721 78.305 41.825 78.6511Z" fill="black"/>
<path fill-rule="evenodd" clip-rule="evenodd" d="M40.5412 81.5269L39.2112 84.5038L32.6899 84.4986H29.5884L31.6476 81.5269H40.5412Z" fill="black"/>
<path fill-rule="evenodd" clip-rule="evenodd" d="M41.7636 78.7256L40.5108 81.5266H31.6172L33.5631 78.7256H41.7636Z" fill="white"/>
<path fill-rule="evenodd" clip-rule="evenodd" d="M35.0471 76.6276L33.594 78.7258H25.2959L27.4012 76.2441H33.8867C34.2769 76.3773 34.662 76.4998 35.0471 76.6276Z" fill="white"/>
<path fill-rule="evenodd" clip-rule="evenodd" d="M33.5939 78.7256L31.6478 81.5266H22.9131L25.2958 78.7256H33.5939Z" fill="black"/>
<path fill-rule="evenodd" clip-rule="evenodd" d="M31.6478 81.5269L29.5886 84.4986L20.397 84.4933L22.9131 81.5269H31.6478Z" fill="white"/>
<path fill-rule="evenodd" clip-rule="evenodd" d="M33.8863 76.2441H27.4009L28.5254 74.9234L28.9105 74.4653C29.8502 74.8222 30.7848 75.1683 31.7039 75.4879C31.8682 75.5464 32.0171 75.5997 32.1507 75.6476C32.6128 75.8127 33.075 75.9724 33.532 76.1269C33.545 76.1329 33.5589 76.1365 33.573 76.1375C33.6757 76.1748 33.7836 76.2068 33.8863 76.2441Z" fill="black"/>
<path fill-rule="evenodd" clip-rule="evenodd" d="M45.6854 70.0132L45.3312 70.8014H39.0869L39.6312 70.0132H45.6854Z" fill="white"/>
<path fill-rule="evenodd" clip-rule="evenodd" d="M43.7916 74.2573L42.9032 76.2437H40.1303C39.3858 75.839 38.6275 75.4112 37.8556 74.9603C37.7169 74.8751 37.5732 74.7899 37.4294 74.7046C37.1829 74.5608 36.9364 74.4117 36.6899 74.2573H43.7916Z" fill="white"/>
<path fill-rule="evenodd" clip-rule="evenodd" d="M42.9032 76.2441L42.3795 77.4211H42.3743C42.3532 77.4066 42.3309 77.3941 42.3076 77.3838C41.6092 77.0323 40.8801 76.6489 40.1304 76.2441H42.9032Z" fill="black"/>
<path fill-rule="evenodd" clip-rule="evenodd" d="M45.3322 70.8013L44.9214 71.7227H38.4463L39.0882 70.8013H45.3322Z" fill="black"/>
<path fill-rule="evenodd" clip-rule="evenodd" d="M44.9213 71.7227L44.4489 72.7825H37.7119L38.4462 71.7227H44.9213Z" fill="white"/>
<path fill-rule="evenodd" clip-rule="evenodd" d="M39.0866 70.8013L38.4447 71.7226H32.899C32.7553 71.6161 32.6063 71.5149 32.4626 71.4031C32.2674 71.2593 32.0723 71.1101 31.8823 70.961L32.0158 70.8013H39.0866Z" fill="white"/>
<path fill-rule="evenodd" clip-rule="evenodd" d="M38.4461 71.7227L37.7118 72.7824H34.4049C34.3844 72.7664 34.3639 72.7558 34.3433 72.7398C34.2098 72.6546 34.0814 72.5641 33.953 72.4735C33.6501 72.2658 33.3523 72.0528 33.0544 71.8345C33.0031 71.7972 32.9517 71.76 32.9004 71.7227H38.4461Z" fill="black"/>
<path fill-rule="evenodd" clip-rule="evenodd" d="M37.7122 72.7822L36.6903 74.2574C36.2847 74.0071 35.8739 73.7515 35.4682 73.4852C35.1139 73.2562 34.7596 73.0219 34.4053 72.7822H37.7122Z" fill="white"/>
<path fill-rule="evenodd" clip-rule="evenodd" d="M66.9299 84.5145L60.9887 84.5197H58.0771V81.5269H66.4215L66.9299 84.5145Z" fill="#FDFEFE"/>
<path fill-rule="evenodd" clip-rule="evenodd" d="M66.4215 81.5266H58.0771V78.7256H65.9441L66.4215 81.5266Z" fill="black"/>
<path fill-rule="evenodd" clip-rule="evenodd" d="M65.9441 78.7257H58.0771V76.2441H65.523L65.9441 78.7257Z" fill="#FDFEFE"/>
<path fill-rule="evenodd" clip-rule="evenodd" d="M64.5987 70.8014H58.0771V70.0132H64.4652L64.5987 70.8014Z" fill="black"/>
<path fill-rule="evenodd" clip-rule="evenodd" d="M70.8223 70.8014H64.5988L64.4653 70.0132H70.4678L70.8223 70.8014Z" fill="white"/>
<path fill-rule="evenodd" clip-rule="evenodd" d="M71.233 71.7227H64.7579L64.5986 70.8013H70.8222L71.233 71.7227Z" fill="black"/>
<path fill-rule="evenodd" clip-rule="evenodd" d="M76.943 84.5038L66.9298 84.5145L66.4214 81.5269H75.613L76.943 84.5038Z" fill="black"/>
<path fill-rule="evenodd" clip-rule="evenodd" d="M84.1356 70.8014H77.0651L76.5205 70.0132H83.4629L84.1356 70.8014Z" fill="white"/>
<path fill-rule="evenodd" clip-rule="evenodd" d="M87.0679 74.2573H79.4628L78.4409 72.7822H85.8148L86.8879 74.0443L87.0679 74.2573Z" fill="black"/>
<path fill-rule="evenodd" clip-rule="evenodd" d="M90.8586 78.7257H82.5604L81.1073 76.6275L80.8403 76.2441H88.7532L88.8301 76.3344L90.8586 78.7257Z" fill="black"/>
<path fill-rule="evenodd" clip-rule="evenodd" d="M93.2411 81.5266H84.5067L82.5605 78.7256H90.8587L93.2411 81.5266Z" fill="white"/>
<path fill-rule="evenodd" clip-rule="evenodd" d="M95.7569 84.4933L86.5656 84.4986L84.5063 81.5269H93.2407L95.7569 84.4933Z" fill="black"/>
<path fill-rule="evenodd" clip-rule="evenodd" d="M66.9297 29.6885C64.3902 32.5045 60.9105 34.2095 57.2004 34.4556C53.4903 34.7018 49.8294 33.4706 46.9646 31.0131C44.0999 28.5557 42.2472 25.0573 41.7844 21.2316C41.3217 17.406 42.2839 13.5414 44.4747 10.4263C44.4747 10.4263 44.6133 35.637 66.9297 29.6885Z" fill="url(#paint3_linear_2787_18812)"/>
<path fill-rule="evenodd" clip-rule="evenodd" d="M70.8784 19.3414C70.88 21.1566 70.5651 22.9572 69.949 24.6562C69.2718 26.5223 68.2476 28.2322 66.9348 29.6888H66.9296C44.6132 35.6373 44.4746 10.4266 44.4746 10.4266C46.2886 7.84197 48.8448 5.91912 51.7771 4.93348C54.7093 3.94783 57.8671 3.94996 60.7981 4.93957C63.7291 5.92918 66.2829 7.85548 68.0937 10.4425C69.9044 13.0296 70.8792 16.1446 70.8784 19.3414V19.3414Z" fill="url(#paint4_linear_2787_18812)"/>
<path fill-rule="evenodd" clip-rule="evenodd" d="M50.2091 70.0132H42.3578C43.1588 54.2551 34.7427 49.4622 31.1123 48.1309C33.9087 46.3411 36.9482 44.9965 40.1292 44.1421C40.1292 44.1421 49.1975 51.4486 50.2091 70.0132Z" fill="url(#paint5_linear_2787_18812)"/>
<path fill-rule="evenodd" clip-rule="evenodd" d="M85.0394 48.4822C72.3613 45.8834 77.9481 70.0131 77.9481 70.0131H50.2093C49.1977 51.4485 40.1294 44.142 40.1294 44.142C55.0566 39.9136 75.3139 43.0929 85.0394 48.4822Z" fill="url(#paint6_linear_2787_18812)"/>
<path d="M49.2244 84.5142L49.2192 84.5463" stroke="black" stroke-miterlimit="10"/>
<path d="M86.5656 84.4986H83.4641L76.9428 84.5038L75.6128 81.5269H84.5064L86.5656 84.4986Z" fill="white"/>
<path d="M84.5066 81.5266H75.613L74.4987 79.0291L74.3652 78.7256H82.5604L84.5066 81.5266Z" fill="black"/>
<path d="M82.5602 78.7257H74.365L74.3289 78.6511L73.7743 77.4209L73.2505 76.2441H80.8401L81.1071 76.6275L82.5602 78.7257Z" fill="white"/>
<path d="M79.464 74.2573H72.3624L71.7051 72.7822H78.4421L79.464 74.2573Z" fill="white"/>
<path d="M77.0663 70.8014H70.8223L70.4678 70.0132H76.522L77.0663 70.8014Z" fill="black"/>
<path d="M50.2106 78.7256L49.733 81.5268H40.5415L41.7944 78.7256H42.1077C42.2668 78.7682 42.4209 78.8108 42.575 78.8534C42.6982 78.8854 42.8163 78.9173 42.9344 78.9493C43.2425 79.0291 43.5403 79.1037 43.833 79.1836C43.9357 79.2102 44.0435 79.2368 44.1462 79.2635C44.557 79.3646 44.9473 79.4658 45.317 79.5564C45.3889 79.5723 45.4556 79.5883 45.5224 79.6043C45.6148 79.6256 45.7124 79.6522 45.8048 79.6735C45.8972 79.7002 45.9846 79.7161 46.0718 79.7374C46.1643 79.7587 46.2567 79.7854 46.3491 79.8067C46.5083 79.8386 46.6623 79.8759 46.8113 79.9132C46.8113 79.9185 46.8164 79.9185 46.8215 79.9132C46.8986 79.9345 46.9756 79.9505 47.0475 79.9664C47.1502 79.993 47.2426 80.0144 47.3401 80.0356C47.4326 80.0623 47.5199 80.0783 47.6072 80.0995C47.6688 80.1102 47.7253 80.1262 47.7818 80.1368C47.9204 80.1688 48.0488 80.2007 48.1669 80.222C48.2182 80.2327 48.2645 80.2434 48.3107 80.254C48.3518 80.2646 48.398 80.27 48.439 80.2806C48.4801 80.2913 48.5161 80.2966 48.552 80.3072C48.5726 80.3126 48.5879 80.3126 48.6085 80.3179C48.6259 80.32 48.643 80.3236 48.6598 80.3285C48.6906 80.3339 48.7215 80.3445 48.7471 80.3499C48.778 80.3552 48.8036 80.3605 48.8242 80.3658C48.8909 80.3765 48.9371 80.3871 48.9628 80.3924C48.9166 80.3765 48.778 80.3232 48.5623 80.2327C48.5109 80.2114 48.4545 80.1901 48.3877 80.1635C48.2285 80.0996 48.0436 80.0197 47.828 79.9291C47.7356 79.8918 47.638 79.8493 47.5353 79.8067C47.519 79.8018 47.5035 79.7947 47.4891 79.7854C47.4275 79.7587 47.3659 79.7374 47.2991 79.7055C46.8575 79.5191 46.3389 79.2901 45.7586 79.0291C45.6508 78.9812 45.5378 78.9333 45.43 78.88C45.3221 78.8321 45.2092 78.7789 45.0962 78.7256H50.2106Z" fill="black"/>
<path d="M58.0771 76.2441V78.7257H50.2104L50.6316 76.2441H58.0771Z" fill="black"/>
<path d="M58.0769 78.7256V81.5266H49.7329L50.2103 78.7256H58.0769Z" fill="white"/>
<path d="M74.3654 78.7257H65.9441L65.5229 76.2441H73.2508L73.7746 77.4209L74.3293 78.6511L74.3654 78.7257Z" fill="black"/>
<path d="M75.6128 81.5266H66.4212L65.9438 78.7256H74.3651L74.4986 79.0291L75.6128 81.5266Z" fill="white"/>
<path d="M58.0769 74.2578V76.2443H50.6313L50.9702 74.2578H58.0769Z" fill="white"/>
<path d="M65.523 76.2443H58.0771V74.2578H65.1841L65.523 76.2443Z" fill="black"/>
<path d="M73.2508 76.2443H65.5229L65.1841 74.2578H72.3627L73.2508 76.2443Z" fill="white"/>
<path d="M80.8401 76.2443H73.2504L72.3623 74.2578H79.4639L80.8401 76.2443Z" fill="black"/>
<path d="M88.7533 76.2443H80.8405L79.4644 74.2578H87.0691L87.2437 74.4653L87.901 75.2375L88.7533 76.2443Z" fill="white"/>
<path d="M44.4489 72.7822L43.7916 74.2573H36.6899L37.7119 72.7822H44.4489Z" fill="black"/>
<path d="M58.0769 72.7822V74.2573H50.9702L51.2167 72.7822H58.0769Z" fill="black"/>
<path d="M65.1841 74.2573H58.0771V72.7822H64.9376L65.1841 74.2573Z" fill="#FDFEFE"/>
<path d="M72.3626 74.2573H65.184L64.9375 72.7822H71.7053L72.3626 74.2573Z" fill="black"/>
<path d="M58.0769 71.7227V72.7825H51.2168L51.3964 71.7227H58.0769Z" fill="white"/>
<path d="M71.7052 72.7825H64.9375L64.7578 71.7227H71.2329L71.7052 72.7825Z" fill="white"/>
<path d="M78.4423 72.7825H71.7052L71.2329 71.7227H77.708L78.4423 72.7825Z" fill="black"/>
<path d="M100.137 63.9368C97.8726 67.8138 94.3397 71.9783 88.9429 76.244H88.7529L87.9005 75.2375C87.9005 75.2375 97.3745 61.8333 93.2409 51.6989C89.1072 41.5646 67.9154 39.2427 67.9154 39.2427C62.9448 37.7782 28.967 35.7013 21.3108 53.3498C13.8292 70.6096 47.1292 79.9132 48.6081 80.318C48.5875 80.3126 48.5722 80.3126 48.5516 80.3073C48.5157 80.2967 48.4797 80.2913 48.4386 80.2807C48.3975 80.27 48.3514 80.2647 48.3103 80.254C48.2641 80.2434 48.2178 80.2328 48.1665 80.2221C48.0484 80.2008 47.92 80.1688 47.7814 80.1369C47.7249 80.1262 47.6684 80.1103 47.6068 80.0996C47.5195 80.0783 47.4322 80.0623 47.3397 80.0357C47.2422 80.0144 47.1497 79.9931 47.0471 79.9665C46.9752 79.9505 46.8982 79.9345 46.8211 79.9132C46.816 79.9186 46.8109 79.9186 46.8109 79.9132C46.6619 79.876 46.5079 79.8387 46.3487 79.8067C46.2563 79.7854 46.1639 79.7588 46.0714 79.7375C45.9841 79.7162 45.8968 79.7002 45.8044 79.6736C45.712 79.6523 45.6144 79.6257 45.522 79.6044C45.4552 79.5884 45.3885 79.5724 45.3166 79.5564C44.9469 79.4659 44.5566 79.3647 44.1458 79.2635C44.0431 79.2369 43.9353 79.2103 43.8326 79.1837C43.5399 79.1038 43.2421 79.0292 42.934 78.9493C42.8159 78.9174 42.6978 78.8854 42.5746 78.8535C42.4205 78.8109 42.2664 78.7683 42.1072 78.7257C42.0148 78.7044 41.9224 78.6777 41.8248 78.6511C40.5719 78.305 39.2009 77.9162 37.7477 77.4742C37.2393 77.3198 36.7207 77.16 36.197 76.9949C35.817 76.8777 35.4318 76.7553 35.0467 76.6274C34.6616 76.4996 34.2765 76.3771 33.8863 76.244C33.7836 76.2067 33.6757 76.1748 33.573 76.1375C33.5588 76.1365 33.5449 76.1329 33.532 76.1268C33.0749 75.9724 32.6128 75.8126 32.1507 75.6476C32.0171 75.5996 31.8682 75.5464 31.7039 75.4878C30.9285 75.2002 29.8656 74.7742 29.0029 74.3588C28.931 74.3269 28.8591 74.2896 28.7924 74.2576C28.4895 74.1085 28.2224 73.9594 28.0016 73.8263C14.9179 65.5771 6.35793 54.383 22.9591 36.6811C29.7475 29.4438 35.9556 27.2604 42.8724 25.3645C43.8351 27.6696 45.3357 29.6901 47.2389 31.2438C49.1422 32.7975 51.3883 33.8357 53.7749 34.2646C56.1615 34.6936 58.6135 34.5 60.9099 33.7012C63.2063 32.9024 65.275 31.5235 66.9295 29.6888H66.9346C68.2475 28.2322 69.2716 26.5223 69.9488 24.6562C80.0852 27.0261 88.0957 32.0054 94.0214 36.106C102.853 42.2196 105.637 54.5161 100.137 63.9368Z" fill="url(#paint7_linear_2787_18812)"/>
<path d="M87.9007 75.2372L87.2434 74.465L87.0688 74.2573L86.8891 74.0443C87.0996 73.6342 87.3101 73.2135 87.5207 72.7821C88.3879 71.0092 89.1493 69.1827 89.8006 67.3129C89.8622 67.1531 89.9136 66.9934 89.9649 66.8283C90.0727 66.5034 90.1754 66.1733 90.273 65.8484C90.3244 65.6833 90.3706 65.5182 90.4168 65.3531C90.4681 65.188 90.5092 65.0229 90.5503 64.8578C90.6376 64.5277 90.7197 64.1975 90.7968 63.8673C90.8738 63.5584 90.9354 63.2496 90.997 62.9407C91.033 62.749 91.0638 62.5626 91.0946 62.3762C91.1511 62.046 91.2024 61.7158 91.2435 61.391C91.2641 61.2259 91.2846 61.0608 91.3 60.8957C91.3833 60.1356 91.4159 59.3705 91.3975 58.6058C91.3975 58.3821 91.3873 58.1584 91.3719 57.9401V57.9188C91.3616 57.6951 91.3411 57.4714 91.3103 57.2531C91.2897 57.072 91.2692 56.8963 91.2384 56.7152C91.2178 56.5661 91.1922 56.417 91.1665 56.2679C91.1459 56.1561 91.1203 56.0495 91.0997 55.943C91.074 55.8365 91.0484 55.73 91.0227 55.6235C91.0026 55.5151 90.9751 55.4084 90.9406 55.304C90.8892 55.091 90.8224 54.8833 90.7506 54.6756C90.7146 54.5744 90.6787 54.4732 90.6376 54.372C90.6068 54.2868 90.5708 54.2016 90.54 54.1164C90.2872 53.4885 89.9705 52.8905 89.5952 52.3324C89.5387 52.2418 89.4771 52.1566 89.4103 52.0661C89.2127 51.7894 89.0001 51.5245 88.7736 51.2726C88.6966 51.1874 88.6196 51.1022 88.5374 51.017C88.0376 50.4942 87.487 50.0267 86.8942 49.6217C86.3294 49.233 85.7132 48.8495 85.0456 48.482H85.0405C75.315 43.0927 55.0577 39.9134 40.1305 44.1418C36.9494 44.9963 33.9099 46.3408 31.1135 48.1306C29.4437 49.2195 27.9281 50.544 26.6102 52.0661C26.2599 52.4741 25.9325 52.9026 25.6295 53.3495C25.2632 53.8816 24.9435 54.4466 24.6744 55.0377C23.442 57.7431 23.6474 60.3685 24.777 62.8448C24.8088 62.9232 24.8448 62.9997 24.8849 63.0738C25.0534 63.4353 25.2402 63.7873 25.4446 64.1283C25.5165 64.2508 25.5935 64.3679 25.6705 64.4904C25.7527 64.6235 25.8348 64.7514 25.9222 64.8792C26.0916 65.1401 26.2765 65.3957 26.4665 65.646C26.5589 65.7739 26.6565 65.9017 26.7591 66.0241C26.8516 66.1519 26.9542 66.2744 27.0621 66.4023C27.3188 66.7165 27.5859 67.02 27.8683 67.3235C28.0377 67.51 28.2123 67.691 28.3869 67.8721C29.4208 68.9223 30.5204 69.9008 31.6784 70.8011C31.7451 70.8543 31.817 70.9076 31.8838 70.9608C32.0738 71.11 32.2689 71.2591 32.464 71.4029C32.6078 71.5147 32.7567 71.6159 32.9005 71.7224C32.9519 71.7597 33.0032 71.7969 33.0545 71.8342C33.3524 72.0526 33.6502 72.2656 33.9532 72.4733C34.0815 72.5638 34.2099 72.6543 34.3434 72.7396C34.364 72.7555 34.3845 72.7662 34.405 72.7821C34.7593 73.0218 35.1137 73.2561 35.468 73.4851C35.8736 73.7514 36.2844 74.007 36.6901 74.2573C36.9366 74.4117 37.183 74.5609 37.4295 74.7047C37.5733 74.7899 37.7171 74.875 37.8557 74.9603C38.626 75.4129 39.3842 75.8407 40.1305 76.2437C40.8802 76.6484 41.6093 77.0319 42.3077 77.3833C42.331 77.3937 42.3533 77.4062 42.3744 77.4206H42.3796C43.1036 77.7828 43.7968 78.1183 44.4387 78.4218C44.5517 78.4751 44.6646 78.5283 44.7724 78.5763C44.8803 78.6295 44.983 78.6774 45.0857 78.7254C45.1987 78.7786 45.3167 78.8319 45.4297 78.8798C45.5375 78.9331 45.6505 78.981 45.7583 79.0289C46.3386 79.2899 46.8572 79.5189 47.2988 79.7052C47.3656 79.7372 47.4272 79.7585 47.4888 79.7851C47.5032 79.7944 47.5188 79.8016 47.535 79.8064C47.6377 79.849 47.7353 79.8917 47.8277 79.9289C48.0434 80.0195 48.2283 80.0993 48.3875 80.1633C48.4542 80.1899 48.5107 80.2112 48.562 80.2325C48.7777 80.323 48.9163 80.3763 48.9626 80.3923C48.9369 80.3869 48.8907 80.3763 48.8239 80.3656C48.8034 80.3603 48.7777 80.355 48.7469 80.3496C48.7212 80.3443 48.6904 80.3336 48.6596 80.3283C48.6428 80.3234 48.6256 80.3198 48.6083 80.3177C47.1294 79.9129 13.8294 70.6094 21.311 53.3495C28.9672 35.7009 62.945 37.7779 67.9156 39.2424C67.9156 39.2424 89.1074 41.5643 93.241 51.6987C97.3746 61.833 87.9007 75.2372 87.9007 75.2372Z" fill="url(#paint8_linear_2787_18812)"/>
<path d="M39.6309 70.0132L39.0867 70.8014H32.0161L32.6885 70.0132H39.6309Z" fill="black"/>
<path d="M51.5557 70.8013L51.3965 71.7227H44.9214L45.3322 70.8013H51.5557Z" fill="white"/>
<path d="M64.7579 71.7227H58.0771V70.8013H64.5987L64.7579 71.7227Z" fill="#FDFEFE"/>
<path d="M77.7081 71.7227H71.233L70.8223 70.8013H77.0662L77.7081 71.7227Z" fill="white"/>
<path d="M51.3967 71.7227L51.217 72.7825H44.4492L44.9216 71.7227H51.3967Z" fill="black"/>
<path d="M64.9376 72.7825H58.0771V71.7227H64.7579L64.9376 72.7825Z" fill="black"/>
<path d="M84.9162 71.7227H77.7066L77.0649 70.8013H84.1355L84.269 70.9612L84.9162 71.7227Z" fill="black"/>
</g>
<defs>
<linearGradient id="paint0_linear_2787_18812" x1="12.0784" y1="114.869" x2="148.921" y2="25.8053" gradientUnits="userSpaceOnUse">
<stop offset="0.29212" stop-color="#1988A1"/>
<stop offset="0.77263" stop-color="#0B5C9A"/>
</linearGradient>
<linearGradient id="paint1_linear_2787_18812" x1="127.303" y1="37.8534" x2="29.2697" y2="111.28" gradientUnits="userSpaceOnUse">
<stop stop-color="#166E9D"/>
<stop offset="0.85787" stop-color="#26A8A0"/>
</linearGradient>
<linearGradient id="paint2_linear_2787_18812" x1="75.8694" y1="-2.2938" x2="32.2455" y2="116.392" gradientUnits="userSpaceOnUse">
<stop stop-color="#17668F"/>
<stop offset="0.17513" stop-color="#186990"/>
<stop offset="0.63127" stop-color="#2FBBA4"/>
</linearGradient>
<linearGradient id="paint3_linear_2787_18812" x1="41.671" y1="22.4565" x2="66.9297" y2="22.4565" gradientUnits="userSpaceOnUse">
<stop stop-color="#EF4423"/>
<stop offset="0.45178" stop-color="#ED8422"/>
</linearGradient>
<linearGradient id="paint4_linear_2787_18812" x1="44.4746" y1="17.3965" x2="70.8784" y2="17.3965" gradientUnits="userSpaceOnUse">
<stop stop-color="#ED8422"/>
<stop offset="1" stop-color="#F7D317"/>
</linearGradient>
<linearGradient id="paint5_linear_2787_18812" x1="34.3976" y1="66.2441" x2="63.7909" y2="34.9502" gradientUnits="userSpaceOnUse">
<stop stop-color="#F7D317"/>
<stop offset="0.35865" stop-color="#ED8422"/>
<stop offset="0.56463" stop-color="#EF4423"/>
</linearGradient>
<linearGradient id="paint6_linear_2787_18812" x1="36.7593" y1="69.2022" x2="104.429" y2="34.964" gradientUnits="userSpaceOnUse">
<stop stop-color="#F7D317"/>
<stop offset="0.47087" stop-color="#ED8422"/>
<stop offset="0.85838" stop-color="#EF4423"/>
</linearGradient>
<linearGradient id="paint7_linear_2787_18812" x1="9.18065" y1="81.0125" x2="152.679" y2="7.79483" gradientUnits="userSpaceOnUse">
<stop stop-color="#ED8422"/>
<stop offset="0.59008" stop-color="#EF4423"/>
</linearGradient>
<linearGradient id="paint8_linear_2787_18812" x1="20.2173" y1="59.3502" x2="94.2851" y2="59.3502" gradientUnits="userSpaceOnUse">
<stop offset="0.56433" stop-color="#F7D317"/>
<stop offset="1" stop-color="#ED8422"/>
</linearGradient>
<clipPath id="clip0_2787_18812">
<rect width="115" height="117" fill="white"/>
</clipPath>
</defs>
</svg>
