<svg width="117" height="117" viewBox="0 0 117 117" fill="none" xmlns="http://www.w3.org/2000/svg">
<g clip-path="url(#clip0_2787_18801)">
<path fill-rule="evenodd" clip-rule="evenodd" d="M116.872 57.0528C116.879 56.6613 116.883 56.269 116.883 55.8757C116.888 50.1521 116.094 44.4569 114.527 38.9607C108.514 55.4834 96.4689 68.9984 80.9086 76.6813C65.3485 84.3642 47.4772 85.6207 31.0293 80.1883C40.6233 85.654 51.4367 88.5092 62.4277 88.4786C85.9197 88.4786 106.359 75.7765 116.872 57.0528Z" fill="url(#paint0_linear_2787_18801)"/>
<path fill-rule="evenodd" clip-rule="evenodd" d="M116.96 71.0464C115.192 77.8053 112.283 84.199 108.363 89.9415C98.9709 95.668 88.2069 98.6335 77.2629 98.5096C58.4225 98.5096 42.0473 90.3086 33.7275 78.2504C44.9108 85.1581 57.7678 88.7371 70.8434 88.5825C89.6167 88.5825 106.315 81.712 116.96 71.0464Z" fill="url(#paint1_linear_2787_18801)"/>
<path fill-rule="evenodd" clip-rule="evenodd" d="M101.842 100.311C96.2065 102.071 90.3446 102.963 84.4502 102.958C51.1358 102.958 24.1286 74.875 24.1286 40.2336C24.0904 25.5684 29.0546 11.3457 38.1711 0C26.9756 4.37854 17.3401 12.1038 10.5283 22.1626C3.71649 32.2213 0.0465873 44.1437 0 56.3659C0 89.8236 27.0069 116.947 60.3214 116.947C75.7338 116.985 90.5814 111.037 101.842 100.311Z" fill="url(#paint2_linear_2787_18801)"/>
<path d="M20.1568 47.9385H18.2041V90.1854H20.1568V47.9385Z" fill="url(#paint3_linear_2787_18801)"/>
<path d="M25.3047 47.9385H23.3521V90.1854H25.3047V47.9385Z" fill="url(#paint4_linear_2787_18801)"/>
<path d="M23.7515 47.5678V46.071H19.4917V47.5678H23.7515Z" fill="url(#paint5_linear_2787_18801)"/>
<path d="M28.944 47.5678V46.071H24.6841V47.5678H28.944Z" fill="url(#paint6_linear_2787_18801)"/>
<path d="M30.4514 47.9395V86.8013C29.6993 87.6224 29.0445 88.5308 28.5005 89.5079V47.9395H30.4514Z" fill="url(#paint7_linear_2787_18801)"/>
<path d="M30.4514 88.8491V90.1866H28.5005V89.9894C28.9031 89.7566 29.6269 89.3343 30.4514 88.8491Z" fill="url(#paint8_linear_2787_18801)"/>
<path d="M34.8022 86.3041C34.0048 86.7736 32.0384 87.9216 30.4514 88.8488C29.6269 89.3342 28.9031 89.7563 28.5005 89.9891V89.5078C29.5202 87.6746 30.9253 86.0941 32.6152 84.8799C33.0602 84.9381 33.487 85.0961 33.8652 85.3424C34.2433 85.5885 34.5633 85.9171 34.8022 86.3041Z" fill="url(#paint9_linear_2787_18801)"/>
<path d="M35.9675 89.4643C34.1728 88.9234 32.2691 88.8784 30.4517 89.3341V88.8489C32.0387 87.9217 34.005 86.7736 34.8025 86.3042C35.4334 87.2474 35.833 88.3311 35.9675 89.4643Z" fill="url(#paint10_linear_2787_18801)"/>
<path d="M67.8243 36.9713C67.2669 37.1332 66.6399 37.2949 65.9586 37.4409C65.7148 37.4961 65.4631 37.5474 65.2038 37.5948C65.0412 37.6223 64.8786 37.65 64.7083 37.6776C64.5768 37.7012 64.4451 37.7209 64.3096 37.7408C64.0078 37.7841 63.698 37.8275 63.3807 37.8591C63.249 37.8748 63.1135 37.8866 62.9781 37.8986C62.8348 37.9143 62.6878 37.9261 62.5407 37.9341C62.4206 37.9419 62.2969 37.9498 62.173 37.9538C59.9703 38.1071 57.7596 37.8119 55.67 37.0858C55.4022 36.9129 55.182 36.6732 55.0303 36.3895C54.8787 36.1058 54.8004 35.7874 54.8028 35.4643C54.8023 35.4379 54.8037 35.4116 54.8068 35.3853C54.8068 35.3508 54.8107 35.3164 54.8184 35.2828C54.8261 35.2393 54.8339 35.192 54.8454 35.1486C54.8951 34.9212 54.9786 34.703 55.0931 34.5015C55.1126 34.466 55.1319 34.4266 55.1551 34.3911C55.1807 34.342 55.2091 34.2945 55.2403 34.2491C55.2905 34.174 55.3447 34.0952 55.4067 34.0162C55.4493 33.9611 55.4919 33.9019 55.5422 33.8466C55.5887 33.7875 55.639 33.7323 55.6931 33.673C55.6984 33.6642 55.705 33.6562 55.7125 33.6494C55.7589 33.5981 55.8093 33.5467 55.8595 33.4955C55.9177 33.4323 55.9796 33.3731 56.0454 33.314C56.1964 33.1641 56.3705 33.0142 56.5602 32.8603C56.6158 32.8111 56.674 32.765 56.7344 32.7222C56.959 32.5447 57.2066 32.367 57.4776 32.1856L57.6517 32.0673C57.7409 32.0081 57.8298 31.9528 57.9266 31.8898L57.9421 31.8818C58.0428 31.8187 58.1434 31.7556 58.2479 31.6924C58.2375 31.6923 58.227 31.6935 58.2169 31.6964C58.2513 31.684 58.2861 31.6736 58.3215 31.6648C61.5535 34.4739 63.9264 36.5413 63.9264 36.5413L65.3624 34.833C66.1134 35.484 66.9806 36.2375 67.8243 36.9713Z" fill="url(#paint11_linear_2787_18801)"/>
<path d="M64.2817 56.2744L74.3109 60.6144L74.5625 60.9458C74.323 61.3909 74.1198 61.8554 73.9549 62.3346L79.045 72.8489L78.2166 72.7384C78.2166 72.7384 74.0439 68.7813 63.8365 68.0356C64.0001 72.1649 63.2417 76.2781 61.6185 80.0649L51.1982 81.868C51.1982 81.868 54.1517 80.4594 56.3696 73.5985C58.5877 66.7414 54.0433 58.8389 54.0433 58.8389C50.8034 48.719 64.3436 39.8578 64.8467 39.5303L64.8545 39.5264L64.8622 39.5224C65.0481 39.4277 65.2339 39.3251 65.4274 39.2186C65.7952 39.0213 66.1745 38.8083 66.5654 38.5794C66.7628 38.465 66.9602 38.3506 67.1577 38.2322C67.5563 37.9955 67.9705 37.743 68.3886 37.4708C68.7873 37.8141 69.1704 38.1494 69.5228 38.4572C70.6685 39.4513 71.5085 40.1852 71.5085 40.1852L72.8285 38.615L72.9562 38.465L70.3627 36.161C70.4324 36.1137 70.4982 36.0662 70.5679 36.015C70.5369 36.0268 70.4518 36.0663 70.3201 36.1214L66.8712 33.052L67.6531 32.1208H67.6569C68.4119 32.4317 69.143 32.7996 69.844 33.2216L69.8517 33.2256C69.9175 33.2847 69.9872 33.336 70.0569 33.3873C68.3383 33.1033 67.2079 33.0243 67.2079 33.0243L67.235 33.0361C67.2854 33.0599 67.4091 33.119 67.5912 33.2098C67.6414 33.2295 67.6918 33.2571 67.7498 33.2847C67.9086 33.3637 68.102 33.4583 68.3227 33.5688C68.4118 33.6122 68.5007 33.6595 68.5975 33.7069C68.7911 33.8055 69.0001 33.912 69.2246 34.0304C69.2981 34.0659 69.3756 34.1053 69.453 34.1488C70.3859 34.638 71.5354 35.2653 72.7471 35.9874C72.8941 36.0741 73.0413 36.1649 73.1922 36.2556C73.2073 36.2633 73.2215 36.2726 73.2348 36.2831C73.3973 36.3818 73.5638 36.4805 73.7302 36.5869C73.8735 36.6777 74.0206 36.7685 74.1677 36.8631C74.6128 37.1472 75.058 37.4391 75.4953 37.7429C75.7314 37.9047 75.9637 38.0665 76.196 38.2361C76.3741 38.3624 76.5482 38.4926 76.7224 38.6228C76.9275 38.7767 77.1288 38.9305 77.3224 39.0882C77.4618 39.1948 77.5973 39.3053 77.7326 39.4197C77.9185 39.5736 78.1004 39.7275 78.2746 39.8853C78.4217 40.0116 78.5649 40.1418 78.7042 40.2719C79.041 40.5954 79.3546 40.9151 79.6371 41.2345C79.7224 41.3371 79.8075 41.4358 79.8887 41.5345C79.9545 41.6133 80.0165 41.6923 80.0746 41.7712C80.1326 41.8462 80.1868 41.9211 80.241 42.0001C80.2952 42.075 80.3455 42.15 80.3959 42.2249C80.5933 42.5226 80.7607 42.8398 80.8952 43.1718C80.9262 43.2508 80.9533 43.3257 80.9765 43.4007C81.5532 45.1996 80.5391 46.8449 76.6179 47.9496C76.6179 47.9497 67.2971 45.5076 64.2817 56.2744Z" fill="url(#paint12_linear_2787_18801)"/>
<path d="M64.4893 39.7449C64.652 39.6659 64.8144 39.5792 64.9809 39.4924C64.4777 39.8198 50.9376 48.6812 54.1775 58.801C54.1775 58.801 58.7218 66.7036 56.5039 73.5607C54.2859 80.4216 51.3324 81.8301 51.3324 81.8301L51.3209 81.834C51.3103 81.8356 51.2999 81.8383 51.2898 81.8419L39.8284 83.8264L32.7485 84.8523C34.3826 83.6766 36.2564 82.893 38.2297 82.56C45.5107 81.2936 53.8524 81.2935 53.8524 70.9804C54.1493 66.896 53.1536 62.8223 51.0111 59.3573C51.0111 59.3573 48.0383 53.6129 55.0484 44.9292L57.5915 42.3134C57.5915 42.3134 57.7154 42.2937 57.9592 42.2423C58.0127 42.2334 58.0657 42.2216 58.118 42.2068C58.176 42.195 58.2379 42.1793 58.3037 42.1633L58.3579 42.1515C58.4509 42.1279 58.5515 42.1042 58.6599 42.0726C58.7682 42.045 58.8882 42.0135 59.016 41.974L59.0276 41.97C59.1205 41.9464 59.2173 41.9148 59.3217 41.8833C59.9295 41.6979 60.6959 41.4374 61.5978 41.0704C61.7488 41.0074 61.9036 40.9443 62.0623 40.8771C62.5074 40.6917 62.9836 40.4786 63.4868 40.238C63.6493 40.163 63.8119 40.0841 63.9783 40.0014C64.1448 39.9224 64.3151 39.8357 64.4893 39.7449Z" fill="url(#paint13_linear_2787_18801)"/>
<path d="M94.1927 89.5554C94.1927 89.5554 93.767 90.3129 88.7231 85.2904C89.1541 85.0264 89.6381 84.8651 90.1388 84.8187C90.6395 84.7722 91.1441 84.8418 91.6148 85.0222C92.1033 86.7228 92.9877 88.278 94.1927 89.5554Z" fill="url(#paint14_linear_2787_18801)"/>
<path d="M70.4968 36.1232C69.8195 36.5968 69.1614 37.0334 68.5227 37.4331C68.1047 37.7014 67.6944 37.9539 67.2918 38.1946C67.0944 38.3129 66.8969 38.4273 66.6995 38.5417C66.3086 38.7706 65.9293 38.9836 65.5615 39.1809C65.368 39.2874 65.1822 39.39 64.9964 39.4847L64.9887 39.4886L64.981 39.4926C64.8145 39.5794 64.6519 39.6661 64.4893 39.7451C64.315 39.8359 64.1448 39.9226 63.9783 40.0016C63.8118 40.0844 63.6493 40.1633 63.4867 40.2382C62.9836 40.4789 62.5075 40.692 62.0622 40.8774C61.9036 40.9445 61.7487 41.0076 61.5978 41.0708C60.6958 41.4376 59.9294 41.6981 59.3217 41.8835C59.2173 41.915 59.1204 41.9426 59.0275 41.9702L59.0159 41.9743C58.8882 42.0098 58.7721 42.0453 58.6598 42.0729C58.5514 42.1044 58.4508 42.1282 58.3579 42.1518L58.3037 42.1637C58.2379 42.1794 58.176 42.1952 58.1179 42.207C58.0656 42.2218 58.0127 42.2336 57.9592 42.2425C57.7153 42.2939 57.5915 42.3136 57.5915 42.3136C57.5915 42.3136 48.0809 43.1184 50.3027 37.9578C52.3814 33.1208 57.6688 31.8188 58.323 31.6769C58.3317 31.6729 58.3408 31.6702 58.3501 31.669C58.3602 31.6662 58.3707 31.6648 58.3812 31.6651C58.2766 31.7282 58.176 31.7912 58.0754 31.8544L58.0599 31.8623C57.6341 32.0398 49.0795 35.7169 53.7517 40.1476C53.7515 40.1476 57.6883 42.0334 70.4968 36.1232Z" fill="url(#paint15_linear_2787_18801)"/>
<path d="M76.6179 47.9498C81.561 47.8473 82.6409 46.7149 82.6409 46.7149C83.1764 45.7808 83.413 44.6998 83.318 43.6222C83.223 42.5446 82.801 41.524 82.1106 40.7022C79.7765 37.5814 67.8699 33.2612 67.2351 33.0363L67.208 33.0244C67.208 33.0244 68.3384 33.1034 70.057 33.3875C70.3591 33.6098 70.6819 33.8015 71.0209 33.9595L71.0324 33.9674C71.7948 34.3247 72.6241 34.5091 73.4633 34.5079C73.8494 34.5088 74.2347 34.4691 74.6129 34.3896C79.0838 35.6481 84.2784 38.0193 86.2022 42.3987C89.8407 50.6879 76.6179 47.9498 76.6179 47.9498Z" fill="url(#paint16_linear_2787_18801)"/>
<path d="M82.6408 46.715C82.6408 46.715 81.5608 47.8473 76.6178 47.9499C80.539 46.8451 81.5531 45.2 80.9763 43.4008C80.9532 43.3258 80.9261 43.2509 80.895 43.1721C80.7606 42.84 80.5932 42.5227 80.3958 42.2251C80.348 42.1474 80.2964 42.0724 80.2408 42.0003C80.1906 41.9252 80.1364 41.8503 80.0744 41.7715C80.0163 41.6925 79.9544 41.6137 79.8886 41.5347C79.8111 41.436 79.726 41.3374 79.637 41.2348C79.3545 40.9152 79.0409 40.5957 78.7041 40.2721C78.5648 40.1419 78.4215 40.0117 78.2745 39.8855C78.1002 39.7276 77.9183 39.5738 77.7325 39.4199C77.597 39.3055 77.4615 39.1951 77.3222 39.0885C77.1286 38.9307 76.9274 38.7768 76.7222 38.623C76.5481 38.4927 76.3738 38.3625 76.1958 38.2364C75.9636 38.0666 75.7313 37.9049 75.4952 37.7431C75.0579 37.4393 74.6126 37.1474 74.1675 36.8634C74.0204 36.7686 73.8733 36.6779 73.7301 36.5872C73.5637 36.4807 73.3972 36.3819 73.2346 36.2834C73.2213 36.2728 73.207 36.2635 73.192 36.2558C73.0411 36.165 72.894 36.0744 72.7469 35.9875C71.5353 35.2655 70.3857 34.6382 69.4528 34.149C69.3753 34.1056 69.298 34.0662 69.2245 34.0306C69 33.9122 68.791 33.8058 68.5974 33.7071C68.5006 33.6598 68.4116 33.6125 68.3226 33.569C68.1019 33.4586 67.9083 33.3638 67.7497 33.2849C67.6917 33.2573 67.6413 33.2297 67.591 33.21C67.409 33.1192 67.2851 33.0601 67.2349 33.0364C67.8696 33.2612 79.7763 37.5814 82.1104 40.7023C82.8008 41.5242 83.2227 42.5448 83.3178 43.6222C83.4129 44.6998 83.1763 45.7808 82.6408 46.715Z" fill="url(#paint17_linear_2787_18801)"/>
<path d="M93.7437 86.1148C93.0954 85.6379 92.3768 85.2689 91.6148 85.0219C91.1442 84.8415 90.6396 84.7719 90.1389 84.8184C89.6381 84.8648 89.1542 85.0261 88.7233 85.2901C88.1878 85.7376 87.7452 86.2894 87.4215 86.9135C87.0979 87.5374 86.8996 88.2208 86.8381 88.9238L79.0501 72.8386H79.0462L73.9561 62.3241C74.121 61.8451 74.3243 61.3806 74.5638 60.9354C75.6282 58.939 78.0902 56.0115 81.9454 61.0577L93.7437 86.1148Z" fill="#F7D317"/>
<path d="M68.0101 31.6885L67.6579 32.1107H67.654L66.872 33.0418L65.3625 34.833L63.9263 36.5413C63.9263 36.5413 61.5536 34.4739 58.3214 31.6648C51.7294 25.9283 41.5646 17.0985 40.6704 16.3687C39.3388 15.2837 40.6704 14.6484 40.6704 14.6484C40.6704 14.6484 42.1801 12.7468 43.3336 11.4803C44.4871 10.2139 45.2884 11.4803 45.2884 11.4803L68.0101 31.6885Z" fill="#F7D317"/>
<path d="M70.3213 36.1112C70.271 36.131 70.2129 36.1547 70.1471 36.1822C70.0774 36.2098 70.0078 36.2374 69.9265 36.269C69.8842 36.282 69.8428 36.2978 69.8026 36.3164C69.7136 36.3479 69.6207 36.3834 69.5239 36.4189C69.4155 36.4584 69.2994 36.4979 69.1795 36.5412C69.0749 36.5767 68.9665 36.6123 68.8542 36.6518C68.6685 36.7109 68.4671 36.778 68.2581 36.8411C68.1188 36.8845 67.9756 36.9279 67.8246 36.9713C66.9807 36.2374 66.1137 35.4839 65.3628 34.8329L66.8723 33.0417L70.3213 36.1112Z" fill="#F7D317"/>
<path d="M72.9572 38.4547L72.8295 38.6046L71.5095 40.175C71.5095 40.175 70.6695 39.4411 69.5238 38.4468C69.1716 38.1391 68.7883 37.8038 68.3896 37.4605C69.0283 37.062 69.6864 36.6254 70.3637 36.1506L72.9572 38.4547Z" fill="#F7D317"/>
<path d="M76.8484 33.3994C76.1737 33.894 75.4029 34.2357 74.5878 34.4015C74.2096 34.4811 73.8244 34.5208 73.4383 34.5199C72.5991 34.5212 71.7697 34.3366 71.0074 33.9794L70.9958 33.9715C70.7944 33.8413 70.5893 33.7111 70.3803 33.5769C70.2912 33.5178 70.1984 33.4625 70.1093 33.4112C70.0165 33.348 69.9235 33.2928 69.8268 33.2376L69.819 33.2337C69.1269 32.6766 68.5677 31.9668 68.1836 31.1577C67.7995 30.3486 67.6002 29.4613 67.6011 28.5625C67.6018 27.6635 67.8024 26.7766 68.1879 25.9681C68.5734 25.1597 69.1338 24.4509 69.8268 23.895C69.7958 24.1357 68.6113 33.6362 76.8484 33.3994Z" fill="url(#paint18_linear_2787_18801)"/>
<path d="M79.2793 28.5663C79.2802 29.5108 79.0603 30.4421 78.6375 31.2826C78.2147 32.1231 77.6014 32.8488 76.8484 33.3994C68.6113 33.6362 69.7957 24.1357 69.8268 23.8951V23.8911C70.6876 23.199 71.7224 22.768 72.8125 22.6475C73.9026 22.527 75.0038 22.7218 75.9903 23.2098C76.9768 23.6976 77.8085 24.4589 78.3902 25.4062C78.9719 26.3536 79.28 27.4488 79.2793 28.5663Z" fill="url(#paint19_linear_2787_18801)"/>
<path d="M91.7573 41.5164C93.3503 41.5164 94.6419 40.2 94.6419 38.5762C94.6419 36.9524 93.3503 35.636 91.7573 35.636C90.1641 35.636 88.8726 36.9524 88.8726 38.5762C88.8726 40.2 90.1641 41.5164 91.7573 41.5164Z" fill="#F7D317"/>
<path d="M70.4971 36.123C57.6886 42.0332 53.752 40.1473 53.752 40.1473C49.0798 35.7167 57.6344 32.0396 58.0602 31.8621C57.9634 31.9251 57.8744 31.9803 57.7854 32.0396L57.6111 32.158C57.3402 32.3394 57.0925 32.517 56.868 32.6945C56.8075 32.7373 56.7494 32.7834 56.6938 32.8326C56.5041 32.9864 56.3299 33.1364 56.1789 33.2863C56.1132 33.3454 56.0512 33.4047 55.9932 33.4678C55.9428 33.519 55.8926 33.5704 55.8461 33.6216C55.8385 33.6285 55.832 33.6365 55.8267 33.6453C55.7725 33.7044 55.7222 33.7598 55.6758 33.8189C55.6254 33.8742 55.5828 33.9333 55.5402 33.9885C55.4784 34.0675 55.4242 34.1464 55.3738 34.2214C55.3427 34.2668 55.3142 34.3143 55.2887 34.3634C55.2655 34.3989 55.2461 34.4383 55.2268 34.4738C55.1121 34.6753 55.0286 34.8935 54.979 35.1209C54.9674 35.1643 54.9597 35.2116 54.9519 35.2551C54.9443 35.2887 54.9403 35.3231 54.9403 35.3576C54.9372 35.3837 54.9359 35.4101 54.9365 35.4366C54.9339 35.7596 55.0122 36.0781 55.164 36.3618C55.3156 36.6455 55.5358 36.8852 55.8035 37.058C57.8933 37.7842 60.1038 38.0794 62.3065 37.9261C62.4304 37.9221 62.5542 37.9142 62.6743 37.9064C62.8213 37.8985 62.9684 37.8866 63.1116 37.8709C63.2472 37.8589 63.3825 37.8471 63.5142 37.8313C63.8316 37.7998 64.1413 37.7564 64.4432 37.7129C64.5787 37.6932 64.7103 37.6735 64.842 37.6499C65.0122 37.6223 65.1749 37.5947 65.3374 37.5669C65.5967 37.5196 65.8483 37.4684 66.0921 37.4132C66.7735 37.2672 67.4006 37.1055 67.9579 36.9437C68.1089 36.9002 68.2521 36.8569 68.3915 36.8135C68.6005 36.7503 68.8017 36.6833 68.9876 36.624C69.0999 36.5846 69.2083 36.5491 69.3127 36.5136C69.4328 36.4703 69.5488 36.4307 69.6573 36.3913C69.754 36.3558 69.847 36.3202 69.9359 36.2887C69.9762 36.2702 70.0176 36.2543 70.0598 36.2414C70.1411 36.2098 70.2108 36.1821 70.2805 36.1545C70.3463 36.1309 70.4043 36.1072 70.4546 36.0836L70.4971 36.123Z" fill="url(#paint20_linear_2787_18801)"/>
<path d="M62.5058 88.1072L35.9673 89.4644C35.8329 88.3312 35.4332 87.2474 34.8023 86.3043C34.5633 85.9171 34.2434 85.5887 33.8653 85.3424C33.4872 85.0962 33.0603 84.9383 32.6152 84.8799L39.6951 83.8542L51.1565 81.8696C51.1666 81.8661 51.177 81.8634 51.1876 81.8618L51.1992 81.8578L61.6194 80.0547C67.8321 82.9506 62.5058 88.1072 62.5058 88.1072Z" fill="#F7D317"/>
<path d="M51.2002 81.8579L51.188 81.8621" stroke="#231F20" stroke-miterlimit="10"/>
</g>
<defs>
<linearGradient id="paint0_linear_2787_18801" x1="12.2842" y1="114.817" x2="150.012" y2="23.6072" gradientUnits="userSpaceOnUse">
<stop offset="0.29212" stop-color="#1988A1"/>
<stop offset="0.77263" stop-color="#0B5C9A"/>
</linearGradient>
<linearGradient id="paint1_linear_2787_18801" x1="129.473" y1="37.8363" x2="31.0184" y2="112.869" gradientUnits="userSpaceOnUse">
<stop stop-color="#166E9D"/>
<stop offset="0.85787" stop-color="#26A8A0"/>
</linearGradient>
<linearGradient id="paint2_linear_2787_18801" x1="77.1629" y1="-2.29275" x2="34.1346" y2="116.823" gradientUnits="userSpaceOnUse">
<stop stop-color="#17668F"/>
<stop offset="0.17513" stop-color="#186990"/>
<stop offset="0.63127" stop-color="#2FBBA4"/>
</linearGradient>
<linearGradient id="paint3_linear_2787_18801" x1="18.2041" y1="69.062" x2="20.1568" y2="69.062" gradientUnits="userSpaceOnUse">
<stop offset="0.02841" stop-color="#F7D317"/>
<stop offset="0.20547" stop-color="#EE6A24"/>
<stop offset="0.47572" stop-color="#EF4423"/>
</linearGradient>
<linearGradient id="paint4_linear_2787_18801" x1="23.3521" y1="69.062" x2="25.3047" y2="69.062" gradientUnits="userSpaceOnUse">
<stop offset="0.02841" stop-color="#F7D317"/>
<stop offset="0.20547" stop-color="#EE6A24"/>
<stop offset="0.47572" stop-color="#EF4423"/>
</linearGradient>
<linearGradient id="paint5_linear_2787_18801" x1="19.4917" y1="46.8195" x2="23.7515" y2="46.8195" gradientUnits="userSpaceOnUse">
<stop offset="0.02841" stop-color="#F7D317"/>
<stop offset="0.20547" stop-color="#EE6A24"/>
<stop offset="0.47572" stop-color="#EF4423"/>
</linearGradient>
<linearGradient id="paint6_linear_2787_18801" x1="24.6841" y1="46.8195" x2="28.944" y2="46.8195" gradientUnits="userSpaceOnUse">
<stop offset="0.02841" stop-color="#F7D317"/>
<stop offset="0.20547" stop-color="#EE6A24"/>
<stop offset="0.47572" stop-color="#EF4423"/>
</linearGradient>
<linearGradient id="paint7_linear_2787_18801" x1="28.5005" y1="68.7237" x2="30.4514" y2="68.7237" gradientUnits="userSpaceOnUse">
<stop offset="0.02841" stop-color="#F7D317"/>
<stop offset="0.20547" stop-color="#EE6A24"/>
<stop offset="0.47572" stop-color="#EF4423"/>
</linearGradient>
<linearGradient id="paint8_linear_2787_18801" x1="28.5005" y1="89.5179" x2="30.4514" y2="89.5179" gradientUnits="userSpaceOnUse">
<stop offset="0.02841" stop-color="#F7D317"/>
<stop offset="0.20547" stop-color="#EE6A24"/>
<stop offset="0.47572" stop-color="#EF4423"/>
</linearGradient>
<linearGradient id="paint9_linear_2787_18801" x1="28.5005" y1="87.4344" x2="34.8022" y2="87.4344" gradientUnits="userSpaceOnUse">
<stop stop-color="#F7D317"/>
<stop offset="1" stop-color="#ED8422"/>
</linearGradient>
<linearGradient id="paint10_linear_2787_18801" x1="30.4517" y1="87.8842" x2="35.9675" y2="87.8842" gradientUnits="userSpaceOnUse">
<stop stop-color="#F7D317"/>
<stop offset="0.30627" stop-color="#ED8422"/>
<stop offset="0.85838" stop-color="#EF4423"/>
</linearGradient>
<linearGradient id="paint11_linear_2787_18801" x1="58.936" y1="39.4075" x2="63.2506" y2="33.3329" gradientUnits="userSpaceOnUse">
<stop stop-color="#F7D317"/>
<stop offset="0.30627" stop-color="#ED8422"/>
<stop offset="0.85838" stop-color="#EF4423"/>
</linearGradient>
<linearGradient id="paint12_linear_2787_18801" x1="37.1677" y1="104.926" x2="85.5161" y2="36.8556" gradientUnits="userSpaceOnUse">
<stop stop-color="#F7D317"/>
<stop offset="0.30627" stop-color="#ED8422"/>
<stop offset="0.85838" stop-color="#EF4423"/>
</linearGradient>
<linearGradient id="paint13_linear_2787_18801" x1="33.5674" y1="100.806" x2="62.9145" y2="46.7186" gradientUnits="userSpaceOnUse">
<stop stop-color="#F7D317"/>
<stop offset="1" stop-color="#ED8422"/>
</linearGradient>
<linearGradient id="paint14_linear_2787_18801" x1="88.7231" y1="87.204" x2="94.1927" y2="87.204" gradientUnits="userSpaceOnUse">
<stop stop-color="#F7D317"/>
<stop offset="0.30627" stop-color="#ED8422"/>
<stop offset="0.85838" stop-color="#EF4423"/>
</linearGradient>
<linearGradient id="paint15_linear_2787_18801" x1="49.9663" y1="37.012" x2="70.4968" y2="37.012" gradientUnits="userSpaceOnUse">
<stop offset="0.03378" stop-color="#EF4423"/>
<stop offset="0.56463" stop-color="#B73426"/>
</linearGradient>
<linearGradient id="paint16_linear_2787_18801" x1="62.5664" y1="54.1546" x2="105.972" y2="12.1011" gradientUnits="userSpaceOnUse">
<stop stop-color="#F7D317"/>
<stop offset="0.35865" stop-color="#ED8422"/>
<stop offset="0.56463" stop-color="#EF4423"/>
</linearGradient>
<linearGradient id="paint17_linear_2787_18801" x1="64.7782" y1="51.4523" x2="117.804" y2="-6.70783" gradientUnits="userSpaceOnUse">
<stop offset="0.02841" stop-color="#F7D317"/>
<stop offset="0.20547" stop-color="#EE6A24"/>
<stop offset="0.47572" stop-color="#EF4423"/>
</linearGradient>
<linearGradient id="paint18_linear_2787_18801" x1="72.6615" y1="36.2193" x2="70.4951" y2="11.8457" gradientUnits="userSpaceOnUse">
<stop stop-color="#EF4423"/>
<stop offset="0.45178" stop-color="#ED8422"/>
</linearGradient>
<linearGradient id="paint19_linear_2787_18801" x1="69.751" y1="28.0083" x2="79.2793" y2="28.0083" gradientUnits="userSpaceOnUse">
<stop stop-color="#ED8422"/>
<stop offset="1" stop-color="#F7D317"/>
</linearGradient>
<linearGradient id="paint20_linear_2787_18801" x1="52.3603" y1="36.1478" x2="70.4971" y2="36.1478" gradientUnits="userSpaceOnUse">
<stop offset="0.27743" stop-color="#ED8422"/>
<stop offset="0.56463" stop-color="#EF4423"/>
</linearGradient>
<clipPath id="clip0_2787_18801">
<rect width="117" height="117" fill="white"/>
</clipPath>
</defs>
</svg>
