<svg width="115" height="117" viewBox="0 0 115 117" fill="none" xmlns="http://www.w3.org/2000/svg">
<path fill-rule="evenodd" clip-rule="evenodd" d="M114.874 57.053C114.882 56.6616 114.885 56.2692 114.885 55.8759C114.89 50.1523 114.11 44.4571 112.569 38.9609C106.659 55.4837 94.82 68.9986 79.5257 76.6815C64.2316 84.3645 46.6657 85.6208 30.499 80.1884C39.929 85.6542 50.5576 88.5093 61.3607 88.4787C84.4511 88.4787 104.541 75.7767 114.874 57.053Z" fill="url(#paint0_linear_2787_18809)"/>
<path fill-rule="evenodd" clip-rule="evenodd" d="M114.961 71.0464C113.222 77.8053 110.363 84.199 106.511 89.9415C97.279 95.668 86.6989 98.6335 75.942 98.5096C57.4237 98.5096 41.3285 90.3086 33.1509 78.2504C44.1429 85.1581 56.7802 88.7371 69.6323 88.5825C88.0847 88.5825 104.497 81.712 114.961 71.0464Z" fill="url(#paint1_linear_2787_18809)"/>
<path fill-rule="evenodd" clip-rule="evenodd" d="M100.102 100.311C94.562 102.071 88.8002 102.963 83.0066 102.958C50.2617 102.958 23.7161 74.8749 23.7161 40.2336C23.6786 25.5684 28.5579 11.3457 37.5186 0C26.5145 4.37852 17.0437 12.1038 10.3483 22.1626C3.65297 32.2212 0.0457964 44.1436 0 56.3658C0 89.8235 26.5453 116.947 59.2903 116.947C74.4391 116.985 89.033 111.037 100.102 100.311Z" fill="url(#paint2_linear_2787_18809)"/>
<path d="M68.4515 50.5899L68.4476 50.6024C68.1242 51.4398 67.7318 52.2468 67.2747 53.0142C65.5205 56.3612 63.1371 59.3096 60.2652 61.6851C59.3215 62.4922 58.3317 63.2396 57.3011 63.9232C53.4347 66.6134 49.1714 68.6326 44.6787 69.901L37.1787 71.6054C32.6528 72.6001 28.2601 74.1616 24.0975 76.2553C19.4629 78.3603 15.0644 80.985 10.9805 84.0823C23.8662 72.648 28.1348 70.7532 35.0724 68.9827C39.4153 67.9096 43.6713 66.4891 47.8025 64.734C51.5853 63.0649 54.9562 60.5323 57.6643 57.3249C57.7839 57.18 57.8996 57.0394 58.0154 56.8946C62.2679 51.5704 61.7853 47.8595 61.7853 47.8595C61.7853 47.8595 61.6895 42.3451 58.2707 39.623C56.3079 38.0591 53.2479 37.4139 48.4886 39.2589C37.4661 43.5364 30.4606 55.9721 28.5418 59.7325C30.2954 56.017 32.3591 52.4679 34.7093 49.1254C35.1363 48.5711 35.5471 48.0333 35.9461 47.5245C38.8798 43.738 42.2221 40.3124 45.9075 37.3146C46.9887 36.4376 48.0858 35.5605 49.0711 34.8035C51.949 32.8053 55.0519 31.1797 58.3105 29.9633C58.824 29.8042 59.35 29.6921 59.8824 29.6281C61.594 29.2845 63.3671 29.5346 64.9281 30.3399C66.489 31.1451 67.751 32.4607 68.5193 34.0837C68.8846 34.8591 69.1721 35.6714 69.3771 36.5079C70.551 41.1816 70.2261 46.1246 68.4515 50.5899Z" fill="url(#paint3_linear_2787_18809)"/>
<path d="M58.0151 56.8946C57.8994 57.0394 57.7838 57.18 57.6641 57.3249C54.9561 60.5323 51.5852 63.0649 47.8024 64.734C43.6712 66.4892 39.4152 67.9096 35.0723 68.9827C28.1347 70.7532 23.8662 72.648 10.9805 84.0823C10.9662 84.0921 10.9529 84.1032 10.9406 84.1155L10.9326 84.1196C11.1879 83.8134 19.4939 73.9386 23.547 71.4192C27.1536 69.4136 30.9186 67.7307 34.8011 66.3888C40.8108 64.738 46.4196 61.7982 51.2652 57.7592C59.1323 51.1195 54.8317 44.1942 54.8317 44.1942C54.8317 44.1942 51.8436 39.925 44.3437 44.761C42.0384 46.1713 39.8065 47.7069 37.6575 49.3613C36.9408 49.978 36.2638 50.6427 35.6308 51.3511C35.6221 51.36 35.6128 51.3683 35.603 51.3759L35.587 51.3884L35.575 51.3966C35.1242 51.7897 33.2811 53.5974 28.0271 60.804C28.028 60.7952 28.0306 60.7867 28.0351 60.7791C28.0459 60.7593 28.0552 60.7384 28.063 60.7171C28.0709 60.7005 28.0829 60.6798 28.0949 60.6551C28.1507 60.5351 28.2385 60.3448 28.3582 60.1007C28.3902 60.0386 28.422 59.9724 28.454 59.9063C28.4819 59.8525 28.5098 59.7945 28.5417 59.7325C30.4606 55.9721 37.466 43.5364 48.4887 39.2589C53.248 37.4139 56.3078 38.0593 58.2706 39.623C61.6894 42.3451 61.7852 47.8595 61.7852 47.8595C61.7852 47.8595 62.2678 51.5704 58.0151 56.8946Z" fill="url(#paint4_linear_2787_18809)"/>
<path d="M67.7012 21.2675C67.7025 22.2696 67.5041 23.261 67.1188 24.1798C66.9786 24.5155 66.8132 24.8392 66.624 25.1479C65.7428 25.4753 64.8367 25.7257 63.9152 25.8967L63.9074 25.9008C54.5921 27.5845 54.8794 17.085 54.8794 17.085C55.5317 16.1242 56.3967 15.3394 57.4018 14.7967C58.4069 14.2541 59.5228 13.9691 60.656 13.9658C62.5092 14.0138 64.2739 14.7983 65.5852 16.1573C66.8964 17.5162 67.654 19.3457 67.7012 21.2675Z" fill="url(#paint5_linear_2787_18809)"/>
<path d="M66.6242 25.1478C65.9909 26.1964 65.1108 27.0608 64.0669 27.6599C63.0229 28.2591 61.8493 28.5733 60.6562 28.5732C60.5485 28.5732 60.4448 28.569 60.337 28.5649C59.2095 28.5167 58.1099 28.187 57.1313 27.604C56.1528 27.0211 55.3245 26.2019 54.7164 25.2161C54.1084 24.2302 53.7386 23.1069 53.6384 21.9412C53.5385 20.7756 53.711 19.6022 54.1415 18.5205C54.3364 18.0156 54.584 17.5343 54.8796 17.085C54.8796 17.085 54.5923 27.5845 63.9075 25.9008L63.9155 25.8966C64.8369 25.7256 65.743 25.4752 66.6242 25.1478Z" fill="url(#paint6_linear_2787_18809)"/>
<path d="M48.6066 85.5032C48.6068 87.1605 48.1328 88.7808 47.245 90.159C46.3571 91.5371 45.095 92.6112 43.6184 93.2455C42.1418 93.8799 40.5169 94.0458 38.9493 93.7226C37.3818 93.3992 35.9419 92.601 34.8117 91.4292C33.6814 90.2571 32.9119 88.764 32.6001 87.1384C32.2883 85.5129 32.4484 83.8279 33.0601 82.2967C33.6718 80.7655 34.7076 79.4567 36.0365 78.5361C37.3656 77.6152 38.928 77.1239 40.5262 77.124C42.6522 77.1804 44.6761 78.0814 46.1798 79.6407C47.6835 81.2001 48.5523 83.2987 48.6066 85.5032Z" fill="#F7D317"/>
<path d="M10.4219 64.8149L10.4136 64.8236" stroke="black" stroke-miterlimit="10"/>
<path d="M82.5698 68.11C82.5219 68.5568 82.4781 69.0034 82.4581 69.4502C81.9026 73.1931 80.5715 76.7667 78.5564 79.9248C74.8303 86.2213 66.0178 95.5418 65.4992 96.0921C65.4932 96.0951 65.4878 96.0994 65.4832 96.1045C71.4554 87.508 75.72 80.0491 75.72 80.0491C81.8198 69.1732 76.0871 64.8708 76.0871 64.8708C76.0871 64.8708 73.5258 62.5954 68.1561 63.3525C62.7904 64.1137 60.5644 61.9625 60.5644 61.9625C60.4599 61.8757 60.36 61.7832 60.2651 61.6853C63.1369 59.3099 65.5204 56.3614 67.2744 53.0143C67.7317 52.2469 68.124 51.44 68.4473 50.6025C68.1791 51.6907 68.0874 52.8175 68.176 53.9369C68.2742 54.7648 68.6429 55.5329 69.2207 56.1132C69.7985 56.6936 70.5505 57.0511 71.3516 57.1265C73.5378 57.3499 77.6389 58.169 79.5936 60.3822C81.5234 62.4546 82.5921 65.2293 82.5698 68.11Z" fill="url(#paint7_linear_2787_18809)"/>
<path d="M86.3201 67.969C86.1409 71.4875 84.8609 74.8496 82.6739 77.5459C77.5192 84.2696 71.7694 90.4787 65.4995 96.0918C66.0181 95.5416 74.8306 86.2211 78.5567 79.9247C80.5718 76.7665 81.9029 73.1929 82.4584 69.4501C82.4784 69.0033 82.5222 68.5565 82.5701 68.1097C82.5924 65.229 81.5237 62.4543 79.594 60.3819C77.6393 58.1687 73.5381 57.3496 71.3519 57.1263C70.5508 57.0508 69.7988 56.6933 69.221 56.1129C68.6432 55.5326 68.2745 54.7646 68.1763 53.9366C68.0877 52.8172 68.1794 51.6904 68.4476 50.6023L68.4516 50.5898C69.0259 51.3856 69.7497 52.0526 70.5794 52.5502C71.4089 53.048 72.3272 53.3662 73.2788 53.4857C73.3346 53.4899 73.3865 53.494 73.4384 53.494C76.9777 53.7001 80.3009 55.326 82.705 58.0274C85.109 60.7288 86.4054 64.294 86.3201 67.969Z" fill="url(#paint8_linear_2787_18809)"/>
<path d="M98.647 8.47217C97.7853 11.8892 92.6629 16.4358 83.8903 21.6152C83.6469 21.7599 83.4076 21.9048 83.1722 22.0495C77.2804 25.728 72.7285 31.3254 70.2266 37.9684L69.8516 38.953C69.7376 38.1294 69.5791 37.3131 69.3768 36.5081C69.1718 35.6716 68.8844 34.8593 68.519 34.0838C71.3069 28.5327 75.7245 24.0444 81.1335 21.2677C94.3424 15.3726 97.8171 10.0649 98.5033 8.76178C98.5232 8.7287 98.5391 8.6956 98.5551 8.66665L98.5591 8.65836C98.5741 8.63028 98.5874 8.60127 98.5989 8.57149C98.6167 8.5393 98.6327 8.50615 98.647 8.47217Z" fill="url(#paint9_linear_2787_18809)"/>
<path d="M98.5033 8.76172C97.8172 10.0649 94.3425 15.3725 81.1336 21.2677C75.7246 24.0444 71.307 28.5326 68.5192 34.0837C68.0351 32.9812 67.3064 32.0132 66.3926 31.2586C65.4788 30.504 64.4058 29.9844 63.2612 29.742C63.2612 29.742 63.6111 29.1729 63.6997 29.0352C63.867 28.7362 64.0665 28.4578 64.2942 28.2052C64.4162 28.0709 65.0184 27.4463 65.1023 27.3357C65.1023 27.3357 65.5212 26.9722 66.8289 25.5215C66.6892 25.8567 67.0677 25.2566 66.8289 25.5215C68.5868 23.9629 70.5504 22.6725 72.6601 21.6895C73.5219 21.3544 74.3676 20.9986 75.2094 20.6223C76.6575 19.9769 79.9887 18.6075 86.8184 16.3033C95.3757 13.4157 97.9209 9.80422 98.5033 8.76172Z" fill="url(#paint10_linear_2787_18809)"/>
<defs>
<linearGradient id="paint0_linear_2787_18809" x1="12.0744" y1="114.817" x2="148.862" y2="25.7788" gradientUnits="userSpaceOnUse">
<stop offset="0.29212" stop-color="#1988A1"/>
<stop offset="0.77263" stop-color="#0B5C9A"/>
</linearGradient>
<linearGradient id="paint1_linear_2787_18809" x1="127.26" y1="37.8363" x2="29.2677" y2="111.24" gradientUnits="userSpaceOnUse">
<stop stop-color="#166E9D"/>
<stop offset="0.85787" stop-color="#26A8A0"/>
</linearGradient>
<linearGradient id="paint2_linear_2787_18809" x1="75.8438" y1="-2.29273" x2="32.2438" y2="116.343" gradientUnits="userSpaceOnUse">
<stop stop-color="#17668F"/>
<stop offset="0.17513" stop-color="#186990"/>
<stop offset="0.63127" stop-color="#2FBBA4"/>
</linearGradient>
<linearGradient id="paint3_linear_2787_18809" x1="15.1901" y1="92.6636" x2="92.5504" y2="9.89545" gradientUnits="userSpaceOnUse">
<stop stop-color="#F7D317"/>
<stop offset="0.47087" stop-color="#ED8422"/>
<stop offset="0.85838" stop-color="#EF4423"/>
</linearGradient>
<linearGradient id="paint4_linear_2787_18809" x1="26.398" y1="82.3066" x2="59.1426" y2="38.0251" gradientUnits="userSpaceOnUse">
<stop offset="0.68203" stop-color="#F7D317"/>
<stop offset="1" stop-color="#ED8422"/>
</linearGradient>
<linearGradient id="paint5_linear_2787_18809" x1="54.8687" y1="28.7998" x2="66.594" y2="14.543" gradientUnits="userSpaceOnUse">
<stop stop-color="#ED8422"/>
<stop offset="1" stop-color="#F7D317"/>
</linearGradient>
<linearGradient id="paint6_linear_2787_18809" x1="51.2904" y1="31.5245" x2="61.42" y2="21.2678" gradientUnits="userSpaceOnUse">
<stop stop-color="#EF4423"/>
<stop offset="0.45178" stop-color="#ED8422"/>
</linearGradient>
<linearGradient id="paint7_linear_2787_18809" x1="58.4002" y1="90.0015" x2="94.2862" y2="31.8284" gradientUnits="userSpaceOnUse">
<stop stop-color="#F7D317"/>
<stop offset="0.35865" stop-color="#ED8422"/>
<stop offset="0.56463" stop-color="#EF4423"/>
</linearGradient>
<linearGradient id="paint8_linear_2787_18809" x1="65.0527" y1="98.645" x2="89.0056" y2="29.2233" gradientUnits="userSpaceOnUse">
<stop offset="0.02841" stop-color="#F7D317"/>
<stop offset="0.20547" stop-color="#EE6A24"/>
<stop offset="0.47572" stop-color="#EF4423"/>
</linearGradient>
<linearGradient id="paint9_linear_2787_18809" x1="66.0373" y1="39.9478" x2="107.928" y2="-1.91386" gradientUnits="userSpaceOnUse">
<stop offset="0.03378" stop-color="#EF4423"/>
<stop offset="0.56463" stop-color="#B73426"/>
</linearGradient>
<linearGradient id="paint10_linear_2787_18809" x1="57.6567" y1="39.6251" x2="102.889" y2="2.66967" gradientUnits="userSpaceOnUse">
<stop offset="0.27743" stop-color="#ED8422"/>
<stop offset="0.56463" stop-color="#EF4423"/>
</linearGradient>
</defs>
</svg>
