<svg width="116" height="117" viewBox="0 0 116 117" fill="none" xmlns="http://www.w3.org/2000/svg">
<path fill-rule="evenodd" clip-rule="evenodd" d="M115.873 57.0528C115.881 56.6613 115.884 56.269 115.884 55.8757C115.889 50.1521 115.102 44.4568 113.548 38.9607C107.587 55.4834 95.6444 68.9983 80.2172 76.6813C64.79 84.3642 47.0714 85.6207 30.7642 80.1883C40.2762 85.654 50.9971 88.5092 61.8942 88.4786C85.1854 88.4786 105.45 75.7764 115.873 57.0528Z" fill="url(#paint0_linear_2787_18805)"/>
<path fill-rule="evenodd" clip-rule="evenodd" d="M115.961 71.0459C114.207 77.8048 111.323 84.1985 107.438 89.941C98.1253 95.6676 87.4532 98.633 76.6028 98.5093C57.9235 98.5093 41.6882 90.3082 33.4395 78.2501C44.5271 85.1577 57.2743 88.7368 70.2381 88.582C88.8509 88.582 105.406 81.7116 115.961 71.0459Z" fill="url(#paint1_linear_2787_18805)"/>
<path fill-rule="evenodd" clip-rule="evenodd" d="M100.972 100.311C95.3842 102.071 89.5724 102.963 83.7284 102.958C50.6987 102.958 23.9224 74.875 23.9224 40.2336C23.8845 25.5684 28.8062 11.3457 37.8448 0C26.7451 4.37852 17.1919 12.1038 10.4383 22.1626C3.68471 32.2213 0.0461857 44.1437 0 56.3659C0 89.8236 26.7761 116.947 59.8058 116.947C75.0864 116.985 89.8072 111.037 100.972 100.311Z" fill="url(#paint2_linear_2787_18805)"/>
<path d="M72.8335 64.9245C71.0969 69.0375 68.3326 72.6047 64.8212 75.2643C61.8795 77.5493 58.5871 79.313 55.0799 80.4822C44.4561 84.1426 42.179 88.4536 42.179 88.4536C42.1663 88.1597 42.1917 87.8654 42.2547 87.5786C45.7128 82.9424 55.4586 77.7153 60.0708 74.8382C60.8242 74.3707 61.5462 73.852 62.2321 73.2852C64.1451 71.6982 65.7151 69.7187 66.8423 67.4731C67.9694 65.2274 68.6288 62.7648 68.7784 60.2425C68.782 60.206 68.7835 60.1692 68.7828 60.1325C68.7873 58.1306 65.9264 54.3098 63.8408 51.7856C65.1465 51.7031 66.5992 51.561 68.0653 51.3274H68.0698C75.6988 59.1704 72.8335 64.9245 72.8335 64.9245Z" fill="url(#paint3_linear_2787_18805)"/>
<path d="M63.0078 50.7961C61.818 51.135 60.392 51.5061 58.6942 51.8955C58.6942 51.8955 59.0508 51.9094 59.6657 51.9094H59.6879C60.6059 51.9185 62.0944 51.9047 63.8412 51.7857C65.9268 54.3099 68.7876 58.1307 68.7832 60.1326C68.7839 60.1694 68.7824 60.2061 68.7788 60.2426C68.6292 62.7649 67.9698 65.2275 66.8427 67.4731C65.7155 69.7188 64.1454 71.6983 62.2325 73.2853C61.5466 73.852 60.8246 74.371 60.0712 74.8383C55.459 77.7154 45.7132 82.9425 42.2551 87.5787C42.5359 86.0806 43.8014 82.86 49.2648 79.4882C56.7602 74.8658 58.3957 72.2041 58.3957 72.2041C67.6602 58.9002 55.6685 55.4003 55.6685 55.4003C55.6685 55.4003 41.3638 70.2433 29.5102 75.5667C18.0264 80.7251 15.7538 87.9818 15.6201 88.4308C17.0951 80.9267 24.742 75.805 26.0789 74.962C26.2438 74.8612 26.4042 74.7512 26.5647 74.6413L29.6796 72.4469C32.5807 70.4084 35.249 68.0402 37.634 65.3872C38.1732 64.7917 38.7079 64.1961 39.1847 63.6647C40.0677 62.7051 41.0004 61.7951 41.9789 60.9388C44.2827 58.8681 47.3218 53.9296 48.7568 51.4786C49.4011 50.3766 50.2068 49.3829 51.1453 48.5329C52.192 47.5571 53.3379 46.7001 54.5633 45.9766C56.3472 44.9929 57.8649 43.5681 58.9793 41.8307C64.9017 32.2513 59.2824 21.7603 59.2824 21.7603C67.8116 22.0169 73.2438 30.1851 73.2438 30.1851C73.2438 30.1851 79.9282 41.2534 68.6138 48.6749C68.2156 48.9225 67.7966 49.1326 67.3616 49.3026C67.2947 49.3352 67.2263 49.3642 67.1566 49.3896C66.8981 49.4996 66.595 49.6187 66.2475 49.747C66.0871 49.8065 65.9133 49.8706 65.7305 49.9348C64.9999 50.1914 64.1041 50.48 63.0078 50.7961Z" fill="url(#paint4_linear_2787_18805)"/>
<path d="M77.5706 39.1507C77.5216 39.3889 77.4681 39.6225 77.4101 39.8516C77.4094 39.8658 77.4063 39.8797 77.4012 39.8929C77.3522 40.0899 77.3033 40.2822 77.2453 40.4701V40.4746C77.2185 40.5663 77.1873 40.6579 77.1605 40.7449C77.1294 40.8595 77.0892 40.9694 77.0492 41.0793C77.0268 41.1573 77.0001 41.2305 76.9733 41.2993C76.9199 41.4596 76.8576 41.62 76.7952 41.7757C76.755 41.8765 76.715 41.9773 76.6704 42.0781C76.608 42.2293 76.5456 42.3804 76.4743 42.527C76.4075 42.669 76.3406 42.8065 76.2693 42.9439C76.2292 43.0318 76.1845 43.1174 76.1356 43.2005C75.7326 43.9635 75.2564 44.6834 74.7141 45.3491C74.6027 45.4819 74.4913 45.6147 74.3798 45.743C74.3743 45.7482 74.3698 45.7544 74.3664 45.7614C74.2328 45.9125 74.0991 46.0591 73.961 46.1966C73.8495 46.3157 73.7336 46.4302 73.6179 46.5402C73.6082 46.5546 73.5961 46.5669 73.5821 46.5768C73.5287 46.6318 73.4708 46.6867 73.4084 46.7417C73.2881 46.8563 73.1588 46.9708 73.0341 47.0807C72.8959 47.1999 72.7578 47.3144 72.6152 47.4289C72.3032 47.6855 71.9779 47.9237 71.6482 48.1482L71.2605 48.4093C71.2203 48.4368 71.1803 48.4596 71.1401 48.4871C70.9753 48.5879 70.8059 48.6933 70.6322 48.7941C70.4717 48.8904 70.3069 48.9819 70.1419 49.069C70.1092 49.09 70.0749 49.1083 70.0395 49.124C69.8879 49.2065 69.7364 49.2843 69.5805 49.3621C69.2374 49.5362 68.8897 49.6967 68.5377 49.8433C68.4397 49.8891 68.3372 49.9348 68.2392 49.9715C68.0787 50.0403 67.9183 50.1044 67.7578 50.1639C67.5885 50.2327 67.4192 50.2922 67.2499 50.3517C67.1162 50.4022 66.9779 50.448 66.8443 50.4938C66.4744 50.6221 66.1001 50.7366 65.7257 50.8419C65.5387 50.8969 65.3515 50.9473 65.1643 50.9931C64.9816 51.0436 64.7944 51.0894 64.6074 51.1352C64.4246 51.181 64.2374 51.2222 64.0547 51.2634C63.8675 51.3047 63.6849 51.3413 63.4977 51.378C63.2972 51.4192 63.0966 51.4558 62.8961 51.4925C62.5841 51.5475 62.2766 51.5979 61.9692 51.6437C61.6617 51.6894 61.3586 51.7307 61.0646 51.7674L60.61 51.8224H60.5878C60.4363 51.8407 60.2892 51.8544 60.1377 51.8682C59.9862 51.8819 59.8346 51.8957 59.6876 51.9094H59.6653C59.0504 51.9094 58.6938 51.8956 58.6938 51.8956C60.3917 51.5062 61.8176 51.1352 63.0075 50.7961C64.1037 50.48 64.9995 50.1914 65.7303 49.9348C65.913 49.8707 66.0868 49.8065 66.2473 49.747C66.5948 49.6187 66.8978 49.4996 67.1563 49.3896C67.226 49.3643 67.2944 49.3353 67.3613 49.3026C67.7963 49.1326 68.2153 48.9225 68.6135 48.6749C79.9279 41.2535 73.2435 30.1852 73.2435 30.1852C73.2435 30.1852 67.8113 22.0169 59.2821 21.7603C57.7854 21.7192 56.2913 21.9154 54.8526 22.3421C43.8146 25.5673 42.1791 39.1506 42.1791 39.1506C42.1791 39.1506 41.8092 15.3833 64.6965 20.0058C64.6965 20.0058 80.6365 24.0464 77.5706 39.1507Z" fill="url(#paint5_linear_2787_18805)"/>
<path d="M84.6114 21.7512C83.9758 22.5937 83.1764 23.2909 82.2642 23.7981C81.3519 24.3053 80.3467 24.6113 79.313 24.6969C79.1124 24.7153 78.9075 24.7244 78.6979 24.7244C76.7959 24.7233 74.9653 23.9786 73.5776 22.6413C72.1897 21.3039 71.3487 19.474 71.2249 17.5227C71.2114 17.3578 71.207 17.1929 71.207 17.0234C71.2067 15.6207 71.5788 14.2445 72.2831 13.0433C72.9876 11.842 73.9976 10.8612 75.2043 10.2065C75.2043 10.2065 69.9905 24.3395 84.6114 21.7512Z" fill="url(#paint6_linear_2787_18805)"/>
<path d="M86.1934 17.0235C86.196 18.737 85.639 20.4019 84.6115 21.7513C69.9906 24.3396 75.2043 10.2066 75.2043 10.2066C76.3465 9.58774 77.6249 9.2827 78.9156 9.3211C80.2063 9.3595 81.4653 9.74005 82.5708 10.4258C83.6764 11.1116 84.5907 12.0794 85.2254 13.2353C85.8601 14.3912 86.1936 15.6961 86.1934 17.0235Z" fill="url(#paint7_linear_2787_18805)"/>
<path d="M97.7115 86.553C99.3198 86.553 100.624 85.2127 100.624 83.5592C100.624 81.9058 99.3198 80.5654 97.7115 80.5654C96.1032 80.5654 94.7993 81.9058 94.7993 83.5592C94.7993 85.2127 96.1032 86.553 97.7115 86.553Z" fill="#F7D317"/>
<path fill-rule="evenodd" clip-rule="evenodd" d="M58.9793 41.8307C57.8649 43.5682 56.3472 44.993 54.5633 45.9767C53.3379 46.7002 52.192 47.5572 51.1453 48.533C50.2068 49.3831 49.4012 50.3766 48.7568 51.4787C47.3218 53.9297 44.2827 58.8683 41.9789 60.939C41.0004 61.7953 40.0677 62.7052 39.1847 63.6648C38.7079 64.1962 38.1732 64.7917 37.634 65.3873C35.249 68.0404 32.5807 70.4085 29.6796 72.447L26.5647 74.6413C26.4042 74.7513 26.2438 74.8613 26.0789 74.9621C24.7421 75.805 17.0951 80.9268 15.6201 88.4309C15.6201 88.44 15.6157 88.4447 15.6157 88.4537C15.6379 88.0095 15.6781 87.5742 15.736 87.1573C16.2402 83.6063 17.8709 80.3257 20.3749 77.8254C25.5308 72.5937 31.4175 66.8854 31.4175 66.8854C31.4175 66.8854 39.0466 59.1799 42.3175 53.1602C43.209 51.5139 44.1848 49.9174 45.2408 48.3773C46.8882 46.0141 48.8973 43.941 51.1899 42.2386C61.6754 34.281 54.8529 22.3423 54.8529 22.3423C56.2916 21.9156 57.7856 21.7194 59.2824 21.7605C59.2824 21.7605 64.9017 32.2514 58.9793 41.8307Z" fill="url(#paint8_linear_2787_18805)"/>
<path fill-rule="evenodd" clip-rule="evenodd" d="M82.2498 37.4739C81.6046 40.9365 79.9433 44.1128 77.4895 46.5756C75.0358 49.0383 71.9072 50.6696 68.5245 51.2497C68.3731 51.2772 68.2216 51.3 68.07 51.3275H68.0655C66.5994 51.5611 65.1467 51.7032 63.841 51.7857C62.0942 51.9047 60.6057 51.9185 59.6878 51.9094C59.8349 51.8956 59.9864 51.8819 60.138 51.8682C60.2895 51.8544 60.4365 51.8407 60.5879 51.8224H60.6103L61.0649 51.7674C61.3589 51.7307 61.662 51.6895 61.9694 51.6437C62.2769 51.5978 62.5843 51.5474 62.8963 51.4925C63.0968 51.4558 63.2974 51.4191 63.4979 51.378C63.6851 51.3413 63.8678 51.3047 64.055 51.2634C64.2376 51.2222 64.4248 51.181 64.6075 51.1352C64.7947 51.0894 64.9819 51.0435 65.1645 50.9931C65.3517 50.9473 65.5389 50.8969 65.726 50.8419C66.1004 50.7366 66.4746 50.6221 66.8446 50.4938C66.9782 50.448 67.1164 50.4022 67.2501 50.3517C67.4195 50.2922 67.5887 50.2327 67.7581 50.1639C67.9185 50.1044 68.079 50.0402 68.2394 49.9715C68.3374 49.9348 68.4399 49.8891 68.5379 49.8433C68.89 49.6967 69.2376 49.5362 69.5807 49.3621C69.7367 49.2843 69.8882 49.2064 70.0397 49.124C70.0751 49.1083 70.1094 49.0899 70.1422 49.069C70.3071 48.9818 70.472 48.8903 70.6324 48.794C70.8062 48.6932 70.9755 48.5879 71.1404 48.4871C71.1804 48.4597 71.2206 48.4368 71.2607 48.4093L71.6485 48.1482C71.9781 47.9237 72.3034 47.6854 72.6154 47.4288C72.758 47.3144 72.8961 47.1999 73.0342 47.0807C73.159 46.9708 73.2883 46.8563 73.4086 46.7416C73.471 46.6868 73.5289 46.6318 73.5824 46.5768C73.5964 46.5669 73.6085 46.5546 73.618 46.5402C73.7339 46.4302 73.8498 46.3157 73.9611 46.1966C74.0994 46.0591 74.2331 45.9125 74.3666 45.7613C74.3701 45.7544 74.3746 45.7482 74.3801 45.743C74.4914 45.6147 74.6029 45.4819 74.7143 45.3491C75.2567 44.6834 75.7329 43.9635 76.1358 43.2005C76.1848 43.1174 76.2294 43.0318 76.2695 42.9439C76.3408 42.8065 76.4076 42.669 76.4745 42.527C76.5459 42.3804 76.6083 42.2292 76.6705 42.0781C76.7152 41.9773 76.7598 41.8765 76.7954 41.7757C76.8578 41.62 76.9201 41.4596 76.9736 41.2993C77.0003 41.2305 77.0271 41.1573 77.0494 41.0793C77.0895 40.9694 77.1296 40.8595 77.1608 40.7449C77.1875 40.6579 77.2188 40.5663 77.2455 40.4746V40.4701C77.3034 40.2822 77.3525 40.0899 77.4014 39.8928C77.4066 39.8796 77.4095 39.8658 77.4104 39.8516C77.4684 39.6225 77.5218 39.3889 77.5708 39.1506C80.6367 24.0464 64.6968 20.0058 64.6968 20.0058C41.8095 15.3833 42.1793 39.1506 42.1793 39.1506C42.1793 39.1506 39.0466 24.445 48.721 18.4206C58.3956 12.4009 66.5684 15.6215 66.5684 15.6215C68.1849 16.0738 69.747 16.7116 71.2251 17.5227C71.3489 19.474 72.19 21.3039 73.5777 22.6413C74.9656 23.9786 76.7961 24.7233 78.6982 24.7243C78.9076 24.7243 79.1126 24.7151 79.3132 24.6968C80.1669 25.9716 80.8728 27.3446 81.4165 28.7879C82.4752 31.5471 82.7637 34.5553 82.2498 37.4739Z" fill="url(#paint9_linear_2787_18805)"/>
<path d="M89.95 80.3906C89.5103 81.0384 88.9117 81.5548 88.2147 81.8872C87.5178 82.2196 86.7476 82.3562 85.9826 82.2831C84.8973 82.2423 83.8547 81.8387 83.0127 81.1335C82.693 80.9293 82.4017 80.6812 82.1474 80.3959C79.7684 78.0203 77.3919 75.6422 75.0179 73.2618L75.0173 73.2612C74.5272 72.8128 74.0618 72.3365 73.6233 71.8346C73.1821 71.445 72.7651 71.0274 72.3747 70.5841C71.8683 70.1373 71.3919 69.6562 70.9484 69.1435C70.5957 68.7884 70.2427 68.4337 69.8897 68.0789C69.3733 67.599 68.8824 67.0911 68.4186 66.5574C66.5592 64.6842 64.8045 62.7096 63.0539 60.7309C62.0037 59.5446 60.9381 58.3727 59.8822 57.1915C59.8402 57.1321 59.8049 57.068 59.7772 57.0003C59.4185 56.7814 59.1055 56.4913 58.8569 56.1468C57.138 54.3407 55.4282 52.5257 53.7275 50.7022C53.3824 50.4128 53.0618 50.0939 52.7691 49.749C51.8028 48.7695 50.8365 47.7901 49.8702 46.8106C48.665 45.5933 47.434 44.4017 46.256 43.157C45.0271 41.8575 43.7714 40.5869 42.4888 39.3454C41.7953 38.6773 41.0491 38.0687 40.4048 37.3451L40.4042 37.3444C40.0345 36.9731 40.2852 36.6578 40.4893 36.3376C40.9209 35.6679 41.3821 35.4942 41.8729 35.8165C42.4148 36.0686 42.8681 36.4861 43.171 37.0123C43.6047 37.5635 44.0811 38.0776 44.5956 38.5496C45.4468 39.3698 46.2453 40.2478 47.0818 41.0844C47.6081 41.6103 48.1615 42.1082 48.7082 42.612C48.7496 42.6406 48.7843 42.6784 48.8098 42.7226C48.8354 42.7667 48.851 42.8162 48.8556 42.8673C49.4544 43.4386 50.0624 44 50.6494 44.5836C51.9451 45.872 53.2143 47.1896 54.5242 48.4628C55.6143 49.5216 56.6997 50.5849 57.7936 51.639C58.841 52.6487 59.9491 53.5933 61.0305 54.5663L61.1372 54.7564C61.1905 54.8135 61.2438 54.8711 61.2966 54.9282H61.2971C62.1551 55.7981 63.1492 56.5111 63.9896 57.4008L63.9902 57.4014C64.7904 58.105 65.5933 58.8064 66.3902 59.5141C69.1258 61.9452 71.7294 64.5226 74.3454 67.086C74.8064 67.5548 75.267 68.0233 75.7273 68.4917C76.1329 68.8881 76.5379 69.2843 76.9427 69.6804C77.4649 70.1554 77.9605 70.6606 78.4272 71.1933C78.8148 71.5172 79.165 71.8856 79.4713 72.291C79.7883 72.3709 79.9414 72.6601 80.1546 72.8676C80.4581 73.1626 80.7387 73.4821 81.0285 73.7917C82.1491 74.9006 83.2693 76.0102 84.3891 77.1206C84.8038 77.5735 85.279 77.9634 85.8007 78.2784H85.981C86.2189 78.2991 86.4583 78.2658 86.6825 78.1811C86.8075 78.0559 86.8937 77.8955 86.9303 77.7201C86.9668 77.5446 86.952 77.3621 86.8878 77.1952C86.7771 76.7502 86.7298 76.2911 86.7471 75.8322C86.7548 75.5286 86.8366 75.2319 86.985 74.9694C87.1333 74.7067 87.3435 74.4865 87.5961 74.3292C87.8486 74.1718 88.1357 74.0822 88.4307 74.0686C88.7258 74.055 89.0196 74.1177 89.2849 74.2512C89.5295 74.3272 89.7454 74.4791 89.903 74.686C90.2065 75.0207 90.4398 75.4159 90.5886 75.8471C90.7374 76.2783 90.7984 76.7364 90.7678 77.1929C90.9062 78.3273 90.6133 79.4729 89.95 80.3906Z" fill="#F7D317"/>
<defs>
<linearGradient id="paint0_linear_2787_18805" x1="12.1792" y1="114.817" x2="149.441" y2="24.6918" gradientUnits="userSpaceOnUse">
<stop offset="0.29212" stop-color="#1988A1"/>
<stop offset="0.77263" stop-color="#0B5C9A"/>
</linearGradient>
<linearGradient id="paint1_linear_2787_18805" x1="128.367" y1="37.836" x2="30.1392" y2="112.056" gradientUnits="userSpaceOnUse">
<stop stop-color="#166E9D"/>
<stop offset="0.85787" stop-color="#26A8A0"/>
</linearGradient>
<linearGradient id="paint2_linear_2787_18805" x1="76.5033" y1="-2.29275" x2="33.1906" y2="116.586" gradientUnits="userSpaceOnUse">
<stop stop-color="#17668F"/>
<stop offset="0.17513" stop-color="#186990"/>
<stop offset="0.63127" stop-color="#2FBBA4"/>
</linearGradient>
<linearGradient id="paint3_linear_2787_18805" x1="31.5317" y1="108.029" x2="107.67" y2="12.058" gradientUnits="userSpaceOnUse">
<stop stop-color="#F7D317"/>
<stop offset="0.35865" stop-color="#ED8422"/>
<stop offset="0.56463" stop-color="#EF4423"/>
</linearGradient>
<linearGradient id="paint4_linear_2787_18805" x1="15.6201" y1="55.0956" x2="75.2047" y2="55.0956" gradientUnits="userSpaceOnUse">
<stop stop-color="#F7D317"/>
<stop offset="0.47087" stop-color="#ED8422"/>
<stop offset="0.85838" stop-color="#EF4423"/>
</linearGradient>
<linearGradient id="paint5_linear_2787_18805" x1="42.1787" y1="35.6594" x2="77.9623" y2="35.6594" gradientUnits="userSpaceOnUse">
<stop offset="0.68203" stop-color="#F7D317"/>
<stop offset="1" stop-color="#ED8422"/>
</linearGradient>
<linearGradient id="paint6_linear_2787_18805" x1="71.207" y1="17.4654" x2="84.6114" y2="17.4654" gradientUnits="userSpaceOnUse">
<stop stop-color="#EF4423"/>
<stop offset="0.45178" stop-color="#ED8422"/>
</linearGradient>
<linearGradient id="paint7_linear_2787_18805" x1="74.3008" y1="15.6929" x2="86.1934" y2="15.6929" gradientUnits="userSpaceOnUse">
<stop stop-color="#ED8422"/>
<stop offset="1" stop-color="#F7D317"/>
</linearGradient>
<linearGradient id="paint8_linear_2787_18805" x1="15.6156" y1="55.1041" x2="61.6924" y2="55.1041" gradientUnits="userSpaceOnUse">
<stop offset="0.68203" stop-color="#F7D317"/>
<stop offset="1" stop-color="#ED8422"/>
</linearGradient>
<linearGradient id="paint9_linear_2787_18805" x1="41.6952" y1="33.3364" x2="82.4979" y2="33.3364" gradientUnits="userSpaceOnUse">
<stop offset="0.27743" stop-color="#ED8422"/>
<stop offset="0.56463" stop-color="#EF4423"/>
</linearGradient>
</defs>
</svg>
