<svg width="40" height="40" viewBox="0 0 40 40" fill="none" xmlns="http://www.w3.org/2000/svg">
<path fill-rule="evenodd" clip-rule="evenodd" d="M12.4417 1.77699C14.3967 1.68699 15.0201 1.66699 20.0001 1.66699C24.9801 1.66699 25.6034 1.68866 27.5568 1.77699C29.5101 1.86533 30.8434 2.17699 32.0101 2.62866C33.2318 3.09033 34.3401 3.81199 35.2568 4.74533C36.1901 5.66033 36.9101 6.76699 37.3701 7.99033C37.8234 9.15699 38.1334 10.4903 38.2234 12.4403C38.3134 14.3987 38.3334 15.022 38.3334 20.0003C38.3334 24.9803 38.3118 25.6037 38.2234 27.5587C38.1351 29.5087 37.8234 30.842 37.3701 32.0087C36.9101 33.2322 36.1889 34.3407 35.2568 35.257C34.3401 36.1903 33.2318 36.9103 32.0101 37.3703C30.8434 37.8237 29.5101 38.1337 27.5601 38.2237C25.6034 38.3137 24.9801 38.3337 20.0001 38.3337C15.0201 38.3337 14.3967 38.312 12.4417 38.2237C10.4917 38.1353 9.15842 37.8237 7.99175 37.3703C6.76828 36.9103 5.65978 36.1891 4.74342 35.257C3.81071 34.3414 3.08894 33.2335 2.62841 32.0103C2.17675 30.8437 1.86675 29.5103 1.77675 27.5603C1.68675 25.602 1.66675 24.9787 1.66675 20.0003C1.66675 15.0203 1.68841 14.397 1.77675 12.4437C1.86508 10.4903 2.17675 9.15699 2.62841 7.99033C3.08962 6.76713 3.81195 5.65918 4.74508 4.74366C5.66015 3.81116 6.76754 3.0894 7.99008 2.62866C9.15675 2.17699 10.4901 1.86699 12.4401 1.77699H12.4417ZM27.4084 5.07699C25.4751 4.98866 24.8951 4.97033 20.0001 4.97033C15.1051 4.97033 14.5251 4.98866 12.5917 5.07699C10.8034 5.15866 9.83342 5.45699 9.18675 5.70866C8.33175 6.04199 7.72008 6.43699 7.07842 7.07866C6.47016 7.67041 6.00205 8.3908 5.70842 9.18699C5.45675 9.83366 5.15842 10.8037 5.07675 12.592C4.98842 14.5253 4.97008 15.1053 4.97008 20.0003C4.97008 24.8953 4.98842 25.4753 5.07675 27.4087C5.15842 29.197 5.45675 30.167 5.70842 30.8137C6.00175 31.6087 6.47008 32.3303 7.07842 32.922C7.67008 33.5303 8.39175 33.9987 9.18675 34.292C9.83342 34.5437 10.8034 34.842 12.5917 34.9237C14.5251 35.012 15.1034 35.0303 20.0001 35.0303C24.8968 35.0303 25.4751 35.012 27.4084 34.9237C29.1968 34.842 30.1668 34.5437 30.8134 34.292C31.6684 33.9587 32.2801 33.5637 32.9218 32.922C33.5301 32.3303 33.9984 31.6087 34.2918 30.8137C34.5434 30.167 34.8418 29.197 34.9234 27.4087C35.0118 25.4753 35.0301 24.8953 35.0301 20.0003C35.0301 15.1053 35.0118 14.5253 34.9234 12.592C34.8418 10.8037 34.5434 9.83366 34.2918 9.18699C33.9584 8.33199 33.5634 7.72033 32.9218 7.07866C32.33 6.47045 31.6096 6.00234 30.8134 5.70866C30.1668 5.45699 29.1968 5.15866 27.4084 5.07699ZM17.6584 25.652C18.9662 26.1964 20.4224 26.2699 21.7783 25.8599C23.1342 25.4499 24.3057 24.5819 25.0928 23.4041C25.8798 22.2263 26.2335 20.8118 26.0935 19.4022C25.9535 17.9926 25.3284 16.6753 24.3251 15.6753C23.6855 15.0361 22.9121 14.5467 22.0606 14.2422C21.2092 13.9378 20.3008 13.8259 19.4009 13.9147C18.501 14.0034 17.632 14.2906 16.8564 14.7555C16.0808 15.2205 15.418 15.8516 14.9156 16.6034C14.4132 17.3553 14.0837 18.2091 13.9509 19.1036C13.8182 19.998 13.8853 20.9108 14.1476 21.7762C14.41 22.6416 14.8609 23.438 15.468 24.1082C16.075 24.7784 16.8231 25.3056 17.6584 25.652ZM13.3367 13.337C14.2118 12.462 15.2506 11.7678 16.3939 11.2943C17.5372 10.8207 18.7626 10.577 20.0001 10.577C21.2376 10.577 22.463 10.8207 23.6063 11.2943C24.7495 11.7678 25.7884 12.462 26.6634 13.337C27.5385 14.212 28.2326 15.2509 28.7061 16.3942C29.1797 17.5375 29.4235 18.7628 29.4235 20.0003C29.4235 21.2378 29.1797 22.4632 28.7061 23.6065C28.2326 24.7498 27.5385 25.7886 26.6634 26.6637C24.8962 28.4309 22.4993 29.4237 20.0001 29.4237C17.5008 29.4237 15.104 28.4309 13.3367 26.6637C11.5695 24.8964 10.5767 22.4996 10.5767 20.0003C10.5767 17.5011 11.5695 15.1042 13.3367 13.337ZM31.5134 11.9803C31.7303 11.7758 31.9039 11.5298 32.0239 11.257C32.144 10.9841 32.2081 10.6899 32.2124 10.3919C32.2168 10.0938 32.1613 9.79791 32.0492 9.52168C31.9372 9.24545 31.7708 8.99451 31.56 8.78372C31.3492 8.57294 31.0983 8.40659 30.8221 8.29452C30.5458 8.18246 30.2499 8.12695 29.9519 8.1313C29.6538 8.13564 29.3596 8.19975 29.0868 8.31982C28.8139 8.43989 28.568 8.61349 28.3634 8.83033C27.9656 9.25204 27.7478 9.8122 27.7563 10.3919C27.7647 10.9716 27.9987 11.5251 28.4087 11.9351C28.8186 12.345 29.3722 12.579 29.9519 12.5875C30.5315 12.5959 31.0917 12.3781 31.5134 11.9803Z" fill="white" fill-opacity="0.8"/>
</svg>
