<svg width="22" height="21" viewBox="0 0 22 21" fill="none" xmlns="http://www.w3.org/2000/svg">
<path d="M21.499 1.54412V19.4559C21.499 19.8654 21.3363 20.2582 21.0468 20.5477C20.7572 20.8373 20.3644 21 19.9549 21H2.04314C1.63362 21 1.24086 20.8373 0.951285 20.5477C0.661707 20.2582 0.499023 19.8654 0.499023 19.4559L0.499023 1.54412C0.499023 1.13459 0.661707 0.74184 0.951285 0.452262C1.24086 0.162683 1.63362 0 2.04314 0L19.9549 0C20.3644 0 20.7572 0.162683 21.0468 0.452262C21.3363 0.74184 21.499 1.13459 21.499 1.54412ZM6.67549 8.02941H3.58726V17.9118H6.67549V8.02941ZM6.95343 4.63235C6.95506 4.39875 6.91066 4.16712 6.82277 3.95068C6.73488 3.73424 6.60521 3.53723 6.44118 3.3709C6.27714 3.20458 6.08196 3.07219 5.86676 2.9813C5.65156 2.89041 5.42056 2.84279 5.18696 2.84118H5.13138C4.65633 2.84118 4.20073 3.02989 3.86482 3.3658C3.52891 3.70171 3.3402 4.1573 3.3402 4.63235C3.3402 5.1074 3.52891 5.563 3.86482 5.89891C4.20073 6.23482 4.65633 6.42353 5.13138 6.42353C5.36499 6.42928 5.59745 6.38894 5.81547 6.30481C6.03349 6.22069 6.2328 6.09443 6.40201 5.93325C6.57122 5.77208 6.70701 5.57914 6.80162 5.36546C6.89624 5.15179 6.94783 4.92156 6.95343 4.68794V4.63235ZM18.4108 11.9082C18.4108 8.93735 16.5208 7.78235 14.6431 7.78235C14.0284 7.75157 13.4163 7.88251 12.8679 8.16212C12.3195 8.44173 11.854 8.86023 11.5178 9.37588H11.4314V8.02941H8.52843V17.9118H11.6167V12.6556C11.572 12.1173 11.7416 11.5831 12.0885 11.1691C12.4355 10.755 12.9318 10.4946 13.4696 10.4444H13.587C14.569 10.4444 15.2978 11.0621 15.2978 12.6185V17.9118H18.3861L18.4108 11.9082Z" fill="#EC7B22"/>
</svg>
