<svg width="40" height="40" viewBox="0 0 40 40" fill="none" xmlns="http://www.w3.org/2000/svg">
<path fill-rule="evenodd" clip-rule="evenodd" d="M1.66675 4.73033C1.66675 3.91788 1.98949 3.13871 2.56398 2.56423C3.13846 1.98974 3.91764 1.667 4.73008 1.667H35.2668C35.6694 1.66634 36.0682 1.7451 36.4403 1.89877C36.8125 2.05245 37.1507 2.27801 37.4355 2.56256C37.7204 2.8471 37.9463 3.18504 38.1004 3.55701C38.2544 3.92899 38.3336 4.32771 38.3334 4.73033V35.267C38.3339 35.6697 38.2549 36.0685 38.101 36.4407C37.9472 36.8129 37.7215 37.151 37.4368 37.4359C37.1521 37.7207 36.8141 37.9466 36.442 38.1006C36.0699 38.2547 35.6711 38.3339 35.2684 38.3337H4.73008C4.32766 38.3337 3.92918 38.2544 3.55741 38.1003C3.18564 37.9463 2.84787 37.7205 2.56339 37.4359C2.27891 37.1512 2.0533 36.8133 1.89945 36.4415C1.7456 36.0696 1.66653 35.6711 1.66675 35.2687V4.73033ZM16.1801 15.647H21.1451V18.1403C21.8618 16.707 23.6951 15.417 26.4501 15.417C31.7318 15.417 32.9834 18.272 32.9834 23.5103V33.2137H27.6384V24.7037C27.6384 21.7203 26.9218 20.037 25.1018 20.037C22.5768 20.037 21.5268 21.852 21.5268 24.7037V33.2137H16.1801V15.647ZM7.01342 32.9853H12.3601V15.417H7.01342V32.9837V32.9853ZM13.1251 9.687C13.1352 10.1448 13.0537 10.6 12.8855 11.0259C12.7173 11.4517 12.4657 11.8397 12.1455 12.1671C11.8253 12.4944 11.4429 12.7545 11.0208 12.932C10.5988 13.1096 10.1455 13.201 9.68758 13.201C9.22968 13.201 8.7764 13.1096 8.35433 12.932C7.93225 12.7545 7.5499 12.4944 7.2297 12.1671C6.9095 11.8397 6.6579 11.4517 6.48968 11.0259C6.32146 10.6 6.24 10.1448 6.25008 9.687C6.26987 8.78842 6.64072 7.93332 7.28323 7.30481C7.92573 6.6763 8.78879 6.32436 9.68758 6.32436C10.5864 6.32436 11.4494 6.6763 12.0919 7.30481C12.7344 7.93332 13.1053 8.78842 13.1251 9.687Z" fill="white" fill-opacity="0.8"/>
</svg>
