<svg width="49" height="66" viewBox="0 0 49 66" fill="none" xmlns="http://www.w3.org/2000/svg">
<path d="M24.4993 15.4966C22.7162 15.4966 20.973 16.0254 19.4904 17.016C18.0077 18.0067 16.8521 19.4148 16.1697 21.0623C15.4873 22.7097 15.3088 24.5225 15.6566 26.2714C16.0045 28.0204 16.8632 29.6268 18.1241 30.8877C19.385 32.1487 20.9915 33.0073 22.7404 33.3552C24.4893 33.7031 26.3021 33.5246 27.9496 32.8422C29.597 32.1598 31.0051 31.0042 31.9958 29.5215C32.9865 28.0388 33.5153 26.2957 33.5153 24.5125C33.5126 22.1222 32.5618 19.8305 30.8716 18.1403C29.1813 16.4501 26.8897 15.4993 24.4993 15.4966ZM24.4993 29.0205C23.6077 29.0205 22.7362 28.7561 21.9948 28.2608C21.2535 27.7654 20.6757 27.0614 20.3345 26.2376C19.9933 25.4139 19.904 24.5075 20.078 23.6331C20.2519 22.7586 20.6813 21.9554 21.3117 21.3249C21.9422 20.6945 22.7454 20.2651 23.6199 20.0912C24.4943 19.9172 25.4007 20.0065 26.2245 20.3477C27.0482 20.6889 27.7522 21.2667 28.2476 22.008C28.7429 22.7494 29.0073 23.6209 29.0073 24.5125C29.0059 25.7077 28.5305 26.8535 27.6854 27.6986C26.8403 28.5437 25.6945 29.0191 24.4993 29.0205Z" fill="white"/>
<path d="M41.8239 7.17403C37.5403 2.89152 31.8222 0.347534 25.7732 0.0330653C19.7242 -0.281403 13.7731 1.65594 9.06856 5.47118C4.36399 9.28642 1.23941 14.7091 0.297877 20.6926C-0.643655 26.6762 0.664602 32.7964 3.97015 37.872L21.0028 64.0201C21.3818 64.6019 21.9001 65.08 22.5106 65.4109C23.1211 65.7418 23.8045 65.9151 24.499 65.9151C25.1934 65.9151 25.8768 65.7418 26.4873 65.4109C27.0978 65.08 27.6161 64.6019 27.9951 64.0201L45.0283 37.872C48.0955 33.1636 49.451 27.544 48.8676 21.955C48.2841 16.3661 45.7973 11.1475 41.8239 7.17403ZM41.2512 35.4114L24.499 61.1279L7.74671 35.4114C2.61889 27.5395 3.7187 17.0049 10.3618 10.3616C12.2183 8.50502 14.4223 7.03231 16.848 6.02754C19.2736 5.02277 21.8735 4.50562 24.499 4.50562C27.1246 4.50562 29.7244 5.02277 32.1501 6.02754C34.5758 7.03231 36.7798 8.50502 38.6363 10.3616C45.2793 17.0049 46.379 27.5395 41.2512 35.4114Z" fill="white"/>
</svg>
