<svg width="49" height="49" viewBox="0 0 49 49" fill="none" xmlns="http://www.w3.org/2000/svg">
<path d="M46.1417 49C40.2889 49 34.584 47.6951 29.0271 45.0854C23.4683 42.4776 18.5456 39.0294 14.259 34.741C9.97059 30.4544 6.52244 25.5317 3.91456 19.9729C1.30485 14.416 0 8.71111 0 2.85833C0 2.04167 0.272222 1.36111 0.816666 0.816666C1.36111 0.272222 2.04167 0 2.85833 0H13.8833C14.5185 0 15.0856 0.204166 15.5847 0.6125C16.0838 1.02083 16.3787 1.54259 16.4694 2.17778L18.2389 11.7056C18.3296 12.3407 18.3187 12.9188 18.2062 13.4396C18.0919 13.9623 17.8306 14.4278 17.4222 14.8361L10.8889 21.5056C12.7944 24.7722 15.1764 27.8347 18.0347 30.6931C20.8931 33.5514 24.0463 36.0241 27.4944 38.1111L33.8917 31.7139C34.3 31.3056 34.8336 30.9988 35.4923 30.7938C36.1493 30.5905 36.7954 30.5343 37.4306 30.625L46.8222 32.5306C47.4574 32.6667 47.9792 32.9725 48.3875 33.4479C48.7958 33.9252 49 34.4815 49 35.1167V46.1417C49 46.9583 48.7278 47.6389 48.1833 48.1833C47.6389 48.7278 46.9583 49 46.1417 49Z" fill="white"/>
</svg>
