<svg width="60" height="45" viewBox="0 0 60 45" fill="none" xmlns="http://www.w3.org/2000/svg">
<rect y="0.5" width="60" height="44" rx="22" fill="#EA5A26"/>
<path fill-rule="evenodd" clip-rule="evenodd" d="M25.9793 11.1663C22.9387 13.2153 22.9387 16.9623 25.9793 19.0113C28.7833 20.9011 32.8601 18.5772 32.8601 15.0888C32.8601 11.6004 28.7833 9.27648 25.9793 11.1663ZM32.4252 21.3389C31.7931 21.6261 30.8412 22.2957 30.3102 22.8266C26.0005 27.1364 29.0525 34.5087 35.1463 34.5087C41.2401 34.5087 44.2922 27.1364 39.9824 22.8266C38.0123 20.8565 34.8551 20.235 32.4252 21.3389ZM24.0558 23.6691C21.4104 24.3621 19.1974 25.5598 18.525 26.6626C18.166 27.2513 18.0017 28.0797 18.0011 29.306L18 31.092H22.32H26.6397L26.4646 30.449C25.8619 28.2389 26.0499 25.7964 26.9921 23.5905C27.2687 22.9432 26.7761 22.9564 24.0558 23.6691ZM36.2894 25.3766V26.5197H37.4325H38.5756V27.6628V28.8059H37.4325H36.2894V29.9489V31.092H35.1463H34.0032V29.9489V28.8059H32.8601H31.7171V27.6628V26.5197H32.8601H34.0032V25.3766V24.2335H35.1463H36.2894V25.3766Z" fill="white"/>
</svg>
