<svg width="60" height="44" viewBox="0 0 60 44" fill="none" xmlns="http://www.w3.org/2000/svg">
<rect width="60" height="44" rx="22" fill="#EA5A26"/>
<path fill-rule="evenodd" clip-rule="evenodd" d="M24.6667 15.3333C24.6667 13.9188 25.2286 12.5623 26.2288 11.5621C27.229 10.5619 28.5855 10 30 10C31.4145 10 32.771 10.5619 33.7712 11.5621C34.7714 12.5623 35.3333 13.9188 35.3333 15.3333C35.3333 16.7478 34.7714 18.1044 33.7712 19.1046C32.771 20.1048 31.4145 20.6667 30 20.6667C28.5855 20.6667 27.229 20.1048 26.2288 19.1046C25.2286 18.1044 24.6667 16.7478 24.6667 15.3333ZM24.6667 23.3333C22.8986 23.3333 21.2029 24.0357 19.9526 25.286C18.7024 26.5362 18 28.2319 18 30C18 31.0609 18.4214 32.0783 19.1716 32.8284C19.9217 33.5786 20.9391 34 22 34H38C39.0609 34 40.0783 33.5786 40.8284 32.8284C41.5786 32.0783 42 31.0609 42 30C42 28.2319 41.2976 26.5362 40.0474 25.286C38.7971 24.0357 37.1014 23.3333 35.3333 23.3333H24.6667Z" fill="white"/>
</svg>
