<svg width="90" height="90" viewBox="0 0 90 90" fill="none" xmlns="http://www.w3.org/2000/svg">
<path fill-rule="evenodd" clip-rule="evenodd" d="M25.3333 20.4167C25.3333 15.2007 27.4053 10.1984 31.0936 6.51023C34.7818 2.82202 39.7841 0.75 45 0.75C50.2159 0.75 55.2182 2.82202 58.9064 6.51023C62.5946 10.1984 64.6667 15.2007 64.6667 20.4167C64.6667 25.6326 62.5946 30.6349 58.9064 34.3231C55.2182 38.0113 50.2159 40.0833 45 40.0833C39.7841 40.0833 34.7818 38.0113 31.0936 34.3231C27.4053 30.6349 25.3333 25.6326 25.3333 20.4167ZM25.3333 49.9167C18.8134 49.9167 12.5606 52.5067 7.95029 57.117C3.34002 61.7272 0.75 67.9801 0.75 74.5C0.75 78.4119 2.30401 82.1637 5.07018 84.9298C7.83634 87.696 11.5881 89.25 15.5 89.25H74.5C78.4119 89.25 82.1637 87.696 84.9298 84.9298C87.696 82.1637 89.25 78.4119 89.25 74.5C89.25 67.9801 86.66 61.7272 82.0497 57.117C77.4394 52.5067 71.1866 49.9167 64.6667 49.9167H25.3333Z" fill="white"/>
</svg>
