<svg width="115" height="117" viewBox="0 0 115 117" fill="none" xmlns="http://www.w3.org/2000/svg">
<path fill-rule="evenodd" clip-rule="evenodd" d="M108.372 57.053C108.379 56.6616 108.383 56.2692 108.383 55.8758C108.387 50.1523 107.651 44.4571 106.198 38.9609C100.622 55.4837 89.4531 68.9986 75.0245 76.6815C60.5961 84.3645 44.0246 85.6208 28.7729 80.1884C37.6692 85.6542 47.6961 88.5094 57.8877 88.4788C79.6711 88.4787 98.6241 75.7766 108.372 57.053Z" fill="url(#paint0_linear_2787_18808)"/>
<path fill-rule="evenodd" clip-rule="evenodd" d="M108.454 71.0464C106.814 77.8053 104.116 84.199 100.482 89.9415C91.7726 95.668 81.7914 98.6335 71.6434 98.5096C54.1734 98.5096 38.9891 90.3086 31.2744 78.2504C41.6443 85.1581 53.5663 88.7371 65.6908 88.5825C83.0988 88.5825 98.5822 81.712 108.454 71.0464Z" fill="url(#paint1_linear_2787_18808)"/>
<path fill-rule="evenodd" clip-rule="evenodd" d="M94.4355 100.311C89.2095 102.071 83.7738 102.963 78.3082 102.958C47.4167 102.958 22.3738 74.875 22.3738 40.2336C22.3384 25.5684 26.9414 11.3457 35.395 0C25.0137 4.37852 16.079 12.1038 9.76259 22.1626C3.44621 32.2213 0.0432038 44.1436 0 56.3658C0 89.8235 25.0427 116.947 55.9342 116.947C70.2256 116.985 83.9934 111.037 94.4355 100.311Z" fill="url(#paint2_linear_2787_18808)"/>
<path d="M68.7111 28.3693C64.907 28.7259 61.3497 30.5874 58.6994 33.6082C58.5554 31.8665 58.1026 30.1727 57.3664 28.6222C49.8863 17.2642 24.8569 23.2094 24.8569 23.2094C24.8569 23.2094 33.6507 18.2129 49.9247 20.7903C56.0628 22.0161 62.0417 24.0621 67.7282 26.8831C67.9962 27.4229 68.3267 27.9224 68.7111 28.3693Z" fill="url(#paint3_linear_2787_18808)"/>
<path d="M58.4016 38.2041C63.6206 35.2816 69.6531 34.6412 75.2845 36.4121L74.992 36.7441C68.843 39.9129 63.5331 44.7571 59.5668 50.8165C58.776 52.0382 58.0523 53.3106 57.3995 54.6271C57.3995 54.6271 57.3898 54.6693 57.3755 54.743C57.3659 54.7799 57.3563 54.8221 57.3467 54.8696C57.3228 54.9592 57.2988 55.0699 57.2652 55.2016C57.246 55.2806 57.222 55.3755 57.1982 55.4704C57.1502 55.6602 57.0974 55.871 57.0351 56.1081C56.9967 56.2452 56.9583 56.3875 56.92 56.5403C56.896 56.63 56.872 56.7195 56.8432 56.8144C56.7905 57.0042 56.7377 57.1991 56.6755 57.41C56.4117 58.3324 56.0712 59.4444 55.6541 60.6567C53.9375 65.6531 50.9119 72.468 46.4047 75.8991C44.8497 77.0761 43.2378 78.16 41.5763 79.1458C36.4413 82.1904 30.9442 84.431 25.2448 85.8025C23.7728 86.1609 22.2864 86.5088 21.337 86.6933C17.4655 87.1193 13.7191 88.4374 10.3423 90.5618L10.3566 90.546C19.1889 83.1357 30.8788 84.1317 39.3323 76.2365L50.5469 46.9915L58.4016 38.2041Z" fill="url(#paint4_linear_2787_18808)"/>
<path d="M95.6633 91.69C95.6633 91.69 95.3181 92.022 94.1338 91.3948L94.1241 91.3895C88.1113 84.6537 83.1534 75.3301 78.9148 68.9897C70.9984 57.1414 57.0356 56.1084 57.0356 56.1084C57.098 55.8712 57.1508 55.6604 57.1986 55.4706C57.2226 55.3759 57.2466 55.2809 57.2658 55.2019C57.2993 55.0702 57.3233 54.9594 57.3473 54.8699C57.3569 54.8225 57.3665 54.7803 57.3761 54.7434C57.3905 54.6696 57.3999 54.6274 57.3999 54.6274C58.0528 53.3109 58.7765 52.0385 59.5672 50.8167C64.3158 50.5817 68.991 52.1693 72.7916 55.3073C72.7916 55.3073 78.3633 58.1744 85.6946 75.2564C93.0213 92.3329 95.6633 91.69 95.6633 91.69Z" fill="url(#paint5_linear_2787_18808)"/>
<path d="M94.1238 91.3896C92.2202 90.3671 88.1733 86.8675 79.974 75.5779C69.4971 61.1471 59.471 60.3407 55.6543 60.657C56.0715 59.4447 56.4119 58.3327 56.6756 57.4103C56.7379 57.1994 56.7907 57.0044 56.8434 56.8147C56.8721 56.7198 56.8961 56.6303 56.9201 56.5406C56.9633 56.3878 57.0016 56.2455 57.0352 56.1084C57.0352 56.1084 70.998 57.1414 78.9143 68.9897C83.153 75.3302 88.1109 84.6538 94.1238 91.3896Z" fill="url(#paint6_linear_2787_18808)"/>
<path d="M78.7804 28.3694C78.303 28.9349 77.7479 29.4151 77.1357 29.7925C76.3839 30.268 75.5549 30.5777 74.6951 30.7042C73.6004 30.8738 72.4845 30.75 71.4426 30.3436C70.4007 29.9371 69.4636 29.2597 68.7111 28.3694C68.3266 27.9225 67.9962 27.423 67.7281 26.883C67.1535 25.7619 66.853 24.4963 66.8555 23.2094C66.8546 21.7132 67.2578 20.2502 68.0141 19.006C68.7704 17.7618 69.8457 16.7924 71.1037 16.2207C70.9599 16.5633 65.863 28.596 78.7804 28.3694Z" fill="url(#paint7_linear_2787_18808)"/>
<path d="M80.6361 23.2095C80.6389 25.1267 79.975 26.9725 78.7805 28.3694C65.863 28.596 70.9599 16.5633 71.1038 16.2208L71.1086 16.2155C71.9437 15.8311 72.8403 15.6339 73.7458 15.6358C75.5732 15.636 77.3256 16.434 78.6178 17.8544C79.9098 19.2747 80.6359 21.2009 80.6361 23.2095Z" fill="url(#paint8_linear_2787_18808)"/>
<path d="M99.2007 17.9716C100.023 17.9716 100.689 17.239 100.689 16.3352C100.689 15.4314 100.023 14.6987 99.2007 14.6987C98.3785 14.6987 97.7119 15.4314 97.7119 16.3352C97.7119 17.239 98.3785 17.9716 99.2007 17.9716Z" fill="#F7D317"/>
<path d="M103.394 37.2814C103.305 37.2685 103.219 37.235 103.142 37.1834C103.096 37.1427 103.034 37.1046 103.057 37.028C103.107 36.7119 103.201 36.4062 103.337 36.1224C103.357 36.0905 103.385 36.066 103.418 36.0523C103.441 36.0467 103.463 36.0356 103.482 36.02C103.501 36.0045 103.517 35.9846 103.528 35.9618C103.54 35.9391 103.547 35.9138 103.549 35.8879C103.551 35.8619 103.548 35.8356 103.54 35.8111C103.534 35.7898 103.533 35.7676 103.535 35.7456C103.538 35.7236 103.544 35.7024 103.554 35.6834C103.695 35.3906 103.778 35.0682 103.797 34.7377C103.845 34.5714 103.902 34.4083 103.968 34.2494C104.044 34.0643 104.071 33.8598 104.047 33.6586C104.04 33.6347 104.039 33.6092 104.045 33.585C104.05 33.5608 104.062 33.5387 104.079 33.5214C104.118 33.4796 104.149 33.4293 104.17 33.3737C104.191 33.3182 104.202 33.2585 104.201 33.1982C104.221 32.9721 104.349 32.766 104.303 32.5277C104.302 32.5222 104.302 32.5167 104.303 32.5112C104.304 32.5058 104.306 32.5007 104.309 32.4962C104.489 32.2586 104.444 31.9422 104.546 31.6777C104.562 31.6313 104.566 31.5811 104.557 31.5325C104.552 31.5113 104.55 31.4892 104.553 31.4675C104.556 31.4457 104.563 31.4249 104.573 31.4062C104.746 31.1386 104.825 30.8109 104.795 30.4843C104.79 30.4516 104.796 30.4181 104.81 30.389C104.929 30.0864 105.005 29.7657 105.036 29.4378C105.04 29.4223 105.034 29.4018 105.042 29.3898C105.18 29.2024 105.134 28.9618 105.196 28.7522C105.245 28.6387 105.321 28.5418 105.416 28.4722C105.451 28.4527 105.482 28.4245 105.506 28.3896C105.53 28.3547 105.547 28.3141 105.554 28.2712C105.59 28.1563 105.664 28.0608 105.761 28.004C105.893 27.9204 105.942 27.9438 105.978 28.1111C106 28.1784 106.009 28.2496 106.005 28.3205C105.974 28.5028 106.031 28.6903 105.931 28.8744C105.869 28.989 105.904 29.1615 105.901 29.3056C105.9 29.4847 105.867 29.6617 105.804 29.8273C105.8 29.8441 105.794 29.8606 105.788 29.8769C105.747 30.2167 105.635 30.5395 105.585 30.8777C105.576 30.9421 105.566 31.006 105.561 31.0711C105.558 31.1195 105.556 31.1733 105.492 31.1728C105.458 31.1381 105.433 31.0935 105.42 31.0442C105.408 30.9949 105.408 30.9427 105.421 30.8935C105.471 30.4083 105.648 29.9541 105.7 29.4722C105.731 29.29 105.742 29.1046 105.735 28.9196C105.732 28.8705 105.74 28.8213 105.757 28.7758C105.796 28.6583 105.761 28.5998 105.649 28.5982C105.598 28.5953 105.548 28.6133 105.509 28.6485C105.47 28.6837 105.444 28.7338 105.437 28.7889C105.413 28.884 105.397 28.9813 105.39 29.0796C105.388 29.1841 105.357 29.2856 105.301 29.3699C105.272 29.4077 105.253 29.4547 105.249 29.5044C105.222 29.841 105.147 30.1709 105.026 30.4819C105.023 30.4922 105.015 30.5031 105.017 30.5125C105.033 30.7858 104.982 31.0588 104.87 31.3031C104.763 31.6865 104.75 32.0871 104.636 32.4647C104.623 32.5063 104.601 32.5436 104.571 32.5726C104.557 32.584 104.546 32.5994 104.539 32.6173C104.532 32.6351 104.53 32.6547 104.532 32.6737C104.594 32.9757 104.447 33.251 104.441 33.5442C104.442 33.5609 104.439 33.5776 104.432 33.5928C104.426 33.6079 104.416 33.6209 104.404 33.6307C104.284 33.6979 104.301 33.7982 104.318 33.9209C104.341 34.068 104.321 34.2192 104.259 34.3523C104.193 34.4903 104.177 34.6552 104.059 34.7676C104.008 34.8154 104.051 34.8934 104.078 34.9505C104.101 34.9929 104.114 35.041 104.116 35.0904C104.118 35.1398 104.109 35.189 104.09 35.2336C104.075 35.2742 104.066 35.3173 104.064 35.3612C104.04 35.6015 104.086 35.651 104.308 35.6207C104.396 35.6085 104.416 35.5274 104.426 35.4537C104.434 35.3447 104.469 35.2402 104.528 35.1521C104.588 35.0729 104.547 34.9824 104.512 34.9048C104.492 34.8729 104.484 34.8346 104.487 34.7963C104.49 34.7581 104.505 34.7224 104.53 34.6951C104.577 34.6237 104.606 34.5403 104.616 34.453C104.63 34.3056 104.677 34.1642 104.751 34.0406C104.761 34.0248 104.769 34.0069 104.772 33.9881C104.776 33.9693 104.777 33.9497 104.773 33.9307C104.764 33.8768 104.766 33.8211 104.781 33.7685C104.796 33.7159 104.822 33.6682 104.857 33.6296C104.898 33.5883 104.887 33.5281 104.889 33.4739C104.875 33.298 104.915 33.122 105.001 32.9733C105.01 32.9598 105.016 32.9446 105.019 32.9285C105.023 32.9123 105.023 32.8956 105.02 32.8792C105.014 32.5579 105.073 32.239 105.194 31.9463C105.233 31.7438 105.296 31.5478 105.382 31.3635C105.415 31.3043 105.425 31.2278 105.49 31.1927C105.594 31.2956 105.505 31.4078 105.478 31.4911C105.344 31.9592 105.241 32.437 105.168 32.9209C105.163 32.9475 105.156 32.9738 105.148 32.9995C105.141 33.02 105.138 33.0421 105.141 33.0638C105.182 33.327 105.141 33.5976 105.025 33.8322C104.95 34.0036 104.91 34.1907 104.907 34.3809C104.885 34.5806 104.84 34.7765 104.772 34.9635C104.72 35.1277 104.707 35.3036 104.733 35.4751C104.763 35.5834 104.699 35.6864 104.666 35.7887C104.65 35.8353 104.611 35.8761 104.609 35.9214C104.568 36.1554 104.494 36.3811 104.39 36.5909C104.364 36.6674 104.354 36.7499 104.363 36.8314C104.371 36.9129 104.397 36.9908 104.439 37.0589C104.499 37.1598 104.517 37.2339 104.398 37.2901C104.37 37.3015 104.346 37.3247 104.333 37.3547C104.278 37.5109 104.178 37.5012 104.057 37.4628C103.838 37.3932 103.61 37.3655 103.394 37.2814Z" fill="#F7D317"/>
<path d="M105.125 28.4719C105.202 28.3447 105.263 28.2064 105.305 28.0611C105.481 27.5962 105.627 27.1182 105.74 26.6305C105.927 25.8472 106.119 25.0654 106.255 24.2689C106.377 23.5203 106.433 22.7604 106.422 22C106.422 21.9673 106.424 21.9345 106.425 21.9017C106.421 21.8943 106.419 21.8862 106.419 21.878C106.419 21.8697 106.42 21.8616 106.423 21.8539C106.557 21.6155 106.456 21.3685 106.436 21.1289C106.423 20.878 106.386 20.6292 106.326 20.3866C106.261 20.1584 106.266 19.9126 106.206 19.681C106.182 19.631 106.17 19.5753 106.171 19.5188C106.172 19.4624 106.186 19.4072 106.212 19.3585C106.257 19.2891 106.207 19.211 106.143 19.1654C106.115 19.149 106.093 19.1231 106.079 19.0916C106.066 19.0601 106.063 19.0248 106.069 18.9909C106.083 18.8409 105.991 18.7169 105.947 18.5804C105.924 18.3492 105.887 18.1197 105.836 17.8937C105.82 17.7648 105.817 17.6351 105.801 17.5065C105.764 17.3357 105.703 17.1722 105.621 17.0215C105.578 16.7516 105.515 16.4861 105.486 16.2136C105.477 16.173 105.487 16.1448 105.528 16.1362C105.598 16.1488 105.666 16.1709 105.731 16.202C105.751 16.2151 105.768 16.2339 105.779 16.2564C105.891 16.7104 105.956 17.1764 106.06 17.6326C106.152 18.0356 106.204 18.449 106.321 18.8457C106.333 18.8757 106.339 18.9082 106.339 18.9412C106.349 19.0848 106.369 19.2273 106.401 19.3672C106.528 20.1012 106.633 20.8388 106.718 21.5801C106.736 21.6655 106.734 21.7547 106.712 21.8389C106.648 21.9972 106.69 22.1754 106.634 22.3348C106.648 22.3702 106.564 22.3303 106.605 22.3744C106.644 22.4167 106.693 22.4462 106.693 22.5165C106.66 22.6206 106.653 22.7318 106.67 22.84C106.711 23.1119 106.65 23.3868 106.689 23.6588C106.685 23.7083 106.631 23.7376 106.639 23.7893C106.645 23.8331 106.654 23.9034 106.716 23.8656C106.767 23.8345 106.81 23.8004 106.859 23.8553C106.912 23.9146 106.877 23.975 106.852 24.0337C106.848 24.0438 106.847 24.0546 106.847 24.0654C106.852 24.0875 106.852 24.1104 106.847 24.1325C106.842 24.1545 106.833 24.175 106.82 24.1922C106.729 24.2356 106.695 24.1202 106.622 24.1083C106.693 24.1659 106.787 24.1945 106.812 24.3033C106.814 24.3222 106.813 24.3415 106.808 24.3599C106.803 24.3782 106.795 24.395 106.783 24.4095C106.772 24.4239 106.758 24.4353 106.742 24.4431C106.726 24.4509 106.709 24.4549 106.691 24.4547C106.64 24.4544 106.606 24.4059 106.545 24.3867C106.62 24.4445 106.716 24.4501 106.732 24.5586C106.737 24.6005 106.732 24.6431 106.718 24.6825C106.704 24.7218 106.681 24.7566 106.651 24.7837C106.635 24.7917 106.618 24.794 106.601 24.7903C106.584 24.7867 106.568 24.7772 106.556 24.7633C106.524 24.7349 106.49 24.6761 106.446 24.735C106.436 24.7474 106.428 24.762 106.424 24.7777C106.419 24.7935 106.417 24.8102 106.419 24.8266C106.42 24.8432 106.425 24.8591 106.432 24.8737C106.439 24.8881 106.449 24.9008 106.461 24.9109C106.508 24.9589 106.572 24.9856 106.602 25.0535C106.606 25.0641 106.607 25.0758 106.606 25.0871C106.604 25.0985 106.599 25.1092 106.592 25.1179C106.583 25.1284 106.571 25.1364 106.558 25.1415C106.538 25.1418 106.519 25.1342 106.504 25.1199L106.475 25.0939C106.448 25.0695 106.418 25.0489 106.389 25.0275C106.383 25.0227 106.376 25.0201 106.368 25.0197C106.36 25.0193 106.353 25.0213 106.346 25.0255C106.333 25.0493 106.325 25.0759 106.323 25.1034C106.32 25.1309 106.323 25.1587 106.332 25.1848C106.388 25.2729 106.491 25.301 106.546 25.3894C106.577 25.4613 106.548 25.4962 106.484 25.5084C106.406 25.5018 106.37 25.4326 106.331 25.389C106.291 25.4947 106.309 25.626 106.247 25.7442C106.292 25.7851 106.377 25.7727 106.433 25.8292C106.495 25.9057 106.503 25.9792 106.422 26.0471C106.37 26.0481 106.351 25.9979 106.319 25.9672C106.278 25.928 106.23 25.88 106.178 25.9188C106.158 25.9389 106.144 25.965 106.137 25.9939C106.13 26.0229 106.132 26.0532 106.141 26.0814C106.151 26.1373 106.189 26.1899 106.149 26.2488C106.032 26.3186 106.064 26.4386 106.066 26.549C105.911 27.137 105.707 27.7083 105.457 28.2558C105.421 28.3286 105.372 28.3922 105.312 28.4428C105.253 28.4934 105.184 28.5298 105.111 28.5495C105.106 28.5363 105.105 28.5222 105.108 28.5084C105.11 28.4947 105.116 28.482 105.125 28.4719Z" fill="#F7D317"/>
<path d="M103.394 37.2816C103.627 37.3385 103.859 37.396 104.092 37.4522C104.212 37.4811 104.222 37.4849 104.269 37.3673C104.311 37.2631 104.397 37.2428 104.486 37.1974C104.395 37.0999 104.336 36.9719 104.319 36.8336C104.317 36.7103 104.339 36.588 104.382 36.4742C104.395 36.4069 104.451 36.3551 104.445 36.2781C104.443 36.2546 104.46 36.2391 104.483 36.2378C104.534 36.2348 104.526 36.1975 104.529 36.157C104.524 36.0708 104.535 35.9846 104.562 35.9035C104.592 35.8424 104.619 35.7807 104.646 35.718C104.677 35.663 104.695 35.6002 104.698 35.5354C104.701 35.4706 104.689 35.4061 104.663 35.3481C104.655 35.3357 104.649 35.3215 104.646 35.3066C104.644 35.2916 104.644 35.2763 104.648 35.2615C104.651 35.2468 104.657 35.233 104.666 35.2212C104.675 35.2094 104.686 35.1999 104.698 35.1931C104.673 35.0515 104.757 34.9341 104.772 34.8007C104.781 34.7084 104.807 34.6189 104.847 34.5373C104.882 34.4638 104.89 34.3782 104.869 34.2985C104.854 34.2619 104.849 34.2207 104.856 34.1809C104.863 34.1412 104.882 34.1049 104.909 34.0773C104.943 34.0442 104.939 33.9655 104.955 33.9081C104.971 33.8472 104.968 33.7795 105.026 33.735C105.073 33.6993 105.026 33.63 105.056 33.5823C105.089 33.505 105.116 33.4249 105.136 33.3429C105.169 33.2677 105.102 33.1804 105.104 33.0934C105.104 33.07 105.073 33.0459 105.106 33.0236C105.211 32.831 105.27 32.6131 105.279 32.3891C105.316 32.0406 105.395 31.6993 105.515 31.3743C105.557 31.2648 105.573 31.145 105.559 31.0269C105.552 30.9082 105.57 30.789 105.613 30.6795C105.698 30.4132 105.749 30.1348 105.763 29.8529H105.763C105.892 29.6105 105.948 29.3295 105.923 29.0501C105.934 28.8724 105.972 28.6981 106.034 28.5336C106.042 28.5325 106.05 28.5336 106.057 28.537C106.064 28.5404 106.07 28.5459 106.075 28.553C106.087 28.5865 106.093 28.6223 106.093 28.6584C106.106 28.6996 106.099 28.7444 106.113 28.7871C106.141 28.7758 106.136 28.744 106.148 28.7238C106.171 28.6863 106.194 28.6457 106.241 28.6598C106.287 28.6736 106.291 28.7261 106.295 28.7673C106.327 29.0036 106.319 29.2445 106.273 29.4779C106.161 29.9872 106.07 30.5027 105.947 31.0077C105.764 31.7555 105.626 32.5148 105.452 33.2643C105.397 33.5009 105.33 33.7413 105.295 33.9758C105.235 34.3755 105.09 34.7521 105.06 35.1567C105.027 35.3381 104.983 35.5168 104.928 35.6917C104.841 36.0888 104.803 36.4968 104.815 36.9048C104.792 37.0987 104.743 37.2877 104.667 37.4647C104.653 37.5254 104.586 37.5164 104.541 37.5348C104.434 37.5484 104.325 37.542 104.219 37.516C103.967 37.4678 103.717 37.404 103.472 37.3252C103.442 37.3197 103.415 37.3045 103.394 37.2816Z" fill="#F7D317"/>
<path d="M104.542 37.5347C104.577 37.5219 104.608 37.498 104.631 37.466C104.654 37.434 104.667 37.3952 104.67 37.3546C104.677 37.3115 104.691 37.27 104.711 37.2325C104.757 37.1233 104.782 37.0047 104.783 36.8844C104.771 36.4601 104.812 36.036 104.905 35.6239C104.922 35.5556 104.942 35.4884 104.967 35.4229C105.002 35.3266 105.021 35.2244 105.026 35.1207C105.042 34.9029 105.086 34.6888 105.158 34.485C105.193 34.3711 105.221 34.2549 105.242 34.137C105.245 34.1182 105.245 34.0989 105.241 34.08C105.237 34.0613 105.23 34.0436 105.22 34.0282C105.197 33.9869 105.183 33.9477 105.24 33.925C105.296 33.9029 105.307 33.847 105.315 33.7929C105.34 33.6877 105.357 33.5798 105.363 33.4709C105.36 33.3911 105.415 33.3214 105.431 33.2403C105.484 32.962 105.543 32.6851 105.602 32.4078C105.618 32.3057 105.646 32.2063 105.685 32.1119C105.714 32.0477 105.728 31.977 105.727 31.9057C105.725 31.8127 105.738 31.7201 105.765 31.6318C105.827 31.4317 105.84 31.2196 105.911 31.0196C105.959 30.8836 105.985 30.7391 105.986 30.5931C105.985 30.5659 105.989 30.5385 105.997 30.5128C106.103 30.1772 106.181 29.832 106.231 29.4811C106.278 29.3442 106.301 29.1987 106.298 29.0524C106.283 28.9463 106.279 28.8385 106.268 28.7317C106.266 28.7102 106.258 28.6851 106.236 28.6806C106.207 28.6744 106.19 28.6979 106.183 28.725C106.172 28.7666 106.165 28.8096 106.162 28.8532C106.161 28.9156 106.131 28.9296 106.085 28.9209C106.025 28.9093 106.032 28.8745 106.058 28.8271C106.093 28.7639 106.043 28.6999 106.053 28.6354C106.109 28.5139 106.138 28.3789 106.137 28.2423C106.164 27.971 106.205 27.7019 106.261 27.4361C106.326 27.0334 106.404 26.6306 106.461 26.2273C106.531 25.7974 106.624 25.3722 106.738 24.9536C106.849 24.5071 106.979 24.0656 107.119 23.6282C107.175 23.4532 107.23 23.2777 107.286 23.1026C107.292 23.0849 107.295 23.0657 107.294 23.0466C107.293 23.0277 107.288 23.009 107.28 22.9921C107.272 22.9758 107.267 22.958 107.266 22.9397C107.313 22.6749 107.445 22.4375 107.638 22.2709C107.708 22.2095 107.759 22.1254 107.783 22.0305C107.886 21.6249 108.088 21.2576 108.366 20.9674C108.466 20.8757 108.547 20.7617 108.603 20.6331C108.674 20.5135 108.758 20.405 108.854 20.3102C108.993 20.132 109.146 19.9673 109.284 19.7877C109.299 19.7615 109.319 19.7404 109.344 19.7271C109.369 19.7136 109.397 19.7084 109.424 19.7121C109.427 19.7151 109.429 19.7188 109.431 19.7228C109.432 19.7269 109.432 19.7312 109.432 19.7355C109.431 19.7397 109.43 19.7438 109.427 19.7473C109.425 19.7508 109.422 19.7537 109.419 19.7557C109.224 20.0187 109.027 20.2798 108.835 20.5452C108.174 21.4656 107.645 22.4924 107.266 23.5894C107.077 24.1486 106.922 24.7214 106.804 25.3038C106.68 25.8848 106.571 26.4694 106.464 27.0545C106.38 27.5438 106.321 28.0381 106.287 28.5348C106.285 28.6548 106.299 28.7746 106.328 28.8903C106.354 29.0352 106.352 29.1846 106.322 29.3286C106.231 29.7774 106.138 30.2258 106.043 30.6736C105.789 31.8671 105.534 33.0602 105.277 34.2529C105.19 34.6574 105.108 35.0634 105.013 35.466C104.944 35.7621 104.89 36.0621 104.85 36.3645C104.831 36.5323 104.829 36.7016 104.844 36.8697C104.859 37.0005 104.836 37.133 104.779 37.2488C104.754 37.296 104.734 37.3464 104.72 37.3988C104.687 37.5289 104.68 37.5318 104.542 37.5347Z" fill="#F7D317"/>
<path d="M113.763 3.92501C113.891 4.07651 114.025 4.222 114.145 4.38096C114.304 4.59781 114.427 4.84204 114.511 5.10362C114.541 5.17301 114.573 5.24062 114.608 5.30616C114.747 5.62641 114.843 5.96658 114.895 6.31657C114.966 6.69568 114.992 7.08367 114.969 7.47017C114.965 7.68792 114.948 7.90511 114.918 8.12059C114.917 8.14242 114.912 8.1639 114.905 8.18449C114.848 8.34464 114.825 8.51731 114.839 8.68883C114.82 8.90095 114.772 9.10856 114.695 9.30431C114.671 9.37942 114.651 9.45607 114.636 9.53384C114.62 9.54262 114.602 9.54768 114.583 9.54873C114.565 9.54978 114.547 9.54681 114.53 9.53997C114.476 9.51977 114.474 9.42937 114.405 9.427C114.381 9.36058 114.38 9.28593 114.405 9.21939C114.445 9.01643 114.486 8.8134 114.531 8.61163C114.699 7.86148 114.736 7.08306 114.639 6.31775C114.63 6.28649 114.628 6.2533 114.631 6.22059C114.674 5.9998 114.642 5.76967 114.541 5.5729C114.286 4.81337 113.835 4.15275 113.242 3.67346C113.182 3.62189 113.08 3.59963 113.089 3.4783C113.247 3.44521 113.342 3.57943 113.459 3.65193C113.512 3.69146 113.561 3.73694 113.605 3.78764C113.61 3.79946 113.617 3.80974 113.627 3.81744C113.636 3.82513 113.647 3.82998 113.659 3.83149C113.693 3.86261 113.739 3.87882 113.763 3.92501Z" fill="#F7D317"/>
<path d="M105.119 11.906C105.108 11.5497 105.114 11.193 105.136 10.8373C105.139 10.7456 105.148 10.6542 105.154 10.5626C105.15 10.5063 105.148 10.451 105.206 10.422C105.275 10.4197 105.342 10.4461 105.393 10.4958C105.413 10.5145 105.425 10.5401 105.429 10.5682C105.411 11.1652 105.382 11.7621 105.4 12.3599C105.412 13.1627 105.471 13.9639 105.577 14.7583C105.597 15.0645 105.659 15.3638 105.698 15.6668C105.717 15.7464 105.723 15.8289 105.716 15.9106C105.712 15.9183 105.707 15.9247 105.7 15.9292C105.694 15.9337 105.686 15.9362 105.678 15.9363C105.627 15.9274 105.579 15.8991 105.544 15.8559C105.509 15.8128 105.489 15.7578 105.486 15.7001C105.379 15.0175 105.302 14.331 105.249 13.6408C105.208 13.114 105.2 12.5853 105.166 12.0584C105.137 12.0124 105.142 11.9541 105.119 11.906Z" fill="#F7D317"/>
<path d="M105.49 7.14875C105.485 7.04519 105.496 6.94141 105.522 6.84181C105.598 6.4462 105.708 6.05946 105.851 5.68686C105.892 5.5813 105.914 5.46878 105.948 5.36056C106.146 4.78413 106.44 4.25306 106.814 3.79426C107.038 3.52031 107.292 3.27784 107.571 3.0724C107.705 2.96717 107.866 2.92456 107.992 2.80607C108.054 2.7475 108.154 2.7639 108.222 2.705C108.536 2.60128 108.861 2.56623 109.179 2.48924C109.201 2.48249 109.224 2.48277 109.246 2.49003C109.268 2.49728 109.287 2.51122 109.301 2.53016C109.293 2.61768 109.223 2.60002 109.177 2.61255C108.841 2.69014 108.512 2.80157 108.194 2.9454C107.647 3.21349 107.165 3.6197 106.787 4.13103C106.476 4.58598 106.219 5.08297 106.023 5.6098C105.948 5.76733 105.884 5.93121 105.833 6.09984C105.702 6.40408 105.608 6.72634 105.555 7.05799C105.552 7.07781 105.544 7.09643 105.533 7.11224C105.522 7.12806 105.507 7.14059 105.49 7.14875Z" fill="#F7D317"/>
<path d="M114.509 9.50197C114.552 9.50146 114.596 9.5124 114.636 9.53392C114.421 10.366 114.164 11.1839 113.864 11.9837C113.667 12.5399 113.447 13.0851 113.217 13.6248C113.021 14.085 112.795 14.5298 112.582 14.9815C112.538 14.9904 112.571 15.0989 112.493 15.0632C112.473 15.0342 112.464 14.998 112.468 14.962C112.574 14.6979 112.696 14.4415 112.833 14.1944C113.247 13.2995 113.61 12.3773 113.92 11.4329C113.978 11.3123 114.012 11.1797 114.019 11.0437C114.175 10.5641 114.315 10.0791 114.45 9.59186C114.453 9.5732 114.46 9.55556 114.47 9.54008C114.48 9.5246 114.493 9.51162 114.509 9.50197Z" fill="#F7D317"/>
<path d="M105.123 28.4692C105.123 28.4955 105.119 28.5167 105.119 28.5431V28.5483C105.123 28.5673 105.123 28.5872 105.119 28.6062C105.104 28.6459 105.085 28.6832 105.061 28.7169C105.056 28.7222 105.051 28.7275 105.051 28.7327C105.043 28.7457 105.037 28.7599 105.032 28.7749C105.007 28.8217 104.991 28.8737 104.984 28.9277V28.9331C104.98 28.9436 104.98 28.9593 104.975 28.9699C104.975 28.9804 104.97 28.991 104.97 29.0015V29.0121C104.954 29.1132 104.928 29.2122 104.893 29.3073C104.782 29.7094 104.697 30.1198 104.639 30.5353C104.639 30.5845 104.629 30.6331 104.61 30.6776C104.549 30.8622 104.504 31.0529 104.476 31.2469L104.433 31.4524C104.371 31.7475 104.313 32.0321 104.251 32.3272V32.3325C104.246 32.343 104.246 32.3536 104.241 32.3641C104.236 32.3958 104.227 32.4327 104.222 32.4643C104.217 32.4801 104.217 32.4907 104.212 32.5065V32.5118C104.169 32.7173 104.126 32.9282 104.088 33.1337C104.078 33.1917 104.064 33.2444 104.049 33.3023C104.04 33.3603 104.025 33.4235 104.016 33.4815C104.011 33.5132 104.001 33.5395 103.997 33.5712C103.995 33.6019 103.988 33.6322 103.977 33.6607C103.977 33.6712 103.973 33.6818 103.973 33.6923C103.963 33.7345 103.953 33.7714 103.944 33.8136C103.891 34.0613 103.843 34.3091 103.786 34.5568L103.781 34.5673V34.5778C103.761 34.6409 103.748 34.7063 103.742 34.7728C103.742 34.7833 103.738 34.7939 103.738 34.8044C103.729 34.8595 103.718 34.9142 103.704 34.9679C103.704 34.9836 103.699 34.9995 103.699 35.0152C103.685 35.0732 103.671 35.1365 103.661 35.1944C103.627 35.3367 103.589 35.4738 103.551 35.616C103.541 35.6477 103.531 35.6846 103.522 35.7215C103.518 35.7485 103.511 35.7748 103.503 35.8006C103.483 35.869 103.469 35.9428 103.45 36.0113V36.0166C103.443 36.0282 103.435 36.0388 103.426 36.0483L103.421 36.0535H103.416C103.4 36.0794 103.383 36.104 103.364 36.1273C103.289 36.2663 103.236 36.4176 103.205 36.5753C103.189 36.7321 103.15 36.885 103.09 37.0286C103.052 37.0971 103.129 37.1287 103.143 37.1813C103.052 37.1708 103.018 37.1024 103.009 37.0128C102.996 36.8975 103.012 36.7806 103.057 36.6754C103.138 36.4648 103.229 36.259 103.33 36.0588C103.358 36.0012 103.378 35.9389 103.388 35.8743L103.402 35.8006C103.46 35.5422 103.517 35.2893 103.57 35.031L103.829 33.8451C103.925 33.4023 104.02 32.965 104.116 32.5222C104.184 32.2165 104.255 31.9055 104.323 31.5999C104.481 30.8409 104.639 30.0872 104.797 29.3282L104.898 28.8855C104.944 28.7297 105.021 28.5875 105.123 28.4692Z" fill="#F7D317"/>
<path d="M109.301 2.54095C109.18 2.48814 109.067 2.55849 108.953 2.57887C108.829 2.58916 108.709 2.62264 108.596 2.67785C108.467 2.61536 108.348 2.71526 108.222 2.70495C108.251 2.66664 108.291 2.64076 108.336 2.63195C108.585 2.57473 108.819 2.45993 109.079 2.42735C109.261 2.4045 109.444 2.36363 109.628 2.34192C109.863 2.31526 110.1 2.3122 110.336 2.33276C110.672 2.35321 111.005 2.41282 111.33 2.51056C111.374 2.5402 111.417 2.57033 111.369 2.63483C111.349 2.65371 111.325 2.66494 111.299 2.66676C111.191 2.66056 111.084 2.63887 110.981 2.60224C110.767 2.54688 110.548 2.50819 110.328 2.48644C110.147 2.42854 109.952 2.43912 109.777 2.51645C109.623 2.57294 109.459 2.58141 109.301 2.54095Z" fill="#F7D317"/>
<path d="M112.503 15.0669C112.541 15.0517 112.536 14.9882 112.582 14.9814C112.545 15.1116 112.49 15.235 112.419 15.3473C112.115 15.8788 111.804 16.406 111.501 16.9387C111.146 17.546 110.746 18.1206 110.306 18.6568C110.077 18.9439 109.844 19.2283 109.629 19.5301C109.578 19.624 109.505 19.7017 109.418 19.7556L109.419 19.7133C109.476 19.546 109.571 19.3978 109.697 19.2835C110.621 18.1255 111.455 16.8846 112.191 15.5736C112.266 15.4517 112.334 15.3243 112.393 15.1922C112.401 15.1631 112.415 15.1365 112.434 15.1146C112.453 15.0928 112.477 15.0765 112.503 15.0669Z" fill="#F7D317"/>
<path d="M105.948 18.5801C106.051 18.6844 106.113 18.8291 106.12 18.983C106.141 19.0962 106.134 19.0978 106.193 19.1457C106.213 19.1607 106.231 19.1804 106.244 19.2035C106.257 19.2265 106.265 19.2525 106.268 19.2793C106.272 19.3063 106.269 19.3337 106.262 19.3595C106.255 19.3855 106.242 19.4094 106.226 19.4295C106.182 19.4816 106.204 19.507 106.219 19.5596C106.281 19.7806 106.32 20.0087 106.335 20.2393C106.344 20.3665 106.403 20.4692 106.414 20.5929C106.446 20.9616 106.492 21.3289 106.535 21.6966C106.542 21.7511 106.54 21.7626 106.479 21.7638C106.427 21.7649 106.454 21.8586 106.425 21.9014C106.407 21.7836 106.4 21.6641 106.404 21.5449C106.357 20.8802 106.27 20.2195 106.143 19.5674C106.092 19.2887 106.008 19.0197 105.961 18.7406C105.944 18.6894 105.939 18.6339 105.948 18.5801Z" fill="#F7D317"/>
<path d="M105.119 11.9058L105.195 12.0166C105.186 12.5901 105.227 13.1613 105.27 13.732C105.319 14.4016 105.396 15.0677 105.499 15.7303C105.525 15.8186 105.544 15.9089 105.557 16.0005C105.558 16.0528 105.583 16.1104 105.528 16.1495C105.503 16.162 105.497 16.1895 105.486 16.2131C105.394 15.7716 105.337 15.3236 105.282 14.875C105.185 14.0577 105.128 13.2353 105.11 12.4114C105.099 12.2429 105.102 12.0736 105.119 11.9058Z" fill="#F7D317"/>
<path d="M111.372 2.60323C111.379 2.56079 111.34 2.54367 111.33 2.51025C111.549 2.55616 111.763 2.62719 111.968 2.72218C112.115 2.78405 112.264 2.84172 112.412 2.90509C112.515 2.95621 112.615 3.01312 112.713 3.07557C112.976 3.22738 113.225 3.40607 113.457 3.60926C113.519 3.65405 113.57 3.71533 113.605 3.78741C113.47 3.70947 113.354 3.59784 113.211 3.53374C113.172 3.51147 113.13 3.49573 113.087 3.48704C112.925 3.45212 112.775 3.36875 112.654 3.24615C112.328 2.99476 111.961 2.81442 111.573 2.71489C111.501 2.69 111.41 2.70392 111.372 2.60323Z" fill="#F7D317"/>
<path d="M105.49 7.1488L105.525 7.04504C105.55 7.01776 105.535 6.95034 105.593 6.95872C105.63 6.96414 105.632 6.99834 105.628 7.03226C105.486 7.66202 105.39 8.30293 105.34 8.94916C105.297 9.4045 105.26 9.86009 105.245 10.3177C105.248 10.3617 105.237 10.4054 105.214 10.4413C105.162 10.4629 105.179 10.5252 105.155 10.5629C105.146 10.3291 105.155 10.095 105.182 9.863C105.221 9.28011 105.271 8.69823 105.342 8.11879C105.381 7.79369 105.427 7.46971 105.49 7.1488Z" fill="#F7D317"/>
<path d="M105.621 17.0215C105.665 17.0702 105.682 17.1431 105.741 17.1797C105.757 17.1922 105.771 17.2089 105.78 17.2284C105.789 17.2478 105.793 17.2694 105.793 17.2913C105.813 17.4453 105.84 17.5979 105.856 17.7534C105.876 17.9704 105.91 18.1855 105.96 18.3967C105.975 18.456 106.004 18.5237 105.948 18.5804C105.927 18.5564 105.915 18.5252 105.913 18.4923C105.817 18.0293 105.722 17.5661 105.627 17.1027C105.623 17.0758 105.621 17.0487 105.621 17.0215Z" fill="#F7D317"/>
<path d="M113.763 3.92572C113.72 3.90876 113.682 3.87534 113.659 3.83134C113.684 3.82932 113.709 3.83798 113.728 3.85555C113.748 3.87311 113.76 3.89823 113.763 3.92572Z" fill="#F7D317"/>
<path d="M105.484 31.1982C105.452 31.3236 105.404 31.4432 105.341 31.5536C105.297 31.6269 105.275 31.7138 105.278 31.8017C105.277 31.8397 105.286 31.8779 105.262 31.9114C105.189 32.0421 105.142 32.1882 105.125 32.3402C105.112 32.4487 105.084 32.5541 105.04 32.6527C105.006 32.7105 105.033 32.77 105.055 32.8243C105.087 32.9002 105.099 32.9641 105.024 33.0237C104.995 33.0509 104.973 33.0851 104.959 33.1235C104.944 33.1621 104.939 33.2038 104.942 33.2452C104.925 33.3524 104.924 33.4619 104.938 33.5696C104.95 33.611 104.946 33.6502 104.905 33.6644C104.786 33.7055 104.803 33.814 104.812 33.9069C104.821 33.9914 104.843 34.0661 104.751 34.1138C104.713 34.1336 104.713 34.1876 104.704 34.2299C104.681 34.3365 104.658 34.4431 104.638 34.5501C104.622 34.631 104.61 34.7115 104.533 34.7555C104.525 34.7583 104.519 34.7632 104.514 34.7698C104.51 34.7765 104.507 34.7845 104.506 34.7929C104.505 34.8013 104.507 34.8098 104.51 34.8173C104.514 34.8248 104.519 34.831 104.526 34.8352C104.582 34.8865 104.572 34.9643 104.596 35.0281C104.604 35.0435 104.61 35.0606 104.611 35.0783C104.613 35.0961 104.612 35.1141 104.607 35.1311C104.602 35.1482 104.595 35.164 104.584 35.1776C104.573 35.1911 104.56 35.2021 104.546 35.2097C104.52 35.2267 104.499 35.252 104.487 35.2823C104.475 35.3127 104.471 35.3463 104.477 35.3789C104.484 35.4386 104.474 35.4991 104.447 35.5519C104.383 35.6885 104.384 35.6905 104.241 35.6486C104.202 35.6449 104.162 35.6495 104.124 35.6615C104.029 35.6697 103.989 35.6306 104.008 35.5295C104.032 35.3983 103.999 35.2545 104.083 35.1356C104.105 35.1041 104.086 35.0623 104.068 35.0276C104.048 34.9903 104.03 34.9516 104.014 34.9117C103.961 34.7701 103.96 34.7668 104.08 34.6766C104.098 34.6628 104.113 34.6448 104.125 34.6238C104.136 34.6029 104.143 34.5794 104.146 34.5552C104.159 34.4744 104.185 34.3971 104.225 34.3274C104.285 34.1739 104.298 34.0031 104.263 33.8406L104.243 33.7789C104.221 33.7094 104.234 33.6608 104.307 33.6475C104.383 33.6337 104.412 33.5931 104.407 33.5004C104.406 33.4137 104.418 33.3274 104.443 33.2451C104.46 33.1175 104.486 32.9919 104.521 32.8688C104.545 32.8095 104.502 32.7432 104.481 32.6819C104.46 32.6203 104.454 32.5629 104.532 32.5426C104.545 32.5407 104.557 32.5359 104.567 32.5284C104.578 32.5208 104.587 32.5109 104.593 32.4993C104.6 32.4876 104.604 32.4744 104.606 32.4607C104.607 32.447 104.606 32.4331 104.602 32.42C104.595 32.3879 104.598 32.3543 104.61 32.324C104.708 32.1537 104.672 31.952 104.721 31.7706C104.731 31.734 104.735 31.6956 104.731 31.6575C104.726 31.6224 104.729 31.5864 104.738 31.5523C104.748 31.5182 104.764 31.4871 104.787 31.4611C104.807 31.4404 104.823 31.415 104.833 31.3868C104.843 31.3586 104.848 31.3283 104.847 31.2979C104.822 31.1057 104.927 30.9533 104.971 30.7829C104.982 30.7593 104.987 30.7335 104.988 30.7072C104.989 30.681 104.985 30.6549 104.976 30.6305C104.958 30.5971 104.951 30.558 104.957 30.5197C104.963 30.4815 104.981 30.4469 105.008 30.4218C105.036 30.3835 105.054 30.3371 105.06 30.2881C105.087 30.0994 105.135 29.9148 105.202 29.7382C105.212 29.7189 105.218 29.6974 105.219 29.6753C105.221 29.6532 105.218 29.631 105.211 29.6102C105.196 29.5635 105.194 29.513 105.204 29.4648C105.214 29.4166 105.236 29.3725 105.269 29.3377C105.295 29.3056 105.315 29.2681 105.328 29.2274C105.341 29.1866 105.346 29.1435 105.344 29.1005C105.349 28.981 105.365 28.8623 105.393 28.7467C105.407 28.7029 105.429 28.6634 105.46 28.631C105.49 28.5986 105.526 28.5744 105.566 28.5602C105.606 28.546 105.649 28.5423 105.69 28.5494C105.732 28.5564 105.771 28.5741 105.806 28.6008C105.818 28.6081 105.828 28.6187 105.836 28.6315C105.844 28.6443 105.848 28.6588 105.85 28.6742C105.851 28.6893 105.849 28.7048 105.843 28.7188C105.838 28.7329 105.829 28.7453 105.819 28.755C105.796 28.7801 105.781 28.8115 105.774 28.8458C105.767 28.8799 105.768 28.9156 105.778 28.9488C105.792 28.987 105.798 29.0285 105.793 29.0695C105.789 29.1104 105.775 29.1494 105.754 29.1831C105.747 29.1946 105.743 29.2076 105.741 29.2211C105.739 29.2346 105.74 29.2482 105.744 29.2613C105.767 29.3795 105.758 29.5026 105.719 29.6157C105.675 29.8337 105.63 30.0515 105.584 30.2692C105.575 30.3341 105.555 30.3966 105.526 30.4538C105.496 30.5052 105.482 30.5659 105.486 30.6268C105.511 30.7386 105.496 30.8565 105.445 30.957C105.42 30.9957 105.438 31.0401 105.47 31.0745C105.48 31.0867 105.488 31.1014 105.491 31.1175C105.495 31.1335 105.495 31.1504 105.491 31.1664C105.498 31.1756 105.499 31.1834 105.495 31.1898C105.491 31.1961 105.487 31.1989 105.484 31.1982Z" fill="#F7D317"/>
<path d="M103.711 34.7301C103.702 34.7087 103.7 34.6843 103.704 34.6612C103.709 34.638 103.721 34.6171 103.738 34.6021C103.853 34.2967 103.921 33.972 103.938 33.6419L103.95 33.5771C104.032 33.3984 104.084 33.2052 104.104 33.0065C104.124 32.8251 104.188 32.651 104.196 32.4658C104.201 32.4303 104.21 32.3954 104.223 32.3624C104.256 32.329 104.282 32.2881 104.298 32.2424C104.314 32.1968 104.321 32.1477 104.318 32.0989C104.316 32.0276 104.327 31.9565 104.351 31.8902C104.463 31.5423 104.488 31.1669 104.631 30.8292C104.642 30.8046 104.649 30.7779 104.651 30.7505C104.666 30.3121 104.859 29.9134 104.888 29.4803C104.901 29.2918 104.997 29.1203 104.967 28.9267C104.965 28.8921 104.97 28.8573 104.982 28.8248C105.042 28.6722 105.149 28.5475 105.284 28.4718C105.332 28.4497 105.373 28.4303 105.419 28.4685L105.432 28.4897C105.389 28.5571 105.337 28.6166 105.278 28.6662C105.265 28.6743 105.246 28.6888 105.246 28.6989C105.256 28.82 105.162 28.9243 105.188 29.0396C105.198 29.0899 105.197 29.1423 105.184 29.1921C105.172 29.2418 105.149 29.2876 105.117 29.3253C105.083 29.3749 105.049 29.4171 105.084 29.4853C105.092 29.5058 105.094 29.528 105.092 29.5501C105.09 29.5721 105.083 29.5931 105.071 29.6114C105.005 29.7638 104.97 29.9307 104.97 30.1C104.973 30.1523 104.965 30.2045 104.946 30.2529C104.928 30.3011 104.899 30.3438 104.862 30.3775C104.847 30.3866 104.835 30.4015 104.829 30.4196C104.823 30.4377 104.823 30.4576 104.829 30.4756C104.87 30.6786 104.845 30.8906 104.759 31.0758C104.745 31.1098 104.738 31.1466 104.737 31.184C104.743 31.2274 104.735 31.2717 104.716 31.3101C104.696 31.3484 104.666 31.3788 104.629 31.3966C104.619 31.4008 104.609 31.4077 104.601 31.4166C104.593 31.4255 104.588 31.4363 104.584 31.4482C104.581 31.46 104.58 31.4726 104.582 31.4849C104.584 31.4972 104.588 31.5087 104.595 31.5188C104.609 31.5498 104.616 31.5848 104.613 31.6197C104.611 31.6546 104.599 31.6879 104.58 31.7157C104.548 31.7877 104.529 31.8659 104.523 31.9459C104.524 32.1386 104.465 32.326 104.357 32.4773C104.349 32.4842 104.343 32.4928 104.338 32.5026C104.333 32.5123 104.331 32.5229 104.33 32.534C104.329 32.5449 104.33 32.556 104.334 32.5664C104.337 32.5767 104.342 32.5862 104.349 32.5944C104.389 32.6565 104.37 32.7106 104.345 32.7767C104.281 32.9486 104.242 33.1309 104.23 33.3165C104.232 33.354 104.225 33.3913 104.21 33.4249C104.194 33.4586 104.172 33.4874 104.144 33.5089C104.079 33.5546 104.054 33.6023 104.094 33.6843C104.118 33.7449 104.121 33.813 104.104 33.8762C104.061 34.1282 103.984 34.3717 103.877 34.5989C103.849 34.6509 103.834 34.71 103.833 34.7703C103.835 34.9232 103.806 35.0747 103.747 35.2136C103.735 35.2431 103.729 35.275 103.729 35.3072C103.736 35.3753 103.728 35.4442 103.706 35.5081C103.683 35.572 103.647 35.629 103.601 35.6743C103.588 35.687 103.578 35.7033 103.573 35.7216C103.568 35.7398 103.568 35.7593 103.573 35.7776C103.593 36.0016 103.592 36.0018 103.417 36.1C103.399 36.1099 103.38 36.1171 103.362 36.1256C103.37 36.0907 103.372 36.0525 103.408 36.0347C103.421 36.0277 103.433 36.0169 103.442 36.0034C103.451 35.9901 103.456 35.9744 103.458 35.9581C103.469 35.6747 103.624 35.4325 103.646 35.1534C103.657 35.0101 103.741 34.8806 103.711 34.7301Z" fill="#F7D317"/>
<path d="M106.035 28.5387C105.992 28.6646 106.019 28.8104 105.943 28.9274C105.927 28.9505 105.953 28.9784 105.957 29.0045C105.98 29.1685 105.966 29.3365 105.915 29.4929C105.884 29.5979 105.864 29.7091 105.84 29.8178C105.825 29.8861 105.792 29.8515 105.763 29.8527C105.772 29.7766 105.795 29.7035 105.831 29.6374C105.845 29.6151 105.853 29.5878 105.852 29.5601C105.833 29.3644 105.897 29.1721 105.871 28.9766C105.863 28.9448 105.863 28.9113 105.872 28.8797C105.88 28.8482 105.897 28.8198 105.919 28.798C105.943 28.7761 105.967 28.7498 105.964 28.7166C105.978 28.4791 105.961 28.2406 105.913 28.0086C105.909 27.9992 105.9 27.9925 105.888 27.9782C105.759 28.0544 105.628 28.1163 105.584 28.3046C105.568 28.3728 105.559 28.5061 105.432 28.4896L105.432 28.4893C105.431 28.3743 105.46 28.2614 105.513 28.1627C105.667 27.8631 105.796 27.549 105.899 27.2244C105.917 27.1573 105.944 27.0696 106.022 27.0873C106.097 27.1043 106.121 27.1907 106.116 27.2718C106.094 27.4722 106.091 27.6744 106.108 27.8753C106.129 28.0757 106.06 28.2692 106.071 28.4689C106.069 28.4826 106.066 28.4959 106.06 28.508C106.054 28.5199 106.045 28.5304 106.035 28.5387Z" fill="#F7D317"/>
<path d="M105.485 31.1978L105.491 31.166C105.502 31.1555 105.523 31.1447 105.522 31.1345C105.533 30.9477 105.561 30.7624 105.606 30.5818C105.666 30.3445 105.714 30.1039 105.751 29.8608L105.763 29.8525C105.793 29.9216 105.799 30 105.781 30.0737C105.755 30.193 105.747 30.3169 105.724 30.437C105.714 30.5066 105.692 30.5732 105.659 30.6334C105.598 30.7282 105.614 30.8414 105.579 30.9408C105.573 30.9672 105.574 30.9949 105.584 31.02C105.607 31.0931 105.661 31.1629 105.574 31.2334C105.553 31.251 105.562 31.2943 105.582 31.324C105.605 31.3599 105.588 31.3862 105.56 31.4048C105.514 31.4356 105.478 31.4689 105.511 31.5351C105.424 31.6202 105.465 31.7592 105.396 31.8553C105.357 31.9236 105.339 32.0034 105.344 32.0833C105.347 32.3502 105.301 32.6151 105.211 32.8627C105.193 32.9018 105.183 32.9446 105.182 32.9883C105.18 33.0585 105.136 33.0243 105.106 33.0235C105.13 32.8684 105.156 32.7124 105.184 32.5599C105.217 32.2886 105.277 32.0218 105.361 31.7642C105.415 31.6039 105.461 31.4403 105.498 31.2744C105.502 31.2613 105.503 31.2475 105.501 31.2341C105.498 31.2206 105.493 31.2081 105.485 31.1978Z" fill="#F7D317"/>
<path d="M106.305 18.9264C106.308 18.9172 106.309 18.9073 106.308 18.8976C106.306 18.888 106.303 18.8789 106.297 18.8713C106.122 18.0523 105.966 17.2285 105.805 16.406C105.797 16.3653 105.774 16.323 105.806 16.2819C105.827 16.2715 105.851 16.2696 105.874 16.2765C105.896 16.2834 105.915 16.2985 105.929 16.3195C105.981 16.4327 106.013 16.5557 106.023 16.6822C106.027 16.6972 106.029 16.7125 106.032 16.7277C106.063 16.9721 106.159 17.201 106.177 17.4486C106.203 17.5856 106.236 17.7212 106.275 17.8544C106.304 18.1683 106.378 18.4751 106.494 18.7635C106.486 18.8286 106.496 18.8949 106.524 18.9535C106.578 18.9029 106.631 18.8552 106.629 18.7692C106.629 18.7461 106.633 18.7233 106.642 18.7024C106.65 18.6894 106.662 18.6796 106.675 18.6743C106.697 18.6696 106.719 18.671 106.74 18.6784C106.761 18.6858 106.779 18.702 106.789 18.7235C106.792 18.7392 106.791 18.7551 106.787 18.7705C106.689 18.9628 106.634 19.1773 106.624 19.3973C106.614 19.6173 106.65 19.8369 106.73 20.0389C106.739 20.0699 106.751 20.1028 106.788 20.1042C106.849 20.1065 106.853 20.1585 106.835 20.1957C106.748 20.3753 106.821 20.547 106.848 20.7213C106.871 20.9159 106.907 21.1083 106.956 21.2967C107.004 21.3719 106.969 21.4647 107.001 21.5431C107.071 21.6267 107.169 21.6771 107.272 21.6839C107.322 21.6793 107.37 21.6952 107.409 21.7285C107.413 21.7355 107.415 21.7434 107.415 21.7514C107.416 21.7595 107.414 21.7675 107.411 21.7749C107.339 21.8211 107.255 21.8412 107.172 21.8325C107.128 21.8289 107.084 21.843 107.049 21.8722C107.014 21.9015 106.99 21.9439 106.982 21.9912C106.962 22.0975 106.919 22.1967 106.856 22.2802C106.842 22.2956 106.824 22.3057 106.804 22.3088C106.784 22.3121 106.764 22.3083 106.746 22.298C106.723 22.28 106.708 22.2533 106.701 22.2231C106.695 22.193 106.7 22.1613 106.714 22.1345C106.845 22.0898 106.91 21.9772 106.849 21.8558C106.751 21.6053 106.688 21.3396 106.664 21.068C106.559 20.4962 106.48 19.9189 106.382 19.3455C106.368 19.2033 106.319 19.0687 106.305 18.9264Z" fill="#F7D317"/>
<path d="M106.721 22.1354C106.722 22.1855 106.731 22.2349 106.748 22.2815C106.784 22.3371 106.812 22.2997 106.841 22.2715C106.898 22.1474 106.94 22.0155 106.966 21.8792C106.968 21.8146 107.024 21.8108 107.066 21.8054C107.178 21.7909 107.291 21.7829 107.404 21.7722C107.451 21.7475 107.492 21.7105 107.523 21.6645C107.531 21.652 107.54 21.6403 107.55 21.6286C107.6 21.587 107.628 21.4644 107.706 21.521C107.79 21.5814 107.711 21.6655 107.685 21.7377C107.617 21.9281 107.484 22.0731 107.401 22.2544C107.466 22.1816 107.522 22.0996 107.567 22.0106C107.613 21.9436 107.661 21.8184 107.738 21.8669C107.815 21.9156 107.727 22.0109 107.696 22.0789C107.584 22.3273 107.41 22.5355 107.314 22.7942C107.305 22.8169 107.29 22.8368 107.273 22.8518C107.255 22.867 107.234 22.8772 107.212 22.8812C106.977 22.7565 106.77 22.5775 106.605 22.3562C106.608 22.2219 106.642 22.0907 106.638 21.9551C106.636 21.9073 106.639 21.8557 106.688 21.8293C106.729 21.8752 106.723 21.9363 106.732 21.9927C106.735 22.0278 106.736 22.0631 106.736 22.0982C106.735 22.1123 106.73 22.1255 106.721 22.1354Z" fill="#F7D317"/>
<path d="M106.67 23.6808C106.626 23.5585 106.615 23.4252 106.637 23.2963C106.651 23.1226 106.646 22.948 106.622 22.7759C106.606 22.6793 106.623 22.5793 106.671 22.4962C106.682 22.4908 106.695 22.4893 106.707 22.4921C106.719 22.495 106.731 22.5017 106.739 22.5118C106.911 22.6479 107.075 22.797 107.228 22.9579C107.234 22.974 107.238 22.991 107.239 23.0084C107.17 23.2813 107.079 23.5468 106.966 23.8015C106.96 23.8167 106.95 23.8297 106.937 23.8387C106.924 23.8479 106.91 23.8529 106.895 23.8531C106.845 23.8486 106.802 23.7821 106.747 23.8363C106.72 23.8626 106.695 23.9128 106.651 23.8666C106.636 23.8493 106.626 23.8267 106.623 23.8026C106.62 23.7783 106.625 23.7538 106.636 23.7329C106.644 23.7135 106.656 23.6958 106.67 23.6808Z" fill="#F7D317"/>
<path d="M107.29 22.9558C107.355 22.9862 107.361 23.0358 107.337 23.103C107.155 23.6223 107.003 24.1526 106.857 24.6856C106.749 25.0833 106.634 25.4795 106.562 25.8871C106.46 26.4658 106.373 27.0478 106.278 27.6283C106.229 27.9347 106.179 28.241 106.127 28.5471C106.12 28.5891 106.126 28.6567 106.052 28.6356L106.061 28.547C106.063 28.3623 106.08 28.1781 106.113 27.997C106.167 27.6985 106.214 27.3969 106.251 27.0969C106.307 26.6496 106.437 26.219 106.474 25.769C106.482 25.6766 106.504 25.5863 106.539 25.5015C106.553 25.4647 106.569 25.4313 106.53 25.4014C106.441 25.3463 106.36 25.2776 106.289 25.1973C106.289 25.1104 106.312 25.0255 106.355 24.9529L106.397 24.9979C106.4 25.0719 106.465 25.0543 106.499 25.0819L106.505 25.0908C106.519 25.1085 106.504 25.1636 106.553 25.1325L106.558 25.1286C106.624 25.123 106.646 25.077 106.662 25.0121C106.816 24.3817 107.016 23.7673 107.211 23.1514C107.23 23.093 107.25 23.0388 107.213 22.9814L107.216 22.9738C107.231 22.9155 107.259 22.9283 107.29 22.9558Z" fill="#F7D317"/>
<path d="M106.079 27.8766C106.042 27.6918 106.042 27.5005 106.077 27.3153C106.084 27.2778 106.082 27.239 106.071 27.2025C106.06 27.1661 106.041 27.1334 106.015 27.1077C105.958 27.1342 105.95 27.1924 105.933 27.2479C105.891 27.4203 105.832 27.5872 105.758 27.746C105.678 27.896 105.616 28.0561 105.537 28.2056C105.489 28.2959 105.506 28.4126 105.432 28.4892C105.299 28.4538 105.216 28.5552 105.129 28.6328C105.079 28.6892 105.034 28.7515 104.997 28.8187C104.993 28.8136 104.991 28.8079 104.99 28.8019C104.989 28.7958 104.989 28.7896 104.99 28.7836C104.991 28.7776 104.993 28.7718 104.997 28.7666C105 28.7616 105.004 28.7572 105.008 28.7538C105.017 28.6676 105.092 28.623 105.117 28.5475C105.168 28.4957 105.194 28.4035 105.292 28.4278C105.317 28.434 105.347 28.4011 105.359 28.3701C105.472 28.0867 105.623 27.8229 105.72 27.532C105.82 27.2315 105.909 26.9267 106.001 26.6231C106.013 26.5873 106.03 26.5538 106.052 26.5243C106.087 26.5199 106.122 26.5262 106.154 26.5424C106.186 26.5586 106.214 26.5842 106.233 26.6163C106.247 26.638 106.255 26.6629 106.259 26.6889C106.234 26.9531 106.216 27.2184 106.184 27.4823C106.184 27.5005 106.183 27.5187 106.18 27.5366C106.156 27.6536 106.176 27.7857 106.079 27.8766Z" fill="#F7D317"/>
<path d="M105.529 16.1495C105.511 15.8716 105.452 15.6004 105.414 15.3256C105.274 14.2891 105.191 13.2441 105.166 12.1964C105.164 12.1397 105.128 12.0646 105.195 12.0166C105.217 12.0772 105.226 12.1432 105.218 12.2083C105.247 13.3639 105.346 14.516 105.516 15.6569C105.519 15.7162 105.538 15.7729 105.571 15.82C105.604 15.8671 105.649 15.9022 105.7 15.9211C105.749 16.0181 105.762 16.1325 105.735 16.2397C105.663 16.2188 105.582 16.2213 105.529 16.1495Z" fill="#F7D317"/>
<path d="M106.709 22.0127L106.688 21.8293C106.686 21.5954 106.665 21.3623 106.625 21.1327C106.555 20.5607 106.466 19.9919 106.374 19.4237C106.372 19.4024 106.37 19.3808 106.37 19.3591C106.362 19.3241 106.376 19.3258 106.398 19.338C106.501 19.9317 106.604 20.5253 106.708 21.1189C106.738 21.2893 106.785 21.4557 106.802 21.6297C106.806 21.6902 106.828 21.7476 106.864 21.7929C106.883 21.8072 106.897 21.8266 106.905 21.8492C106.914 21.8717 106.917 21.8964 106.914 21.9207C106.906 22.0079 106.878 22.0915 106.833 22.1635C106.784 22.2246 106.758 22.1453 106.721 22.1353C106.724 22.1265 106.724 22.1169 106.722 22.1076C106.698 22.0793 106.738 22.0401 106.709 22.0127Z" fill="#F7D317"/>
<path d="M107.213 22.9814C107.226 22.9858 107.238 22.9935 107.248 23.0035C107.257 23.0136 107.265 23.026 107.27 23.0397C107.275 23.0535 107.277 23.0682 107.276 23.0829C107.274 23.0976 107.27 23.1118 107.264 23.1246C107.101 23.6226 106.951 24.125 106.805 24.6291C106.753 24.8052 106.71 24.9839 106.66 25.1635L106.558 25.1285L106.598 25.0753C106.594 24.9745 106.605 24.8735 106.63 24.7764C106.676 24.7076 106.703 24.6251 106.707 24.5395C106.75 24.4829 106.636 24.4797 106.675 24.4244C106.77 24.433 106.777 24.3548 106.791 24.2825C106.804 24.2517 106.787 24.2126 106.813 24.1852C106.826 24.1425 106.824 24.0963 106.809 24.0547C106.909 24.013 106.874 23.9113 106.891 23.8322C106.972 23.8074 106.959 23.715 106.975 23.6587C107.024 23.4934 107.118 23.3514 107.157 23.1809C107.172 23.1154 107.202 23.0507 107.213 22.9814Z" fill="#F7D317"/>
<path d="M106.237 26.6731L106.216 26.6365C106.262 26.5468 106.196 26.4724 106.187 26.3903C106.181 26.34 106.136 26.2947 106.172 26.2391C106.307 26.2514 106.369 26.1619 106.407 26.038C106.42 26.0264 106.431 26.0119 106.438 25.9952C106.446 25.9786 106.45 25.9604 106.45 25.9418C106.45 25.9232 106.447 25.9049 106.439 25.8881C106.432 25.8713 106.422 25.8563 106.409 25.8444L106.413 25.8291C106.399 25.7714 106.397 25.7108 106.409 25.6523C106.42 25.5939 106.443 25.5392 106.478 25.4926C106.519 25.4791 106.55 25.458 106.53 25.4014C106.566 25.4027 106.588 25.4199 106.58 25.4615C106.571 25.515 106.557 25.5675 106.548 25.6209C106.439 26.2526 106.328 26.8841 106.222 27.5164C106.164 27.8591 106.114 28.2033 106.061 28.5469L106.036 28.539L106.046 28.4746C106.058 28.1436 106.12 27.8196 106.159 27.4923V27.4924C106.172 27.2806 106.229 27.0763 106.245 26.8647C106.261 26.8015 106.258 26.7344 106.237 26.6731Z" fill="#F7D317"/>
<path d="M105.808 16.2916C105.85 16.5105 105.89 16.7299 105.933 16.9484C106.051 17.5516 106.17 18.1547 106.289 18.7578C106.294 18.7954 106.297 18.8335 106.297 18.8716C106.263 18.8563 106.263 18.8193 106.257 18.7893C106.092 17.9514 105.903 17.1193 105.762 16.2757C105.766 16.2725 105.77 16.2704 105.775 16.2695C105.78 16.2686 105.784 16.269 105.789 16.2705C105.793 16.2721 105.798 16.2748 105.801 16.2784C105.804 16.2822 105.807 16.2866 105.808 16.2916Z" fill="#F7D317"/>
<path d="M106.477 25.4925L106.49 25.5218C106.528 25.6124 106.525 25.6191 106.45 25.6119C106.421 25.6091 106.392 25.6022 106.355 25.5956C106.364 25.6747 106.421 25.7102 106.451 25.7632C106.485 25.8216 106.46 25.841 106.409 25.8443C106.356 25.8277 106.304 25.812 106.252 25.7942C106.211 25.78 106.153 25.7754 106.162 25.7084C106.173 25.6232 106.235 25.6963 106.272 25.6743C106.277 25.6065 106.198 25.5729 106.212 25.5021C106.238 25.4577 106.289 25.4947 106.319 25.4623C106.311 25.3981 106.198 25.3473 106.273 25.2858C106.317 25.2496 106.334 25.3647 106.38 25.3946C106.418 25.4191 106.431 25.4759 106.477 25.4925Z" fill="#F7D317"/>
<path d="M106.63 24.7763C106.657 24.7933 106.704 24.7781 106.707 24.8321C106.711 24.9038 106.643 24.8794 106.614 24.9122C106.618 24.9614 106.692 24.9831 106.661 25.0469C106.647 25.0762 106.621 25.0713 106.598 25.0753C106.548 25.0238 106.493 24.978 106.435 24.9386C106.417 24.9215 106.402 24.9003 106.392 24.8767C106.383 24.853 106.377 24.8272 106.377 24.8012C106.377 24.7751 106.381 24.7493 106.391 24.7253C106.4 24.7013 106.414 24.6798 106.431 24.6621C106.448 24.6505 106.468 24.6454 106.488 24.6482C106.507 24.6508 106.526 24.661 106.539 24.677C106.575 24.7053 106.575 24.7711 106.63 24.7763Z" fill="#F7D317"/>
<path d="M106.407 26.0376C106.409 26.0692 106.409 26.1011 106.407 26.1327C106.393 26.2502 106.345 26.2876 106.238 26.2674C106.215 26.2629 106.191 26.2549 106.168 26.2485C106.166 26.2501 106.164 26.2514 106.161 26.2519C106.159 26.2524 106.157 26.2521 106.154 26.2514C106.152 26.2505 106.15 26.2491 106.148 26.2472C106.147 26.2453 106.146 26.2429 106.145 26.2404C106.143 26.2026 106.132 26.1662 106.112 26.1352C106.088 26.0815 106.083 26.0197 106.099 25.9624C106.101 25.9391 106.108 25.9169 106.121 25.8981C106.133 25.8794 106.15 25.8647 106.17 25.8558C106.189 25.8469 106.211 25.8441 106.232 25.8477C106.252 25.8515 106.272 25.8614 106.288 25.8765C106.34 25.9174 106.381 25.973 106.407 26.0376Z" fill="#F7D317"/>
<path d="M106.145 26.2407L106.168 26.2489C106.214 26.3123 106.24 26.3906 106.241 26.4717C106.238 26.5078 106.26 26.5282 106.277 26.5552C106.322 26.6281 106.316 26.6338 106.216 26.6364L106.052 26.5245C106.027 26.4831 106.014 26.4342 106.016 26.3844C106.017 26.3347 106.033 26.2868 106.061 26.2475C106.086 26.2216 106.117 26.2441 106.145 26.2407Z" fill="#F7D317"/>
<path d="M105.808 16.2916L105.762 16.2757L105.735 16.2401C105.702 16.138 105.691 16.0292 105.7 15.9215L105.703 15.9155C105.716 15.9114 105.73 15.9126 105.743 15.9186C105.8 15.9606 105.853 16.0077 105.907 16.0537C105.944 16.121 105.962 16.199 105.958 16.2776C105.957 16.2895 105.953 16.3009 105.947 16.3109C105.941 16.321 105.933 16.3294 105.923 16.3354C105.886 16.3191 105.853 16.2865 105.808 16.2916Z" fill="#F7D317"/>
<path d="M107.29 22.9557C107.264 22.9522 107.237 22.9463 107.216 22.9735C107.078 22.8496 106.941 22.7253 106.802 22.6021C106.764 22.5595 106.719 22.5237 106.671 22.4961C106.636 22.4603 106.603 22.4207 106.575 22.3779C106.554 22.3379 106.592 22.36 106.605 22.3564L107.211 22.8648C107.228 22.8637 107.245 22.8693 107.259 22.8809C107.273 22.8923 107.283 22.909 107.287 22.9277C107.286 22.9372 107.287 22.9469 107.29 22.9557Z" fill="#F7D317"/>
<path d="M106.891 23.8319C106.905 23.8651 106.915 23.9002 106.92 23.9364C106.921 24.014 106.897 24.0732 106.809 24.0544C106.795 24.0187 106.823 24.0093 106.84 23.9914C106.884 23.9449 106.866 23.899 106.827 23.8676C106.778 23.8274 106.759 23.8662 106.749 23.9165C106.737 23.9773 106.705 23.9624 106.673 23.9375C106.573 23.8596 106.572 23.7717 106.67 23.6807C106.663 23.729 106.656 23.7772 106.652 23.8258C106.651 23.8337 106.662 23.843 106.676 23.8634C106.737 23.7721 106.81 23.7441 106.891 23.8319Z" fill="#F7D317"/>
<path d="M106.813 24.1853C106.836 24.2261 106.869 24.2698 106.791 24.2826C106.722 24.2395 106.691 24.1202 106.572 24.1727C106.546 24.1841 106.552 24.0951 106.57 24.0405C106.664 24.0653 106.72 24.1663 106.813 24.1853Z" fill="#F7D317"/>
<path d="M106.675 24.4239C106.689 24.4626 106.731 24.4623 106.752 24.4909C106.765 24.5078 106.779 24.5293 106.76 24.5443C106.749 24.5527 106.725 24.5414 106.708 24.5391C106.645 24.4859 106.592 24.4034 106.496 24.4545C106.482 24.4113 106.48 24.3643 106.491 24.3198C106.569 24.3315 106.612 24.4004 106.675 24.4239Z" fill="#F7D317"/>
<path d="M106.398 19.3383L106.37 19.3594C106.325 19.2206 106.303 19.0741 106.305 18.9268C106.352 19.0591 106.383 19.1974 106.398 19.3383Z" fill="#F7D317"/>
<path d="M106.499 25.0814C106.434 25.0424 106.441 25.1552 106.383 25.1474C106.366 25.0938 106.392 25.0463 106.397 24.9976C106.428 25.0308 106.482 25.0293 106.499 25.0814Z" fill="#F7D317"/>
<path d="M106.554 25.1321C106.542 25.1682 106.551 25.2161 106.497 25.2385C106.472 25.185 106.5 25.1377 106.506 25.0903L106.554 25.1321Z" fill="#F7D317"/>
<path d="M106.356 24.9526C106.326 25.0315 106.303 25.1134 106.289 25.1972C106.275 25.1539 106.275 25.1072 106.287 25.0635C106.299 25.0197 106.323 24.981 106.356 24.9526Z" fill="#F7D317"/>
<path d="M104.579 36.7635C104.563 36.8511 104.516 36.9097 104.479 36.8965C104.426 36.8482 104.391 36.7804 104.38 36.7057C104.391 36.6757 104.412 36.6511 104.438 36.6364C104.464 36.6219 104.495 36.6182 104.523 36.6262C104.591 36.6516 104.58 36.7169 104.579 36.7635Z" fill="#F7D317"/>
<path d="M107.287 22.9276C107.256 22.9173 107.229 22.895 107.211 22.8647C107.275 22.805 107.326 22.7304 107.361 22.6466C107.472 22.4168 107.593 22.1925 107.711 21.9661C107.725 21.9394 107.752 21.9173 107.729 21.8719C107.65 21.9447 107.586 22.0349 107.541 22.1367C107.51 22.2111 107.464 22.2772 107.408 22.3307C107.388 22.345 107.366 22.3659 107.341 22.345C107.317 22.3249 107.324 22.2937 107.333 22.2704C107.389 22.1552 107.456 22.0476 107.534 21.9498C107.609 21.8397 107.644 21.7083 107.712 21.5951C107.722 21.5776 107.714 21.5528 107.692 21.532C107.623 21.548 107.616 21.6536 107.545 21.67C107.527 21.6517 107.514 21.6287 107.506 21.6032C107.498 21.5777 107.496 21.5506 107.501 21.5241C107.515 21.4857 107.548 21.4708 107.577 21.4503C107.7 21.3415 107.808 21.2137 107.897 21.0709C108.068 20.8582 108.204 20.6157 108.367 20.3962C108.407 20.3409 108.451 20.2892 108.498 20.2411C108.693 20.0079 108.875 19.7624 109.043 19.5058C109.056 19.4823 109.062 19.4548 109.06 19.4274C109.061 19.412 109.064 19.3967 109.068 19.3818C109.09 19.2971 109.176 19.3218 109.22 19.2756C109.281 19.2375 109.311 19.1485 109.394 19.1457C109.409 19.1468 109.423 19.1516 109.436 19.1599C109.609 19.2884 109.612 19.2912 109.739 19.1127C110.468 18.0852 111.219 17.076 111.87 15.9838C111.91 15.9356 111.935 15.874 111.941 15.8085C112.029 15.5517 112.169 15.3204 112.35 15.1314C112.397 15.0864 112.41 14.9992 112.489 14.9912C112.496 15.0019 112.501 15.0142 112.503 15.0272C112.506 15.0404 112.506 15.0539 112.503 15.0669C112.374 15.3243 112.241 15.5791 112.095 15.8253C111.719 16.4617 111.34 17.0957 110.917 17.6971C110.659 18.0647 110.406 18.4373 110.127 18.7869C109.886 19.0906 109.656 19.4058 109.419 19.7134C109.327 19.7949 109.244 19.8891 109.174 19.994C109.121 20.0702 109.052 20.1362 108.994 20.2079C108.834 20.3692 108.696 20.5551 108.584 20.7597C108.519 20.8764 108.434 20.9783 108.334 21.0596C108.268 21.1252 108.191 21.1793 108.175 21.2866C108.173 21.2974 108.167 21.3072 108.16 21.3144C107.997 21.5109 107.884 21.7508 107.832 22.0101C107.779 22.166 107.684 22.3001 107.559 22.3941C107.515 22.4301 107.481 22.4787 107.461 22.5346C107.406 22.6671 107.345 22.7967 107.287 22.9276Z" fill="#F7D317"/>
<path d="M111.372 2.60352C111.564 2.67608 111.767 2.7074 111.954 2.79687C112.153 2.86178 112.343 2.95735 112.517 3.08076C112.694 3.2422 112.901 3.34564 113.087 3.48724C113.255 3.63792 113.435 3.77236 113.59 3.9395C113.899 4.25441 114.161 4.62113 114.366 5.02606C114.5 5.3175 114.608 5.62235 114.691 5.93647C114.71 6.00803 114.749 6.09372 114.676 6.16411C114.653 6.18566 114.663 6.21391 114.667 6.24042C114.718 6.58953 114.741 6.94297 114.734 7.29652C114.732 7.50323 114.704 7.70803 114.687 7.91356C114.626 8.37258 114.541 8.82753 114.435 9.2763C114.417 9.32787 114.417 9.38429 114.431 9.43653L114.412 9.45629C114.382 9.46774 114.35 9.46873 114.321 9.45913C114.29 9.44951 114.264 9.42979 114.244 9.40271C114.23 9.31923 114.237 9.23334 114.264 9.15358C114.288 9.07057 114.299 8.98377 114.298 8.89666C114.291 8.86224 114.292 8.82674 114.3 8.79277C114.401 8.58976 114.445 8.35905 114.429 8.12858C114.423 8.09549 114.426 8.06145 114.434 8.02904C114.487 7.86564 114.509 7.69143 114.498 7.51802C114.51 7.44221 114.507 7.36436 114.487 7.29016C114.477 7.26027 114.475 7.22768 114.479 7.19611C114.529 6.94926 114.515 6.69255 114.439 6.45371C114.423 6.41891 114.411 6.3818 114.403 6.34339C114.413 6.18103 114.382 6.01876 114.314 5.87451C114.292 5.81012 114.276 5.74352 114.266 5.67567C114.226 5.52151 114.163 5.37608 114.078 5.2458C113.987 5.17313 113.998 4.99712 113.851 4.97849C113.834 4.97636 113.836 4.92946 113.843 4.90395C113.849 4.87777 113.848 4.85024 113.84 4.82487C113.831 4.7995 113.816 4.77744 113.796 4.76151C113.707 4.60168 113.592 4.46043 113.458 4.3442C113.398 4.28432 113.344 4.21673 113.28 4.16076C113.239 4.11024 113.194 4.06475 113.144 4.02508C113.02 3.94091 112.899 3.84916 112.784 3.75028C112.733 3.71111 112.679 3.67762 112.63 3.63662C112.591 3.60791 112.548 3.58565 112.503 3.57052C112.49 3.56459 112.477 3.55774 112.465 3.55005C112.386 3.51077 112.306 3.47421 112.23 3.42754C112.14 3.364 112.04 3.32322 111.934 3.30819C111.905 3.29974 111.876 3.28778 111.848 3.27251C111.745 3.1934 111.622 3.14875 111.496 3.14386C111.467 3.14419 111.438 3.13818 111.411 3.12616C111.399 3.11903 111.387 3.10993 111.377 3.09916C111.348 3.05375 111.292 3.03903 111.268 2.98721C111.252 2.94629 111.246 2.90185 111.249 2.85764C111.249 2.81438 111.257 2.77151 111.272 2.73155C111.287 2.69159 111.309 2.65535 111.337 2.62497L111.372 2.60352Z" fill="#F7D317"/>
<path d="M114.509 9.5019C114.388 10.0371 114.23 10.5614 114.037 11.0701C113.965 11.3514 113.875 11.6269 113.769 11.8948C113.651 12.2468 113.516 12.5916 113.379 12.935C113.35 12.9759 113.329 13.023 113.317 13.0731C113.309 13.0977 113.296 13.1202 113.28 13.1393C113.222 13.1784 113.191 13.1627 113.188 13.086C113.19 13.0597 113.197 13.0341 113.207 13.0103C113.226 12.9711 113.24 12.9287 113.247 12.8851C113.357 12.5402 113.504 12.2129 113.623 11.8722C113.813 11.3224 114.004 10.7731 114.166 10.2117C114.217 10.0349 114.269 9.85942 114.31 9.67907C114.323 9.59201 114.362 9.51221 114.421 9.45248L114.431 9.43651C114.492 9.40882 114.492 9.40881 114.509 9.5019Z" fill="#F7D317"/>
<path d="M105.213 10.4413C105.192 10.3012 105.193 10.1582 105.214 10.0182C105.236 9.63248 105.259 9.24628 105.301 8.8629C105.334 8.56553 105.367 8.26767 105.411 7.97127C105.452 7.69584 105.5 7.42225 105.555 7.1505C105.565 7.09846 105.564 7.03965 105.61 7.00244C105.651 7.04868 105.638 7.10431 105.63 7.15738C105.536 7.73852 105.449 8.32072 105.391 8.90777C105.359 9.22865 105.34 9.55064 105.316 9.87226C105.312 9.92399 105.318 9.97619 105.333 10.0252C105.349 10.0742 105.375 10.1188 105.408 10.1559C105.443 10.2764 105.434 10.4074 105.382 10.5203C105.324 10.4996 105.267 10.4731 105.213 10.4413Z" fill="#F7D317"/>
<path d="M105.544 14.771C105.457 14.1528 105.401 13.53 105.376 12.9054C105.361 12.7267 105.357 12.5471 105.365 12.3678C105.372 12.3634 105.38 12.3608 105.388 12.3604C105.396 12.36 105.404 12.3617 105.411 12.3654C105.472 12.4157 105.466 12.4904 105.468 12.5604C105.485 13.2212 105.533 13.8808 105.61 14.5363C105.618 14.5961 105.618 14.6566 105.611 14.7164C105.599 14.7494 105.59 14.788 105.544 14.771Z" fill="#F7D317"/>
<path d="M105.401 12.3715L105.365 12.3681C105.343 12.0308 105.357 11.6934 105.363 11.3561C105.367 11.1382 105.377 10.9205 105.385 10.7028C105.387 10.6541 105.397 10.6058 105.403 10.5572C105.415 10.5506 105.428 10.549 105.441 10.5528C105.453 10.5566 105.464 10.5655 105.471 10.5777C105.48 10.8109 105.476 11.0444 105.46 11.2771C105.46 11.5817 105.441 11.8862 105.448 12.1911C105.449 12.2554 105.455 12.3238 105.401 12.3715Z" fill="#F7D317"/>
<path d="M105.453 10.5761L105.403 10.5573L105.382 10.5204C105.368 10.4099 105.379 10.2974 105.413 10.1925L105.432 10.1841C105.445 10.1862 105.458 10.1924 105.468 10.2021C105.5 10.2411 105.531 10.2806 105.563 10.3197C105.577 10.3392 105.587 10.3612 105.593 10.3846C105.606 10.4254 105.609 10.4692 105.602 10.5117C105.595 10.5542 105.578 10.5939 105.552 10.6269C105.503 10.6488 105.482 10.6039 105.453 10.5761Z" fill="#F7D317"/>
<path d="M105.543 14.7711C105.571 14.7645 105.578 14.7383 105.587 14.7139C105.64 14.7229 105.642 14.7729 105.644 14.8134C105.658 15.1394 105.715 15.4592 105.755 15.7816C105.761 15.8323 105.782 15.8906 105.726 15.9283C105.717 15.9274 105.709 15.9228 105.703 15.9153C105.647 15.5499 105.592 15.1846 105.537 14.8192C105.537 14.8029 105.539 14.7867 105.543 14.7711Z" fill="#F7D317"/>
<path d="M111.337 2.6251C111.329 2.71949 111.309 2.81219 111.278 2.90047C111.209 2.94325 111.142 2.90789 111.075 2.89295C110.515 2.76535 109.941 2.7357 109.372 2.80508C109.17 2.83161 108.97 2.87727 108.775 2.94154C108.725 2.96538 108.67 2.97466 108.616 2.96851C108.594 3.00639 108.577 2.87945 108.553 2.96727C108.55 2.97344 108.546 2.9789 108.541 2.98331C108.536 2.98772 108.53 2.99099 108.524 2.99294C108.503 2.9755 108.477 2.96708 108.451 2.96927C108.425 2.97147 108.4 2.98412 108.382 3.00485C108.262 3.11046 108.084 3.13138 107.978 3.22784C107.882 3.31537 107.766 3.27126 107.683 3.36382C107.661 3.38292 107.643 3.40743 107.631 3.43545C107.618 3.46347 107.612 3.49424 107.612 3.52535C107.592 3.59104 107.546 3.59478 107.494 3.587C107.342 3.70547 107.2 3.83698 107.068 3.98027C107.036 4.00877 107.006 4.0407 106.98 4.07564C106.886 4.20649 106.803 4.34676 106.711 4.47987C106.476 4.85628 106.287 5.26375 106.146 5.69257C106.124 5.75303 106.113 5.82036 106.042 5.83774C105.904 5.77899 105.973 5.67683 105.998 5.58366C106.181 5.07475 106.424 4.59483 106.722 4.15661C107.185 3.49913 107.818 3.01037 108.537 2.75419C108.787 2.66132 109.046 2.60887 109.302 2.54107L109.767 2.48679C109.941 2.45569 110.118 2.44203 110.295 2.44597C110.563 2.45746 110.829 2.4991 111.089 2.57021C111.171 2.59043 111.254 2.60691 111.337 2.6251Z" fill="#F7D317"/>
<path d="M105.413 10.1922C105.362 10.171 105.319 10.1308 105.292 10.0785C105.265 10.0262 105.255 9.96518 105.265 9.90598C105.307 9.38972 105.34 8.87242 105.406 8.35909C105.458 7.94817 105.517 7.53809 105.595 7.13178C105.603 7.08939 105.605 7.04558 105.61 7.00233C105.596 6.96133 105.578 6.97531 105.56 6.99892L105.525 7.04484C105.558 6.69952 105.654 6.36497 105.806 6.06067C105.844 6.05907 105.882 6.07325 105.911 6.10038C105.94 6.12752 105.958 6.16565 105.963 6.20724C105.922 6.57566 105.82 6.9302 105.755 7.29298C105.627 7.94586 105.546 8.60858 105.512 9.27522C105.496 9.5406 105.499 9.80757 105.463 10.0716C105.457 10.1153 105.457 10.1587 105.422 10.1886L105.413 10.1922Z" fill="#F7D317"/>
<path d="M105.947 6.18008L105.806 6.06074C105.846 5.89135 105.911 5.7302 105.998 5.5835C105.977 5.67602 105.944 5.77188 106.055 5.82779C106.061 5.84262 106.065 5.85886 106.065 5.87539C106.066 5.98324 106.032 6.08776 105.968 6.16955L105.947 6.18008Z" fill="#F7D317"/>
<path d="M113.264 13.1291L113.28 13.074C113.318 13.0421 113.3 12.9813 113.334 12.9471C113.41 12.7888 113.474 12.6244 113.527 12.4553C113.671 12.0751 113.808 11.692 113.945 11.3088C113.964 11.2246 113.995 11.1442 114.037 11.0703C114.095 11.0954 114.069 11.1371 114.055 11.1774C113.964 11.4428 113.876 11.7099 113.78 11.9736C113.547 12.6175 113.305 13.257 113.024 13.8782C112.865 14.2303 112.693 14.5749 112.517 14.917C112.506 14.9411 112.497 14.9659 112.488 14.9913C112.445 15.0428 112.41 15.1014 112.383 15.1651C112.313 15.1987 112.274 15.1428 112.23 15.0993C112.194 15.0479 112.133 15.0201 112.113 14.9526C112.136 14.8484 112.162 14.7468 112.269 14.7061C112.325 14.7048 112.381 14.712 112.435 14.7271C112.517 14.7366 112.528 14.656 112.556 14.6045C112.776 14.1947 112.963 13.7657 113.145 13.3345C113.174 13.2595 113.215 13.1901 113.264 13.1291Z" fill="#F7D317"/>
<path d="M104.976 28.9146C105.014 28.9718 104.972 29.0534 105.033 29.1094C105.067 29.1406 105.024 29.1837 105 29.203C104.97 29.223 104.948 29.2544 104.938 29.2913C104.927 29.3282 104.93 29.3679 104.945 29.4025C104.955 29.4279 104.956 29.4562 104.947 29.482C104.859 29.6545 104.896 29.8556 104.838 30.0352C104.809 30.1269 104.806 30.2294 104.737 30.303C104.726 30.315 104.719 30.3296 104.715 30.3455C104.711 30.3614 104.711 30.3781 104.714 30.3941C104.724 30.5996 104.691 30.8048 104.619 30.9943C104.538 31.1691 104.493 31.3616 104.489 31.5577C104.49 31.5852 104.484 31.6127 104.473 31.6374C104.396 31.8203 104.354 32.0192 104.352 32.2209C104.351 32.2571 104.339 32.2919 104.316 32.3186C104.294 32.3455 104.264 32.3627 104.231 32.3669C104.263 32.1319 104.306 31.8988 104.36 31.6686C104.384 31.5916 104.396 31.5111 104.397 31.4301L104.436 31.2402C104.513 31.0583 104.504 30.8502 104.582 30.6689L104.609 30.5411C104.672 30.1192 104.758 29.7019 104.867 29.2913L104.942 28.9414C104.951 28.9291 104.963 28.9198 104.976 28.9146Z" fill="#F7D317"/>
<path d="M104.211 32.4619C104.218 32.6386 104.193 32.8151 104.138 32.9811C104.119 33.0362 104.139 33.0986 104.13 33.1592C104.108 33.3145 104.045 33.4594 103.95 33.577L104.183 32.4568C104.194 32.4439 104.204 32.4455 104.211 32.4619Z" fill="#F7D317"/>
<path d="M103.711 34.73C103.781 34.829 103.721 34.9274 103.698 35.0178C103.67 35.1341 103.648 35.2522 103.632 35.3715C103.634 35.4475 103.612 35.522 103.569 35.582C103.539 35.6141 103.517 35.6548 103.506 35.6996C103.495 35.7443 103.495 35.7916 103.506 35.8363C103.514 35.8563 103.518 35.8779 103.517 35.8996C103.516 35.9213 103.511 35.9425 103.501 35.9616C103.492 35.9808 103.478 35.9973 103.462 36.01C103.446 36.0225 103.428 36.0309 103.408 36.0346C103.502 35.5977 103.638 35.1726 103.711 34.73Z" fill="#F7D317"/>
<path d="M103.938 33.6421C103.967 33.6754 103.985 33.7184 103.989 33.7641C103.993 33.8099 103.983 33.8559 103.96 33.8945C103.905 34.0631 103.864 34.2371 103.839 34.4141C103.821 34.4887 103.808 34.5638 103.737 34.6023L103.938 33.6421Z" fill="#F7D317"/>
<path d="M104.867 29.2915L104.608 30.5415C104.581 30.5007 104.597 30.4581 104.605 30.4167C104.676 30.0733 104.747 29.7301 104.819 29.3869C104.826 29.3501 104.831 29.3113 104.867 29.2915Z" fill="#F7D317"/>
<path d="M104.211 32.462L104.183 32.4569L104.397 31.4302C104.428 31.4838 104.403 31.5361 104.392 31.5876C104.34 31.8477 104.285 32.1073 104.231 32.3672L104.211 32.462Z" fill="#F7D317"/>
<path d="M104.582 30.6689C104.552 30.817 104.522 30.9651 104.491 31.1127C104.481 31.1592 104.481 31.2116 104.436 31.2404C104.466 31.0923 104.496 30.9439 104.527 30.7961C104.537 30.75 104.536 30.6967 104.582 30.6689Z" fill="#F7D317"/>
<path d="M104.976 28.9146L104.942 28.9413C104.96 28.8772 104.948 28.7999 105.009 28.7539L104.997 28.8188L104.976 28.9146Z" fill="#F7D317"/>
<path d="M110.295 2.44598C110.288 2.46116 110.278 2.47396 110.266 2.48272C110.253 2.49148 110.238 2.49578 110.223 2.4951C110.071 2.48765 109.918 2.50991 109.767 2.48713C109.789 2.46259 109.817 2.44363 109.847 2.43145C109.876 2.41928 109.908 2.41415 109.94 2.41643C110.059 2.39469 110.18 2.40482 110.295 2.44598Z" fill="#F7D317"/>
<path d="M106.159 27.4922C106.165 27.5123 106.178 27.5351 106.173 27.5521C106.125 27.734 106.133 27.9254 106.093 28.1086C106.086 28.2317 106.07 28.354 106.046 28.4745C106.025 28.393 106.024 28.3068 106.042 28.2244C106.063 28.1097 106.075 27.9935 106.079 27.8767L106.159 27.4922Z" fill="#F7D317"/>
<path d="M107.411 21.7391L107.545 21.6699C107.526 21.7504 107.489 21.8019 107.404 21.7729L107.411 21.7391Z" fill="#F7D317"/>
<path d="M106.841 22.2715C106.833 22.3041 106.822 22.3387 106.788 22.3397C106.759 22.3404 106.751 22.3094 106.748 22.2816C106.779 22.2877 106.811 22.2841 106.841 22.2715Z" fill="#F7D317"/>
<path d="M106.709 22.0132C106.739 22.0406 106.733 22.0743 106.723 22.1087C106.693 22.0811 106.703 22.0468 106.709 22.0132Z" fill="#F7D317"/>
<path d="M106.236 26.6729C106.327 26.7149 106.3 26.796 106.286 26.8683C106.246 27.0767 106.202 27.2842 106.159 27.4922C106.144 27.4582 106.137 27.4208 106.137 27.3831C106.138 27.3454 106.146 27.3082 106.162 27.2745C106.184 27.1712 106.192 27.0648 106.186 26.9588C106.195 26.862 106.212 26.7664 106.236 26.6729Z" fill="#F7D317"/>
<path d="M106.238 25.963C106.266 25.9742 106.289 25.9957 106.305 26.024C106.32 26.0523 106.325 26.0855 106.321 26.1179C106.32 26.1276 106.317 26.1368 106.312 26.1448C106.306 26.1527 106.3 26.1592 106.292 26.1636C106.284 26.168 106.275 26.1703 106.267 26.1702C106.258 26.17 106.249 26.1674 106.241 26.1628C106.214 26.1487 106.192 26.1252 106.179 26.0958C106.165 26.0666 106.161 26.0333 106.166 26.0011C106.168 25.993 106.172 25.9857 106.177 25.9793C106.181 25.9731 106.187 25.9679 106.194 25.9644C106.201 25.9608 106.208 25.9588 106.216 25.9585C106.223 25.9584 106.231 25.9599 106.238 25.963Z" fill="#F7D317"/>
<path d="M105.526 11.8728C105.521 11.9737 105.521 12.0748 105.525 12.1757L105.539 12.1939C105.549 12.2398 105.554 12.2867 105.555 12.3338C105.544 12.4606 105.601 12.5909 105.54 12.7151C105.539 12.9611 105.54 13.2073 105.538 13.4533C105.538 13.498 105.537 13.5398 105.574 13.5691L105.588 13.5878C105.597 13.8048 105.617 14.021 105.649 14.2354L105.649 14.2588C105.627 14.4146 105.631 14.5736 105.663 14.7275C105.671 14.9163 105.705 15.1038 105.73 15.2916C105.735 15.3334 105.735 15.3806 105.777 15.4051L105.791 15.4208C105.812 15.488 105.824 15.5586 105.824 15.6299L105.819 15.6504L105.86 15.8979C105.882 15.9186 105.897 15.9474 105.901 15.9789C105.906 16.0104 105.901 16.0428 105.886 16.0703C105.823 16.0381 105.768 15.9893 105.726 15.9282C105.735 15.897 105.734 15.8636 105.724 15.833C105.685 15.5499 105.647 15.2668 105.609 14.9838C105.597 14.8943 105.625 14.8007 105.587 14.7136C105.552 14.337 105.519 13.9601 105.482 13.5838C105.447 13.2278 105.44 12.8702 105.427 12.513C105.43 12.4639 105.421 12.4149 105.401 12.3711C105.407 12.0173 105.411 11.6634 105.418 11.3096C105.423 11.0646 105.427 10.8194 105.454 10.5757C105.486 10.5815 105.516 10.5952 105.542 10.6156C105.533 10.8152 105.526 11.0144 105.529 11.215C105.532 11.3696 105.508 11.5265 105.507 11.6831C105.499 11.7473 105.506 11.8127 105.526 11.8735L105.526 11.8728Z" fill="#F7D317"/>
<path d="M111.983 15.8141C111.992 15.8987 111.935 15.9509 111.899 16.0108C111.462 16.736 110.989 17.4316 110.499 18.1145C110.229 18.4924 109.958 18.8701 109.687 19.2479C109.591 19.3816 109.59 19.3798 109.477 19.2565C109.446 19.2221 109.424 19.1767 109.382 19.1546C109.371 19.1336 109.368 19.1088 109.373 19.0853C109.392 19.0238 109.43 18.9714 109.48 18.937C109.506 18.9206 109.535 18.9118 109.565 18.9115C109.709 18.9737 109.798 18.9066 109.889 18.7807C110.316 18.1923 110.73 17.5925 111.147 16.9956C111.169 16.9655 111.189 16.9335 111.207 16.8998C111.215 16.8861 111.223 16.8731 111.232 16.8607C111.441 16.5669 111.618 16.2495 111.814 15.946C111.855 15.8818 111.886 15.7956 111.983 15.8141Z" fill="#F7D317"/>
<path d="M111.982 15.8139C111.92 15.8345 111.89 15.892 111.856 15.9461C111.688 16.2168 111.519 16.487 111.349 16.7569C111.321 16.8146 111.283 16.8654 111.236 16.906C111.191 16.8371 111.229 16.7815 111.262 16.7275C111.569 16.2293 111.879 15.7342 112.147 15.2087C112.167 15.1522 112.205 15.1053 112.254 15.0762C112.293 15.1122 112.323 15.1651 112.384 15.1649C112.315 15.2062 112.258 15.2674 112.219 15.3417C112.157 15.4657 112.088 15.585 112.012 15.6988C111.992 15.7277 111.954 15.764 111.982 15.8139Z" fill="#F7D317"/>
<path d="M109.388 19.1069L109.382 19.1543L109.24 19.3093L109.229 19.2916C109.24 19.1867 109.275 19.1061 109.388 19.1069Z" fill="#F7D317"/>
<path d="M112.622 13.8808L112.657 13.8541C112.712 13.8122 112.709 13.7297 112.758 13.6832C112.795 13.648 112.824 13.6347 112.833 13.7053L112.836 13.7114C112.839 13.7027 112.841 13.6938 112.843 13.6849C112.812 13.6053 112.811 13.5419 112.896 13.4981C112.953 13.4689 112.972 13.3986 112.995 13.3384C113.093 13.0759 113.218 12.8248 113.303 12.5573C113.424 12.1739 113.598 11.8144 113.712 11.4279C113.735 11.3679 113.743 11.302 113.734 11.2374C113.705 11.0806 113.798 10.9544 113.838 10.8169C113.896 10.6155 113.969 10.4186 114.021 10.2143L114.044 10.1242C114.039 10.1157 114.038 10.109 114.043 10.1042L114.052 10.0983C114.127 9.93254 114.175 9.75447 114.197 9.57127C114.204 9.51265 114.225 9.45682 114.256 9.4082C114.313 9.40862 114.37 9.42383 114.421 9.45261C114.248 10.1305 114.039 10.795 113.813 11.4536C113.642 11.9483 113.446 12.4314 113.276 12.9256C113.252 12.9526 113.258 12.9954 113.234 13.0225L113.215 13.081C113.1 13.4492 112.955 13.8054 112.781 14.145C112.712 14.307 112.634 14.4651 112.55 14.6192C112.521 14.6743 112.499 14.7392 112.439 14.7667C112.379 14.7652 112.32 14.7522 112.264 14.7279C112.25 14.6995 112.245 14.6666 112.25 14.6346C112.254 14.6024 112.268 14.573 112.29 14.5507C112.341 14.4726 112.382 14.3867 112.411 14.2957C112.467 14.1494 112.538 14.0103 112.622 13.8808Z" fill="#F7D317"/>
<path d="M111.279 2.98877C111.162 2.98242 111.05 2.90802 110.928 2.95456C110.914 2.95978 110.893 2.938 110.875 2.93262C110.749 2.88479 110.616 2.86338 110.483 2.86953C110.391 2.87997 110.295 2.81793 110.194 2.82272C110.11 2.81732 110.026 2.8243 109.944 2.84347C109.863 2.87135 109.78 2.8216 109.695 2.82552C109.571 2.82099 109.448 2.84085 109.33 2.88417C109.287 2.89847 109.241 2.89865 109.198 2.88469C109.1 2.88659 109.003 2.90649 108.911 2.94358L108.907 2.94522C108.786 3.00729 108.666 3.09506 108.531 2.9823C108.531 2.97359 108.533 2.96503 108.536 2.957C108.552 2.94447 108.561 2.92192 108.585 2.92414C108.622 2.94108 108.664 2.94123 108.701 2.92456C109.151 2.77205 109.62 2.70345 110.091 2.7216C110.293 2.7216 110.496 2.74169 110.695 2.7816C110.892 2.80611 111.086 2.84583 111.278 2.90044C111.283 2.91434 111.286 2.92931 111.287 2.94448C111.287 2.95964 111.284 2.97471 111.279 2.98877Z" fill="#F7D317"/>
<path d="M112.629 3.60511C112.582 3.58944 112.523 3.60037 112.496 3.53711C112.547 3.54004 112.594 3.56439 112.629 3.60511Z" fill="#F7D317"/>
<path d="M112.438 14.7668C112.59 14.4431 112.756 14.1273 112.896 13.7965C112.989 13.5744 113.084 13.3526 113.179 13.1313C113.189 13.1131 113.201 13.0962 113.214 13.0811C113.211 13.1221 113.221 13.1466 113.264 13.129C113.132 13.4843 112.983 13.8318 112.818 14.1703C112.731 14.3584 112.632 14.5398 112.542 14.7266C112.515 14.7823 112.488 14.7993 112.438 14.7668Z" fill="#F7D317"/>
<path d="M113.334 12.9468C113.324 12.993 113.323 13.0439 113.28 13.0736C113.293 13.0288 113.287 12.9741 113.334 12.9468Z" fill="#F7D317"/>
<path d="M113.234 13.0233C113.233 13.0045 113.236 12.9857 113.244 12.9687C113.251 12.9516 113.262 12.9368 113.276 12.9258C113.276 12.965 113.272 13.0031 113.234 13.0233Z" fill="#F7D317"/>
<path d="M106.094 6.29204C106.063 6.46855 106.023 6.64298 105.975 6.81445C105.947 6.90236 105.928 6.99359 105.92 7.08624C105.902 7.22544 105.875 7.36251 105.852 7.50036C105.765 7.9493 105.708 8.40455 105.682 8.86253C105.677 8.98213 105.642 9.09776 105.635 9.21868C105.617 9.5397 105.592 9.86027 105.568 10.1808C105.563 10.2348 105.55 10.288 105.542 10.3416C105.499 10.3038 105.465 10.256 105.441 10.2017C105.479 9.31507 105.562 8.43147 105.69 7.55502C105.701 7.47946 105.719 7.40545 105.734 7.33064C105.814 6.96906 105.875 6.60262 105.967 6.24431C106.035 6.17904 106.066 6.22992 106.094 6.29204Z" fill="#F7D317"/>
<path d="M105.761 7.34701C105.705 7.76794 105.643 8.18798 105.594 8.60983C105.54 9.07469 105.496 9.541 105.472 10.0092C105.472 10.0748 105.462 10.1398 105.441 10.2015C105.434 10.1988 105.427 10.1944 105.422 10.1886C105.446 9.72119 105.456 9.25221 105.499 8.78676C105.538 8.30367 105.604 7.82368 105.696 7.34951C105.701 7.33379 105.706 7.31844 105.712 7.30353C105.749 7.29054 105.749 7.32665 105.761 7.34701Z" fill="#F7D317"/>
<path d="M106.417 5.35611C106.327 5.51266 106.265 5.68641 106.234 5.86825C106.223 5.92527 106.203 5.97979 106.175 6.02957C106.158 6.02497 106.141 6.0166 106.127 6.00495C106.112 5.9933 106.1 5.9786 106.091 5.9617C106.081 5.94479 106.075 5.92604 106.073 5.90652C106.07 5.887 106.071 5.8671 106.076 5.84799C106.23 5.38829 106.425 4.94649 106.658 4.52902C106.783 4.38621 106.887 4.22251 106.966 4.04399C106.989 4.01375 107.005 3.97467 107.042 3.95919C107.05 3.96945 107.055 3.98244 107.056 3.99613C107.057 4.0098 107.053 4.02338 107.046 4.03474C107.061 4.01994 107.064 3.99742 107.076 3.98179C107.203 3.81989 107.365 3.698 107.495 3.53905C107.531 3.55946 107.567 3.57625 107.595 3.52539C107.645 3.53943 107.635 3.56901 107.612 3.60226C107.468 3.71098 107.344 3.84858 107.247 4.00784L107.242 4.02838C107.225 4.05856 107.205 4.08673 107.183 4.11242C107.141 4.15676 107.108 4.21331 107.046 4.22893C106.962 4.29337 106.949 4.41656 106.872 4.48684L106.869 4.50902C106.84 4.56788 106.808 4.6247 106.773 4.67913C106.766 4.69219 106.759 4.70459 106.751 4.71688C106.724 4.76922 106.693 4.81881 106.658 4.86505L106.639 4.87452C106.585 4.93818 106.547 5.01605 106.529 5.10064C106.516 5.14742 106.499 5.19235 106.477 5.23436L106.474 5.25473C106.469 5.28913 106.455 5.32124 106.434 5.34714L106.417 5.35611Z" fill="#F7D317"/>
<path d="M107.612 3.60241C107.613 3.57512 107.62 3.54629 107.595 3.52555C107.557 3.40528 107.557 3.4054 107.664 3.34188C107.677 3.33427 107.689 3.32538 107.701 3.31532C107.79 3.2361 107.79 3.23596 107.892 3.29167C107.904 3.28955 107.906 3.28183 107.904 3.26776C107.9 3.22289 107.86 3.16989 107.916 3.1365C107.973 3.10256 107.971 3.20125 108.016 3.19914C108.048 3.16579 107.964 3.12763 108.024 3.09133C108.099 3.04498 108.076 3.15156 108.118 3.15773C108.132 3.11026 108.084 3.04066 108.145 3.01338C108.206 2.98589 108.207 3.0883 108.259 3.09466C108.318 3.06652 108.252 3.00382 108.29 2.96675C108.318 2.95084 108.356 3.0485 108.388 2.95138C108.418 2.85885 108.43 2.86368 108.49 2.9362C108.503 2.95213 108.517 2.96699 108.531 2.9823C108.634 3.01311 108.744 2.99768 108.836 2.93942C108.852 2.92804 108.883 2.94261 108.907 2.94518L108.905 2.9755L108.893 2.99178C108.871 3.00815 108.847 3.01902 108.822 3.02358L108.802 3.0221C108.746 3.03238 108.769 3.11282 108.721 3.1311L108.703 3.12211C108.486 3.12097 108.276 3.20381 108.11 3.35606C108.095 3.3847 108.091 3.41857 108.098 3.45058C108.109 3.48441 108.109 3.52149 108.097 3.55517C108.086 3.58886 108.064 3.61695 108.035 3.63445L108.017 3.69631L108.016 3.69722L107.963 3.68374L107.962 3.68173L107.913 3.60397C107.904 3.54509 107.966 3.50328 107.946 3.44174C107.922 3.44355 107.899 3.45016 107.878 3.46125C107.797 3.52387 107.707 3.57156 107.612 3.60241Z" fill="#F7D317"/>
<path d="M106.685 4.51986C106.676 4.60691 106.643 4.68883 106.59 4.75396C106.383 5.10367 106.215 5.48006 106.091 5.87467C106.068 5.8843 106.06 5.86978 106.056 5.84878C106.053 5.84201 106.053 5.83468 106.055 5.82777C106.156 5.52138 106.274 5.22241 106.41 4.93274C106.486 4.75607 106.582 4.5904 106.695 4.43945C106.7 4.4454 106.703 4.45228 106.705 4.45964C106.706 4.467 106.707 4.47469 106.706 4.48224C106.705 4.48978 106.702 4.49701 106.699 4.50349C106.695 4.50995 106.69 4.51553 106.685 4.51986Z" fill="#F7D317"/>
<path d="M107.495 3.53882C107.496 3.55784 107.492 3.5768 107.485 3.59416C107.478 3.61152 107.467 3.62677 107.454 3.6387C107.313 3.76571 107.179 3.90229 107.053 4.04767C107.009 4.01737 107.044 3.98671 107.042 3.95899C107.175 3.82358 107.309 3.68859 107.441 3.55226C107.448 3.54539 107.457 3.54058 107.466 3.53825C107.476 3.5359 107.485 3.5361 107.495 3.53882Z" fill="#F7D317"/>
<path d="M106.685 4.5198L106.695 4.43942C106.778 4.30186 106.869 4.16981 106.966 4.04395C106.984 4.06473 106.999 4.09349 106.983 4.11603C106.904 4.2676 106.803 4.404 106.685 4.5198Z" fill="#F7D317"/>
<path d="M108.585 2.92403L108.536 2.95686C108.531 2.93638 108.525 2.9163 108.517 2.89673C108.504 2.86714 108.507 2.84446 108.538 2.83735C108.567 2.83062 108.563 2.8624 108.57 2.87924C108.576 2.89357 108.58 2.90907 108.585 2.92403Z" fill="#F7D317"/>
<path d="M105.761 7.34694L105.712 7.30359C105.791 6.92908 105.869 6.55458 105.947 6.18008L105.953 6.16943C105.965 6.17213 105.977 6.18003 105.984 6.1915C105.992 6.20296 105.995 6.21714 105.993 6.2311L105.761 7.34694Z" fill="#F7D317"/>
<path d="M105.993 6.23103L105.953 6.16934C106.002 6.06806 106.002 5.94813 106.055 5.84863L106.091 5.87471C106.105 5.9341 106.134 5.98782 106.175 6.02949L106.159 6.16562C106.164 6.17404 106.165 6.18099 106.161 6.18646L106.151 6.19357C106.113 6.2127 106.117 6.26176 106.094 6.2919C106.06 6.27243 106.037 6.2304 105.993 6.23103Z" fill="#F7D317"/>
<path d="M112.254 15.0763C112.158 15.2907 112.051 15.499 111.933 15.6998C111.75 16.0169 111.559 16.3276 111.372 16.6414C111.321 16.7262 111.235 16.7895 111.236 16.9061L111.235 16.9062C111.195 16.9167 111.215 16.9723 111.183 16.988C110.979 17.3239 110.746 17.6362 110.523 17.9562C110.305 18.2677 110.084 18.5764 109.86 18.8823C109.753 19.0289 109.785 19.0292 109.617 18.9623L109.548 18.9339C109.531 18.8566 109.585 18.8141 109.621 18.7654C109.745 18.5966 109.856 18.4157 109.977 18.2446C110.091 18.1031 110.213 17.9689 110.342 17.8425C110.441 17.7298 110.529 17.6062 110.605 17.4738C110.667 17.3552 110.74 17.2433 110.821 17.1397C110.855 17.0688 110.902 17.0068 110.96 16.9578C111.041 16.8705 111.11 16.7708 111.166 16.6619C111.278 16.4841 111.385 16.3019 111.492 16.1205C111.53 16.0693 111.552 16.0069 111.556 15.9415V15.9425C111.595 15.8707 111.671 15.8295 111.693 15.7436C111.777 15.5417 111.878 15.349 111.996 15.1683C112.032 15.0958 112.051 15.002 112.134 14.9658C112.192 14.9781 112.221 15.0303 112.254 15.0763Z" fill="#F7D317"/>
<path d="M113.546 11.6158C113.634 11.4292 113.698 11.2302 113.736 11.0245C113.746 10.9684 113.799 10.935 113.8 10.8746C113.877 10.6939 113.937 10.5044 113.976 10.3096C113.993 10.2788 113.972 10.227 114.021 10.2144C114.01 10.4591 113.946 10.6975 113.834 10.9099C113.799 10.9999 113.775 11.095 113.764 11.1923C113.757 11.2563 113.828 11.3202 113.771 11.3937C113.725 11.4538 113.734 11.5414 113.696 11.6056C113.656 11.6713 113.659 11.7539 113.622 11.8187C113.583 11.901 113.553 11.9876 113.531 12.077C113.505 12.1582 113.404 12.2187 113.42 12.2685C113.453 12.3675 113.397 12.4208 113.372 12.4864C113.253 12.8015 113.127 13.1136 113.001 13.4258C112.974 13.4942 112.967 13.593 112.857 13.563C112.843 13.5591 112.834 13.5933 112.85 13.6137C112.894 13.6702 112.894 13.6701 112.837 13.7319L112.838 13.7312C112.815 13.7339 112.823 13.6533 112.781 13.705C112.74 13.7551 112.737 13.8431 112.657 13.8541L112.671 13.7911C112.699 13.6194 112.774 13.4613 112.887 13.3389C112.906 13.322 112.921 13.3 112.931 13.275C112.941 13.25 112.945 13.2229 112.942 13.1959C112.943 13.1588 112.952 13.1224 112.969 13.0897C112.961 13.0435 112.984 13.0201 113.02 13.006C113.103 12.8782 113.163 12.7355 113.2 12.5842C113.222 12.4969 113.25 12.4114 113.283 12.3284L113.284 12.3055C113.29 12.2516 113.301 12.1987 113.317 12.1475C113.343 12.0908 113.357 12.0254 113.414 11.9916C113.436 11.97 113.453 11.9434 113.465 11.9136C113.476 11.8837 113.482 11.8514 113.481 11.819C113.486 11.746 113.508 11.6758 113.546 11.6158Z" fill="#F7D317"/>
<path d="M108.103 20.7692C108.106 20.7318 108.099 20.6941 108.08 20.6623C108.041 20.5655 108.045 20.5596 108.154 20.5112C108.173 20.5544 108.178 20.6032 108.168 20.6498C108.159 20.6965 108.136 20.7386 108.103 20.7692Z" fill="#F7D317"/>
<path d="M108.912 2.94384C108.994 2.84252 109.099 2.87878 109.199 2.88452C109.107 2.92295 109.01 2.94303 108.912 2.94384Z" fill="#F7D317"/>
<path d="M107.934 20.9968C107.937 20.958 107.951 20.9212 107.973 20.8907C107.995 20.8604 108.025 20.8374 108.059 20.8247C108.034 20.8948 107.99 20.9549 107.934 20.9968Z" fill="#F7D317"/>
<path d="M112.187 14.4897C112.2 14.5706 112.159 14.5405 112.125 14.5268C112.128 14.5173 112.129 14.5071 112.128 14.4971L112.187 14.4897Z" fill="#F7D317"/>
<path d="M107.119 18.8349L107.068 18.8227C107.074 18.8097 107.083 18.7987 107.094 18.791C107.105 18.7831 107.118 18.779 107.131 18.779L107.131 18.7783L107.119 18.8349Z" fill="#F7D317"/>
<path d="M105.777 15.4043C105.801 15.4393 105.816 15.4796 105.824 15.5223C105.831 15.565 105.829 15.6089 105.819 15.6509C105.779 15.5767 105.764 15.4893 105.777 15.4043Z" fill="#F7D317"/>
<path d="M105.525 12.1748C105.565 12.2204 105.541 12.267 105.527 12.3133C105.517 12.2919 105.512 12.2683 105.512 12.2443C105.511 12.2203 105.516 12.1965 105.525 12.1748Z" fill="#F7D317"/>
<path d="M111.183 16.9884C111.19 16.9524 111.191 16.9127 111.236 16.9058C111.229 16.9409 111.219 16.9744 111.183 16.9884Z" fill="#F7D317"/>
<path d="M112.838 13.7316C112.866 13.7646 112.852 13.7872 112.822 13.8051C112.81 13.8117 112.801 13.8071 112.8 13.7932C112.798 13.7622 112.827 13.7523 112.839 13.731L112.838 13.7316Z" fill="#F7D317"/>
<path d="M106.87 4.48926C106.872 4.53394 106.86 4.57781 106.836 4.61413C106.812 4.65043 106.778 4.67719 106.739 4.69025C106.76 4.60852 106.807 4.53744 106.87 4.48926Z" fill="#F7D317"/>
<path d="M106.737 4.69434C106.738 4.72999 106.729 4.76508 106.713 4.79582C106.696 4.82655 106.672 4.85175 106.644 4.86869C106.654 4.79999 106.688 4.73795 106.737 4.69434Z" fill="#F7D317"/>
<path d="M107.246 4.01123C107.246 4.02218 107.243 4.03295 107.239 4.04288C107.235 4.05281 107.229 4.0617 107.221 4.06906C107.214 4.07641 107.205 4.08208 107.196 4.08571C107.186 4.08934 107.177 4.09088 107.167 4.09023C107.171 4.06976 107.181 4.05124 107.195 4.03712C107.209 4.02302 107.227 4.01399 107.246 4.01123Z" fill="#F7D317"/>
<path d="M106.476 5.2373C106.468 5.2817 106.472 5.33358 106.42 5.35284C106.426 5.30723 106.431 5.26114 106.476 5.2373Z" fill="#F7D317"/>
<path d="M108.721 3.13123C108.635 3.07494 108.555 3.12906 108.48 3.15629C108.378 3.19794 108.278 3.24625 108.181 3.30097C108.153 3.31216 108.128 3.3312 108.109 3.35623C108.089 3.38128 108.076 3.41144 108.07 3.4438C108.039 3.37026 108.067 3.32246 108.124 3.28243C108.27 3.18375 108.429 3.11041 108.595 3.06501C108.64 3.05182 108.721 3.0147 108.721 3.13123Z" fill="#F7D317"/>
<path d="M108.901 2.97911C108.892 2.99754 108.877 3.01187 108.86 3.01955C108.842 3.02723 108.822 3.02777 108.804 3.02107C108.813 3.00243 108.828 2.9879 108.845 2.9802C108.863 2.97248 108.883 2.9721 108.901 2.97911Z" fill="#F7D317"/>
<path d="M113.283 12.3286C113.294 12.2723 113.288 12.2076 113.346 12.1743C113.346 12.2035 113.341 12.2324 113.33 12.259C113.319 12.2857 113.303 12.3094 113.283 12.3286Z" fill="#F7D317"/>
<path d="M103.57 35.031C103.517 35.2892 103.46 35.5423 103.402 35.8005C99.8554 38.2902 95.7603 39.6747 91.5538 39.8062C86.2972 39.8156 81.0825 38.778 76.1622 36.7439C76.1622 36.7439 75.8554 36.6016 75.2847 36.412C69.6535 34.6412 63.6209 35.2814 58.4019 38.2039C56.8606 39.0636 55.3978 40.0837 54.0337 41.2503V41.2451C55.3653 39.4946 56.9225 37.9676 58.6561 36.7124C63.1488 33.4025 70.7344 30.3403 80.6359 35.6741C88.466 39.8905 96.881 38.0932 103.57 35.031Z" fill="url(#paint9_linear_2787_18808)"/>
<path d="M103.829 33.8454L103.57 35.0312C96.881 38.0934 88.466 39.8908 80.6359 35.6742C70.7344 30.3404 63.1488 33.4027 58.6561 36.7125C56.9225 37.9677 55.3653 39.4947 54.0337 41.2452C55.1304 38.395 56.7141 35.8025 58.6992 33.6082C61.3495 30.5874 64.9068 28.7259 68.711 28.3691C69.4635 29.2596 70.4006 29.9368 71.4424 30.3433C72.4844 30.7499 73.6003 30.8736 74.695 30.704C75.5548 30.5775 76.3838 30.2678 77.1356 29.7922C92.3738 35.5741 91.5636 34.8889 91.4245 34.7887C91.6881 34.889 95.6391 36.2434 103.829 33.8454Z" fill="url(#paint10_linear_2787_18808)"/>
<path d="M54.0343 41.2505L54.0288 41.2563" stroke="black" stroke-miterlimit="10"/>
<path d="M54.0337 41.2506C55.3978 40.084 56.8606 39.0639 58.4019 38.2043C57.8505 40.6655 56.1921 42.9868 54.0289 46.0257C49.1545 52.8732 48.788 52.7931 48.5675 53.5152C48.347 54.2425 47.7907 68.3413 39.3325 76.2365C30.8791 84.1319 19.1892 83.1358 10.3569 90.5462C13.7863 86.4732 18.2086 83.5697 23.097 82.1818C28.3261 80.5717 33.1437 77.6488 37.17 73.6435C37.17 73.6435 40.4258 70.3968 42.5307 62.4172C43.0984 60.1878 43.4836 57.9071 43.6815 55.6024C43.8537 53.5965 44.3912 51.6493 45.2618 49.8765C46.1325 48.1036 47.3187 46.5414 48.7498 45.2826C54.1728 40.6077 54.9064 35.7745 54.9064 35.7745C54.9064 35.7745 58.1334 20.6269 24.8567 23.2094C24.8567 23.2094 49.8862 17.2643 57.3662 28.6223C58.1023 30.1727 58.5551 31.8665 58.6991 33.6082C56.7141 35.8026 55.1303 38.3951 54.0337 41.2453V41.2506Z" fill="url(#paint11_linear_2787_18808)"/>
<defs>
<linearGradient id="paint0_linear_2787_18808" x1="11.3912" y1="114.817" x2="144.803" y2="32.8913" gradientUnits="userSpaceOnUse">
<stop offset="0.29212" stop-color="#1988A1"/>
<stop offset="0.77263" stop-color="#0B5C9A"/>
</linearGradient>
<linearGradient id="paint1_linear_2787_18808" x1="120.057" y1="37.8363" x2="23.8054" y2="105.855" gradientUnits="userSpaceOnUse">
<stop stop-color="#166E9D"/>
<stop offset="0.85787" stop-color="#26A8A0"/>
</linearGradient>
<linearGradient id="paint2_linear_2787_18808" x1="71.5508" y1="-2.29273" x2="26.0046" y2="114.623" gradientUnits="userSpaceOnUse">
<stop stop-color="#17668F"/>
<stop offset="0.17513" stop-color="#186990"/>
<stop offset="0.63127" stop-color="#2FBBA4"/>
</linearGradient>
<linearGradient id="paint3_linear_2787_18808" x1="24.8569" y1="26.83" x2="68.7111" y2="26.83" gradientUnits="userSpaceOnUse">
<stop stop-color="#F7D317"/>
<stop offset="0.47087" stop-color="#ED8422"/>
<stop offset="0.85838" stop-color="#EF4423"/>
</linearGradient>
<linearGradient id="paint4_linear_2787_18808" x1="10.3423" y1="62.9959" x2="75.2845" y2="62.9959" gradientUnits="userSpaceOnUse">
<stop stop-color="#F7D317"/>
<stop offset="0.47087" stop-color="#ED8422"/>
<stop offset="0.85838" stop-color="#EF4423"/>
</linearGradient>
<linearGradient id="paint5_linear_2787_18808" x1="64.6422" y1="98.0411" x2="122.863" y2="-2.8028" gradientUnits="userSpaceOnUse">
<stop stop-color="#F7D317"/>
<stop offset="0.35865" stop-color="#ED8422"/>
<stop offset="0.56463" stop-color="#EF4423"/>
</linearGradient>
<linearGradient id="paint6_linear_2787_18808" x1="61.5984" y1="95.5913" x2="120.007" y2="20.0686" gradientUnits="userSpaceOnUse">
<stop offset="0.02841" stop-color="#F7D317"/>
<stop offset="0.20547" stop-color="#EE6A24"/>
<stop offset="0.47572" stop-color="#EF4423"/>
</linearGradient>
<linearGradient id="paint7_linear_2787_18808" x1="66.8555" y1="23.4994" x2="78.7804" y2="23.4994" gradientUnits="userSpaceOnUse">
<stop stop-color="#EF4423"/>
<stop offset="0.45178" stop-color="#ED8422"/>
</linearGradient>
<linearGradient id="paint8_linear_2787_18808" x1="69.9932" y1="22.0042" x2="80.6361" y2="22.0042" gradientUnits="userSpaceOnUse">
<stop stop-color="#ED8422"/>
<stop offset="1" stop-color="#F7D317"/>
</linearGradient>
<linearGradient id="paint9_linear_2787_18808" x1="54.0337" y1="37.0157" x2="103.57" y2="37.0157" gradientUnits="userSpaceOnUse">
<stop offset="0.03378" stop-color="#EF4423"/>
<stop offset="0.56463" stop-color="#B73426"/>
</linearGradient>
<linearGradient id="paint10_linear_2787_18808" x1="54.0337" y1="34.8073" x2="103.829" y2="34.8073" gradientUnits="userSpaceOnUse">
<stop offset="0.27743" stop-color="#ED8422"/>
<stop offset="0.56463" stop-color="#EF4423"/>
</linearGradient>
<linearGradient id="paint11_linear_2787_18808" x1="10.3569" y1="56.1002" x2="58.6991" y2="56.1002" gradientUnits="userSpaceOnUse">
<stop offset="0.68203" stop-color="#F7D317"/>
<stop offset="1" stop-color="#ED8422"/>
</linearGradient>
</defs>
</svg>
