<svg width="26" height="26" viewBox="0 0 26 26" fill="none" xmlns="http://www.w3.org/2000/svg">
<path d="M14.25 20.9163C13.8958 20.9163 13.5992 20.7643 13.36 20.4603C13.12 20.1574 13 19.7816 13 19.333C13 18.8844 13.12 18.5081 13.36 18.2041C13.5992 17.9011 13.8958 17.7497 14.25 17.7497H19.25C19.6042 17.7497 19.9008 17.9011 20.14 18.2041C20.38 18.5081 20.5 18.8844 20.5 19.333C20.5 19.7816 20.38 20.1574 20.14 20.4603C19.9008 20.7643 19.6042 20.9163 19.25 20.9163H14.25ZM6.5 19.808C6.27083 19.5177 6.15625 19.1483 6.15625 18.6997C6.15625 18.2511 6.27083 17.8816 6.5 17.5913L8.84375 14.583L6.46875 11.5747C6.21875 11.258 6.09917 10.8886 6.11 10.4663C6.12 10.0441 6.25 9.67467 6.5 9.35801C6.75 9.06773 7.04167 8.91573 7.375 8.90201C7.70833 8.88934 8 9.04134 8.25 9.35801L11.5 13.4747C11.625 13.633 11.7137 13.8045 11.7662 13.9893C11.8179 14.174 11.8438 14.3719 11.8438 14.583C11.8438 14.7941 11.8179 14.992 11.7662 15.1768C11.7137 15.3615 11.625 15.533 11.5 15.6913L8.25 19.808C8.02083 20.0983 7.73458 20.2498 7.39125 20.2624C7.04708 20.2761 6.75 20.1247 6.5 19.808ZM3 25.6663C2.3125 25.6663 1.72417 25.3565 1.235 24.7369C0.745 24.1163 0.5 23.3705 0.5 22.4997V3.49967C0.5 2.62884 0.745 1.88362 1.235 1.26401C1.72417 0.643341 2.3125 0.333008 3 0.333008H23C23.6875 0.333008 24.2763 0.643341 24.7663 1.26401C25.2554 1.88362 25.5 2.62884 25.5 3.49967V22.4997C25.5 23.3705 25.2554 24.1163 24.7663 24.7369C24.2763 25.3565 23.6875 25.6663 23 25.6663H3ZM3 22.4997H23V6.66634H3V22.4997Z" fill="white" fill-opacity="0.4"/>
</svg>
