<svg width="24" height="19" viewBox="0 0 24 19" fill="none" xmlns="http://www.w3.org/2000/svg">
<path d="M21.2766 4.73953C21.2908 4.94523 21.2908 5.15093 21.2908 5.35853C21.2908 11.6841 16.4753 18.9794 7.66997 18.9794V18.9756C5.06885 18.9794 2.52175 18.2343 0.332031 16.8294C0.710256 16.875 1.09038 16.8977 1.47145 16.8986C3.62704 16.9005 5.72102 16.1773 7.41687 14.8454C5.36839 14.8066 3.57206 13.4709 2.94453 11.521C3.66211 11.6594 4.4015 11.631 5.10581 11.4386C2.87249 10.9873 1.26574 9.02513 1.26574 6.7463C1.26574 6.72545 1.26574 6.70554 1.26574 6.68563C1.93119 7.05628 2.67627 7.26198 3.4384 7.28473C1.33494 5.87894 0.686558 3.08065 1.95679 0.892825C4.38728 3.88355 7.97331 5.70168 11.8229 5.89411C11.437 4.23144 11.9641 2.48914 13.2078 1.32034C15.1359 -0.492103 18.1683 -0.399206 19.9808 1.52794C21.0529 1.31655 22.0804 0.923159 23.0208 0.365775C22.6634 1.47391 21.9155 2.4152 20.9164 3.01335C21.8652 2.90149 22.7923 2.64745 23.6654 2.25974C23.0227 3.22284 22.2131 4.06176 21.2766 4.73953Z" fill="#EC7B22"/>
</svg>
