<svg width="257" height="258" viewBox="0 0 257 258" fill="none" xmlns="http://www.w3.org/2000/svg">
<path fill-rule="evenodd" clip-rule="evenodd" d="M3.46422 90.5024C8.44957 76.2339 15.8298 62.9504 25.275 51.2461C46.5193 40.5249 70.2425 35.995 93.818 38.1585C134.441 41.423 168.328 61.9453 184.177 89.3894C161.261 72.5558 134.159 62.6101 105.939 60.678C65.4609 57.4251 28.2666 69.3475 3.46422 90.5024Z" fill="url(#paint0_linear_3416_12871)"/>
<path fill-rule="evenodd" clip-rule="evenodd" d="M1.22954 120.693C1.14524 121.536 1.06901 122.381 1.00139 123.23C-0.000563909 135.571 0.722912 147.99 3.15009 160.114C18.9786 125.526 47.2919 98.4686 82.1739 84.5974C117.056 70.7258 155.807 71.1129 190.33 85.6775C170.591 72.2287 147.77 64.198 124.066 62.3597C73.4136 58.2892 27.1415 82.1385 1.22954 120.693Z" fill="url(#paint1_linear_3416_12871)"/>
<path fill-rule="evenodd" clip-rule="evenodd" d="M41.1322 30.0141C53.5892 27.1967 66.3832 26.2887 79.0915 27.3206C150.923 33.0931 204.289 98.3312 198.286 173.033C195.827 204.664 182.658 234.474 161.036 257.36C185.934 249.858 208.048 234.869 224.479 214.358C240.909 193.847 250.888 168.774 253.107 142.425C258.905 70.2765 205.373 7.10797 133.542 1.3355C100.317 -1.41841 67.2717 8.83675 41.1322 30.0141Z" fill="url(#paint2_linear_3416_12871)"/>
<defs>
<linearGradient id="paint0_linear_3416_12871" x1="-29.2707" y1="159.949" x2="196.034" y2="15.2306" gradientUnits="userSpaceOnUse">
<stop stop-color="#166E9D"/>
<stop offset="0.85787" stop-color="#26A8A0"/>
</linearGradient>
<linearGradient id="paint1_linear_3416_12871" x1="236.749" y1="14.2516" x2="-76.0413" y2="187.04" gradientUnits="userSpaceOnUse">
<stop offset="0.29212" stop-color="#1988A1"/>
<stop offset="0.77263" stop-color="#0B5C9A"/>
</linearGradient>
<linearGradient id="paint2_linear_3416_12871" x1="76.5652" y1="255.548" x2="190.002" y2="6.14801" gradientUnits="userSpaceOnUse">
<stop stop-color="#17668F"/>
<stop offset="0.17513" stop-color="#186990"/>
<stop offset="0.63127" stop-color="#2FBBA4"/>
</linearGradient>
</defs>
</svg>
