<svg width="115" height="117" viewBox="0 0 115 117" fill="none" xmlns="http://www.w3.org/2000/svg">
<path fill-rule="evenodd" clip-rule="evenodd" d="M113.441 57.053C113.449 56.6616 113.452 56.2693 113.452 55.876C113.457 50.1524 112.687 44.4572 111.165 38.9609C105.329 55.4837 93.6373 68.9987 78.5338 76.6815C63.4304 84.3645 46.0837 85.621 30.1187 80.1885C39.431 85.6542 49.927 88.5094 60.5953 88.4788C83.3977 88.4788 103.237 75.7768 113.441 57.053Z" fill="url(#paint0_linear_2787_18813)"/>
<path fill-rule="evenodd" clip-rule="evenodd" d="M113.527 71.0464C111.81 77.8053 108.987 84.199 105.183 89.9415C96.0661 95.668 85.618 98.6335 74.9953 98.5096C56.708 98.5096 40.8134 90.3086 32.7378 78.2504C43.5927 85.1581 56.0724 88.7371 68.7641 88.5825C86.9864 88.5825 103.194 81.712 113.527 71.0464Z" fill="url(#paint1_linear_2787_18813)"/>
<path fill-rule="evenodd" clip-rule="evenodd" d="M98.8529 100.311C93.3824 102.071 87.6925 102.963 81.9712 102.958C49.6347 102.958 23.4203 74.875 23.4203 40.2336C23.3833 25.5684 28.2017 11.3457 37.0506 0C26.1838 4.37854 16.8311 12.1038 10.2192 22.1626C3.60738 32.2213 0.0452198 44.1437 0 56.3659C0 89.8236 26.2141 116.947 58.5507 116.947C73.5106 116.985 87.9224 111.037 98.8529 100.311Z" fill="url(#paint2_linear_2787_18813)"/>
<path d="M111.67 46.0523C111.67 46.0523 105.182 52.6432 92.9297 51.5636C92.9297 51.5636 90.2627 51.2714 81.9567 47.8439C81.1126 47.495 80.2072 47.1131 79.2403 46.6982C77.5262 45.7694 75.6428 45.2358 73.7162 45.1334C71.7897 45.031 69.8646 45.3619 68.0699 46.1042L68.0653 46.1089C66.0377 46.9504 64.1738 48.1744 62.5654 49.7203C62.5744 49.7016 62.6058 49.6307 62.6642 49.5223C62.6821 49.4893 62.7002 49.4516 62.7226 49.4138C63.8046 47.4478 70.3552 37.104 84.3946 46.1418C99.8438 56.085 110.772 46.4294 110.772 46.4294C111.068 46.3117 111.365 46.1844 111.67 46.0523Z" fill="url(#paint3_linear_2787_18813)"/>
<path d="M110.772 46.4295C110.772 46.4295 99.8439 56.0849 84.3947 46.1417C70.3552 37.1039 63.8046 47.4477 62.7227 49.4137C62.8887 49.1026 63.1895 48.5699 63.6116 47.9098L63.616 47.9051C65.4837 45.0009 69.7806 39.6263 76.0661 39.4565C77.2072 40.3716 78.6039 40.8654 80.0396 40.8614C80.5876 40.8609 81.1334 40.7897 81.6649 40.6493C81.8176 40.7153 81.9702 40.786 82.1229 40.8614C94.1779 46.6651 98.7844 51.3325 110.772 46.4295Z" fill="url(#paint4_linear_2787_18813)"/>
<path d="M85.7213 78.1576C80.4637 84.843 66.1685 91.7451 65.6611 91.9857C65.7374 91.9243 66.2088 91.5612 66.9451 90.9672C78.9417 84.7628 93.0755 69.6997 83.8761 66.5926C74.3219 63.3726 67.4031 66.4607 67.1203 66.588C67.3492 66.0977 67.6097 65.5508 67.8925 64.9378C67.9913 64.7304 68.09 64.523 68.1889 64.3013C68.1929 64.2992 68.1964 64.2958 68.1988 64.2917C68.2012 64.2874 68.2024 64.2826 68.2023 64.2779C68.292 64.0892 68.3863 63.8912 68.4761 63.6885C68.53 63.58 68.5794 63.4716 68.6333 63.3584C68.7321 63.1463 68.8308 62.9247 68.9341 62.7031C69.0598 62.4344 69.1855 62.161 69.3158 61.8781C69.3921 61.7178 69.4683 61.5481 69.5447 61.3784C69.6166 61.2321 69.6839 61.086 69.7513 60.9351C69.823 60.7843 69.8904 60.6334 69.9623 60.4779C74.4633 59.7017 79.0823 60.3227 83.2519 62.2646C89.8384 65.6167 90.8262 71.6609 85.7213 78.1576Z" fill="url(#paint5_linear_2787_18813)"/>
<path d="M81.8536 47.7635C76.7514 50.2964 72.6808 54.6628 70.3779 60.0733C70.306 60.2288 70.2386 60.3797 70.1667 60.5305C70.0994 60.6814 70.0321 60.8275 69.9603 60.9737C69.8839 61.1435 69.8076 61.3132 69.7312 61.4734C69.6011 61.7564 69.4754 62.0298 69.3497 62.2986C69.2464 62.5201 69.1476 62.7417 69.0489 62.9539C68.995 63.067 68.9456 63.1754 68.8917 63.2839C68.7974 63.4866 68.7031 63.6846 68.6178 63.8732C68.6178 63.8781 68.6166 63.8828 68.6144 63.887C68.612 63.8911 68.6085 63.8945 68.6043 63.8968C68.5056 64.1183 68.4068 64.3259 68.308 64.5332C68.1419 64.8821 67.9847 65.2075 67.8366 65.5186L67.6121 65.9901C67.4055 66.4191 67.217 66.8103 67.0419 67.164C66.9701 67.3148 66.8982 67.461 66.8309 67.6024L66.8174 67.626C66.7455 67.7722 66.6738 67.9089 66.6109 68.0409C66.5435 68.1729 66.4806 68.3002 66.4223 68.4181C66.3236 68.6161 66.2292 68.7952 66.1484 68.9555C66.1035 69.0404 66.0631 69.1252 66.0228 69.2007C65.906 69.4175 65.8073 69.606 65.7219 69.7617C65.686 69.823 65.6546 69.8796 65.6276 69.9314C65.5424 70.0823 65.4749 70.2002 65.4166 70.2945C65.3551 70.3978 65.2877 70.497 65.2146 70.5915C65.2685 70.5679 65.3179 70.5443 65.3718 70.5255C65.2685 70.8461 63.7284 75.5748 57.9457 81.1051C54.0261 84.8532 46.5372 86.4278 41.8319 87.0691C40.0173 87.3072 38.1918 87.444 36.3634 87.4792C33.5752 87.5404 26.8003 88.0686 21.6953 91.5856L21.7088 91.5716C26.3438 88.109 31.6711 85.8047 37.2838 84.8344C40.8532 84.4005 47.718 81.6613 47.718 81.6613C47.718 81.6613 56.3652 78.7808 60.3477 65.0848C64.2628 51.6057 67.8545 46.1934 67.9624 46.0284L67.9668 46.0236C69.7616 45.2813 71.6867 44.9504 73.6132 45.0529C75.5397 45.1553 77.4231 45.6888 79.1373 46.6177C80.1026 47.0327 81.0081 47.4146 81.8536 47.7635Z" fill="url(#paint6_linear_2787_18813)"/>
<path d="M68.0656 46.1089C67.9577 46.274 64.3658 51.6863 60.4508 65.1653C56.4685 78.8614 47.8211 81.7419 47.8211 81.7419C47.8211 81.7419 40.9564 84.4811 37.387 84.9149C31.7743 85.8851 26.447 88.1896 21.812 91.652C26.4827 87.1911 32.0825 83.9394 38.1637 82.1568C47.6282 79.5591 51.5476 74.59 51.5476 74.59C54.6936 69.6563 57.2184 64.3158 59.0591 58.7017C61.9505 49.7958 63.5175 48.0136 63.6117 47.91C63.1897 48.57 62.8889 49.1028 62.7227 49.4139C62.7003 49.4517 62.6823 49.4893 62.6644 49.5223C62.6059 49.6308 62.5746 49.7015 62.5657 49.7203C64.1739 48.1745 66.0379 46.9505 68.0656 46.1089Z" fill="url(#paint7_linear_2787_18813)"/>
<path d="M86.6303 33.9454C86.632 34.9274 86.4333 35.8984 86.0477 36.793C85.662 37.6875 85.0983 38.4849 84.3945 39.1314C74.1668 40.032 76.2186 28.5849 76.277 28.269V28.2644C77.2652 27.5422 78.423 27.1181 79.6245 27.0383C80.8262 26.9583 82.0257 27.2257 83.0927 27.8112C84.1598 28.3967 85.0537 29.2781 85.6773 30.3596C86.3011 31.441 86.6307 32.6811 86.6303 33.9454Z" fill="url(#paint8_linear_2787_18813)"/>
<path d="M84.3947 39.1315C83.613 39.8589 82.6771 40.3794 81.6648 40.6496C81.1335 40.7899 80.5875 40.8612 80.0395 40.8617C78.6373 40.8619 77.2715 40.3919 76.1412 39.5202C75.0108 38.6488 74.1749 37.4212 73.7552 36.016C73.3353 34.611 73.3536 33.1019 73.8072 31.7086C74.2608 30.3152 75.1262 29.1101 76.2772 28.269C76.2188 28.5849 74.167 40.0319 84.3947 39.1315Z" fill="url(#paint9_linear_2787_18813)"/>
<path d="M109.214 39.131C112.398 39.131 114.979 36.4208 114.979 33.0775C114.979 29.7343 112.398 27.0239 109.214 27.0239C106.03 27.0239 103.449 29.7343 103.449 33.0775C103.449 36.4208 106.03 39.131 109.214 39.131Z" fill="#F7D317"/>
<path d="M114.243 5.52246H28.3804V8.54923H114.243V5.52246Z" fill="#EF4423"/>
<path d="M114.243 17.3987V16.2059H109.093V8.54932H107.961V16.2059H99.8799V8.54932H98.7484V16.2059H90.6669V8.54932H89.5354V16.2059H81.4538V8.54932H80.3179V16.2059H72.2364V8.54932H71.105V16.2059H63.0233V8.54932H61.892V16.2059H53.8104V8.54932H52.679V16.2059H44.5974V8.54932H43.4661V16.2059H35.3844V8.54932H34.2485V16.2059H28.3804V17.3987H34.2485V25.0552H28.3804V26.2433H114.243V25.0552H109.093V17.3987H114.243ZM43.4661 25.0552H35.3845V17.3987H43.4661V25.0552ZM52.6791 25.0552H44.5974V17.3987H52.6791V25.0552ZM61.892 25.0552H53.8104V17.3987H61.892V25.0552ZM71.105 25.0552H63.0235V17.3987H71.105V25.0552ZM80.3179 25.0552H72.2364V17.3987H80.3179V25.0552ZM89.5354 25.0552H81.4538V17.3987H89.5354V25.0552ZM98.7485 25.0552H90.6669V17.3987H98.7485V25.0552ZM107.961 25.0552H99.8799V17.3987H107.961V25.0552Z" fill="#EF4423"/>
<path d="M62.566 49.7202L62.561 49.7254" stroke="#231F20" stroke-miterlimit="10"/>
<path d="M67.2306 90.7511C72.1514 86.7814 88.8982 72.4962 78.904 69.6156C74.3667 68.3032 69.5358 68.6916 65.2417 70.714L65.2461 70.6953L65.2865 70.4831C66.0903 69.1738 66.7959 67.8008 67.3968 66.3766L67.4058 66.372C67.6886 66.2447 74.6074 63.1566 84.1616 66.3766C93.3611 69.4836 79.2274 84.5467 67.2306 90.7511Z" fill="url(#paint10_linear_2787_18813)"/>
<defs>
<linearGradient id="paint0_linear_2787_18813" x1="11.9238" y1="114.817" x2="148.009" y2="27.341" gradientUnits="userSpaceOnUse">
<stop offset="0.29212" stop-color="#1988A1"/>
<stop offset="0.77263" stop-color="#0B5C9A"/>
</linearGradient>
<linearGradient id="paint1_linear_2787_18813" x1="125.673" y1="37.8363" x2="28.033" y2="110.064" gradientUnits="userSpaceOnUse">
<stop stop-color="#166E9D"/>
<stop offset="0.85787" stop-color="#26A8A0"/>
</linearGradient>
<linearGradient id="paint2_linear_2787_18813" x1="74.8978" y1="-2.29275" x2="30.88" y2="115.985" gradientUnits="userSpaceOnUse">
<stop stop-color="#17668F"/>
<stop offset="0.17513" stop-color="#186990"/>
<stop offset="0.63127" stop-color="#2FBBA4"/>
</linearGradient>
<linearGradient id="paint3_linear_2787_18813" x1="62.5654" y1="47.087" x2="111.67" y2="47.087" gradientUnits="userSpaceOnUse">
<stop offset="0.03378" stop-color="#EF4423"/>
<stop offset="0.56463" stop-color="#B73426"/>
</linearGradient>
<linearGradient id="paint4_linear_2787_18813" x1="62.7227" y1="45.0467" x2="110.772" y2="45.0467" gradientUnits="userSpaceOnUse">
<stop offset="0.27743" stop-color="#ED8422"/>
<stop offset="0.56463" stop-color="#EF4423"/>
</linearGradient>
<linearGradient id="paint5_linear_2787_18813" x1="73.6133" y1="73.9898" x2="139.078" y2="8.86437" gradientUnits="userSpaceOnUse">
<stop offset="0.02841" stop-color="#F7D317"/>
<stop offset="0.20547" stop-color="#EE6A24"/>
<stop offset="0.47572" stop-color="#EF4423"/>
</linearGradient>
<linearGradient id="paint6_linear_2787_18813" x1="21.6953" y1="68.3162" x2="81.8536" y2="68.3162" gradientUnits="userSpaceOnUse">
<stop stop-color="#F7D317"/>
<stop offset="0.47087" stop-color="#ED8422"/>
<stop offset="0.85838" stop-color="#EF4423"/>
</linearGradient>
<linearGradient id="paint7_linear_2787_18813" x1="21.812" y1="68.8805" x2="68.0656" y2="68.8805" gradientUnits="userSpaceOnUse">
<stop offset="0.68203" stop-color="#F7D317"/>
<stop offset="1" stop-color="#ED8422"/>
</linearGradient>
<linearGradient id="paint8_linear_2787_18813" x1="76.0714" y1="33.1032" x2="86.6303" y2="33.1032" gradientUnits="userSpaceOnUse">
<stop stop-color="#ED8422"/>
<stop offset="1" stop-color="#F7D317"/>
</linearGradient>
<linearGradient id="paint9_linear_2787_18813" x1="73.4531" y1="34.5655" x2="84.3947" y2="34.5655" gradientUnits="userSpaceOnUse">
<stop stop-color="#EF4423"/>
<stop offset="0.45178" stop-color="#ED8422"/>
</linearGradient>
<linearGradient id="paint10_linear_2787_18813" x1="65.5117" y1="83.818" x2="84.1977" y2="63.6437" gradientUnits="userSpaceOnUse">
<stop stop-color="#F7D317"/>
<stop offset="0.35865" stop-color="#ED8422"/>
<stop offset="0.56463" stop-color="#EF4423"/>
</linearGradient>
</defs>
</svg>
