<svg width="116" height="117" viewBox="0 0 116 117" fill="none" xmlns="http://www.w3.org/2000/svg">
<path fill-rule="evenodd" clip-rule="evenodd" d="M115.873 57.0529C115.881 56.6615 115.884 56.2692 115.884 55.8758C115.889 50.1523 115.102 44.4571 113.548 38.9609C107.587 55.4835 95.6444 68.9986 80.2172 76.6815C64.79 84.3643 47.0714 85.6208 30.7642 80.1884C40.2762 85.6542 50.9971 88.5093 61.8942 88.4788C85.1854 88.4788 105.45 75.7766 115.873 57.0529Z" fill="url(#paint0_linear_2787_18811)"/>
<path fill-rule="evenodd" clip-rule="evenodd" d="M115.961 71.0464C114.207 77.8053 111.323 84.199 107.437 89.9415C98.1252 95.668 87.4531 98.6335 76.6027 98.5096C57.9234 98.5096 41.6882 90.3086 33.4395 78.2504C44.5271 85.1581 57.2743 88.7371 70.2381 88.5825C88.8509 88.5825 105.406 81.712 115.961 71.0464Z" fill="url(#paint1_linear_2787_18811)"/>
<path fill-rule="evenodd" clip-rule="evenodd" d="M100.972 100.311C95.3843 102.071 89.5724 102.963 83.7284 102.958C50.6987 102.958 23.9224 74.875 23.9224 40.2336C23.8845 25.5684 28.8062 11.3457 37.8448 0C26.7451 4.37854 17.1919 12.1038 10.4383 22.1626C3.68471 32.2213 0.0461874 44.1437 0 56.3659C0 89.8236 26.7761 116.947 59.8058 116.947C75.0864 116.985 89.8072 111.037 100.972 100.311Z" fill="url(#paint2_linear_2787_18811)"/>
<path d="M82.3788 95.3687C82.6765 94.7521 97.5859 63.6315 69.9219 72.9485C71.2484 71.5416 72.4525 70.018 73.5203 68.3951C73.5203 68.3951 102.188 60.302 82.3788 95.3687Z" fill="url(#paint3_linear_2787_18811)"/>
<path d="M82.3786 95.3686C102.188 60.3019 73.52 68.395 73.52 68.395C74.5732 66.7946 75.4592 65.0847 76.1634 63.2934C85.5373 62.3708 104.92 63.645 82.3786 95.3686Z" fill="url(#paint4_linear_2787_18811)"/>
<path d="M85.6885 40.0211C85.6885 41.2516 85.3312 42.4538 84.6624 43.4742C83.9937 44.4946 83.0437 45.2864 81.9345 45.7484C73.1737 42.6518 76.6167 34.8694 76.7144 34.6501L76.7189 34.6456C77.6328 34.1126 78.667 33.8355 79.7177 33.8419C80.7685 33.8483 81.7993 34.1379 82.7072 34.682C83.6149 35.2261 84.3681 36.0054 84.8912 36.9424C85.4144 37.8793 85.6892 38.9408 85.6885 40.0211Z" fill="url(#paint5_linear_2787_18811)"/>
<path d="M81.9347 45.7461C81.0224 46.1259 80.0333 46.2695 79.0545 46.1642C78.0756 46.059 77.137 45.7081 76.3209 45.1424C75.5048 44.5769 74.8364 43.8139 74.3745 42.9204C73.9125 42.0271 73.671 41.0307 73.6714 40.0189C73.6696 39.4234 73.7535 38.8308 73.9202 38.2605C74.3612 36.7296 75.3629 35.4344 76.7145 34.6479C76.6168 34.8671 73.1738 42.6495 81.9347 45.7461Z" fill="url(#paint6_linear_2787_18811)"/>
<path d="M60.5834 0.508301C56.8577 0.511868 53.2857 2.0359 50.6525 4.74551C48.0192 7.45513 46.54 11.1287 46.54 14.9588C46.54 18.7891 48.0192 22.4625 50.6525 25.1721C53.2857 27.8818 56.8577 29.4058 60.5834 29.4093C61.3498 29.4106 62.1152 29.3464 62.8714 29.2175C66.3544 28.628 69.4944 26.7127 71.6669 23.8522C73.8394 20.9919 74.8854 17.3959 74.5971 13.7789C74.309 10.162 72.7074 6.789 70.1111 4.3303C67.5147 1.87158 64.1134 0.507188 60.5834 0.508301ZM60.5834 18.4664C59.9085 18.4664 59.2489 18.2607 58.6878 17.8753C58.1267 17.4899 57.6893 16.9421 57.4311 16.3012C57.173 15.6602 57.1053 14.9549 57.2369 14.2745C57.3686 13.5941 57.6936 12.9691 58.1708 12.4786C58.6479 11.988 59.2558 11.654 59.9178 11.5186C60.5796 11.3833 61.2656 11.4527 61.889 11.7182C62.5125 11.9837 63.0454 12.4333 63.4202 13.0101C63.7952 13.587 63.9952 14.2651 63.9952 14.9588C63.995 15.8891 63.6355 16.7811 62.9957 17.4388C62.3558 18.0966 61.4882 18.4662 60.5834 18.4664Z" fill="#F7D317"/>
<path d="M60.5833 18.4687C62.4676 18.4687 63.9952 16.8984 63.9952 14.9612C63.9952 13.0239 62.4676 11.4536 60.5833 11.4536C58.6989 11.4536 57.1714 13.0239 57.1714 14.9612C57.1714 16.8984 58.6989 18.4687 60.5833 18.4687Z" fill="#ED8422"/>
<path d="M76.1635 63.2935C75.4592 65.0847 74.5732 66.7947 73.5202 68.395C72.4524 70.0179 71.2483 71.5416 69.9217 72.9485C56.1408 87.6821 28.9255 93.2632 23.8965 94.1904C83.9248 76.0129 69.1443 36.6713 65.3504 28.5555C66.0407 28.3009 66.7107 27.9908 67.3539 27.6284C69.8629 30.9525 72.0613 34.5123 73.9201 38.2607C73.7533 38.831 73.6694 39.4236 73.6712 40.0191C73.6705 41.1028 73.9472 42.1676 74.4736 43.1063C75 44.0452 75.7575 44.8249 76.67 45.3673C78.5177 51.2239 78.3387 57.5571 76.1635 63.2935Z" fill="url(#paint7_linear_2787_18811)"/>
<path d="M23.8965 94.1901C23.4566 94.2676 23.1856 94.3133 23.1101 94.327C23.1012 94.327 23.0967 94.3315 23.0879 94.3315C80.4818 72.9115 66.3765 36.4837 62.8713 29.2174C63.7156 29.0749 64.5453 28.8532 65.3502 28.5552C69.1443 36.671 83.9248 76.0126 23.8965 94.1901Z" fill="url(#paint8_linear_2787_18811)"/>
<defs>
<linearGradient id="paint0_linear_2787_18811" x1="12.1793" y1="114.817" x2="149.442" y2="24.6921" gradientUnits="userSpaceOnUse">
<stop offset="0.29212" stop-color="#1988A1"/>
<stop offset="0.77263" stop-color="#0B5C9A"/>
</linearGradient>
<linearGradient id="paint1_linear_2787_18811" x1="128.367" y1="37.8363" x2="30.1392" y2="112.056" gradientUnits="userSpaceOnUse">
<stop stop-color="#166E9D"/>
<stop offset="0.85787" stop-color="#26A8A0"/>
</linearGradient>
<linearGradient id="paint2_linear_2787_18811" x1="76.5034" y1="-2.29275" x2="33.1907" y2="116.586" gradientUnits="userSpaceOnUse">
<stop stop-color="#17668F"/>
<stop offset="0.17513" stop-color="#186990"/>
<stop offset="0.63127" stop-color="#2FBBA4"/>
</linearGradient>
<linearGradient id="paint3_linear_2787_18811" x1="73.6856" y1="87.0873" x2="98.9288" y2="57.9287" gradientUnits="userSpaceOnUse">
<stop offset="0.02841" stop-color="#F7D317"/>
<stop offset="0.20547" stop-color="#EE6A24"/>
<stop offset="0.47572" stop-color="#EF4423"/>
</linearGradient>
<linearGradient id="paint4_linear_2787_18811" x1="72.4217" y1="87.5658" x2="109.64" y2="45.2266" gradientUnits="userSpaceOnUse">
<stop offset="0.27743" stop-color="#ED8422"/>
<stop offset="0.56463" stop-color="#EF4423"/>
</linearGradient>
<linearGradient id="paint5_linear_2787_18811" x1="75.5883" y1="44.4937" x2="89.7294" y2="30.4328" gradientUnits="userSpaceOnUse">
<stop stop-color="#ED8422"/>
<stop offset="1" stop-color="#F7D317"/>
</linearGradient>
<linearGradient id="paint6_linear_2787_18811" x1="73.6714" y1="40.4231" x2="81.9347" y2="40.4231" gradientUnits="userSpaceOnUse">
<stop stop-color="#EF4423"/>
<stop offset="0.45178" stop-color="#ED8422"/>
</linearGradient>
<linearGradient id="paint7_linear_2787_18811" x1="23.8965" y1="60.9094" x2="77.9233" y2="60.9094" gradientUnits="userSpaceOnUse">
<stop stop-color="#F7D317"/>
<stop offset="0.47087" stop-color="#ED8422"/>
<stop offset="0.85838" stop-color="#EF4423"/>
</linearGradient>
<linearGradient id="paint8_linear_2787_18811" x1="23.0879" y1="61.4434" x2="69.7291" y2="61.4434" gradientUnits="userSpaceOnUse">
<stop offset="0.68203" stop-color="#F7D317"/>
<stop offset="1" stop-color="#ED8422"/>
</linearGradient>
</defs>
</svg>
