<svg width="40" height="40" viewBox="0 0 40 40" fill="none" xmlns="http://www.w3.org/2000/svg">
<g clip-path="url(#clip0_2623_37776)">
<path d="M39.1667 10.8448C38.9402 10.0369 38.499 9.30538 37.89 8.72813C37.2639 8.13314 36.4964 7.70753 35.66 7.49147C32.53 6.66647 19.99 6.66647 19.99 6.66647C14.7623 6.60699 9.53577 6.86859 4.34005 7.4498C3.5037 7.68182 2.73766 8.11695 2.11005 8.71647C1.49339 9.3098 1.04672 10.0415 0.813385 10.8431C0.252874 13.8627 -0.0194612 16.9287 5.20761e-05 19.9998C-0.0199479 23.0681 0.251719 26.1331 0.813385 29.1565C1.04172 29.9548 1.48672 30.6831 2.10505 31.2715C2.72338 31.8598 3.49339 32.2848 4.34005 32.5098C7.51172 33.3331 19.99 33.3331 19.99 33.3331C25.2245 33.3927 30.4576 33.1311 35.66 32.5498C36.4964 32.3337 37.2639 31.9081 37.89 31.3131C38.4988 30.736 38.9395 30.0044 39.165 29.1965C39.7402 26.1781 40.0198 23.1108 40 20.0381C40.0433 16.9525 39.764 13.8707 39.1667 10.8431V10.8448ZM16.0034 25.7065V14.2948L26.4367 20.0015L16.0034 25.7065Z" fill="white" fill-opacity="0.8"/>
</g>
<defs>
<clipPath id="clip0_2623_37776">
<rect width="40" height="40" fill="white"/>
</clipPath>
</defs>
</svg>
